%TF.GenerationSoftware,KiCad,Pcbnew,7.0.9*%
%TF.CreationDate,2024-08-19T17:06:18-04:00*%
%TF.ProjectId,macropad-pico,6d616372-6f70-4616-942d-7069636f2e6b,rev?*%
%TF.SameCoordinates,Original*%
%TF.FileFunction,Drillmap*%
%TF.FilePolarity,Positive*%
%FSLAX45Y45*%
G04 Gerber Fmt 4.5, Leading zero omitted, Abs format (unit mm)*
G04 Created by KiCad (PCBNEW 7.0.9) date 2024-08-19 17:06:18*
%MOMM*%
%LPD*%
G01*
G04 APERTURE LIST*
%ADD10C,0.100000*%
%ADD11C,0.200000*%
%ADD12C,0.175000*%
%ADD13C,0.220000*%
%ADD14C,0.398780*%
G04 APERTURE END LIST*
D10*
X11883400Y-4334200D02*
X11883400Y-3852900D01*
X11933400Y-4384200D02*
X12660600Y-4384200D01*
X11054800Y-9220000D02*
X11054800Y-9520000D01*
X22554800Y-4220000D02*
G75*
G03*
X22454800Y-4120000I-100000J0D01*
G01*
X22154800Y-9120000D02*
X22454800Y-9120000D01*
X22154800Y-9120000D02*
G75*
G03*
X22054800Y-9220000I0J-100000D01*
G01*
X22054800Y-9520000D02*
X22054800Y-9220000D01*
X11154800Y-3620000D02*
G75*
G03*
X11054800Y-3720000I0J-100000D01*
G01*
X12660600Y-4384200D02*
G75*
G03*
X12710600Y-4334200I0J50000D01*
G01*
X12660600Y-3802900D02*
X11933400Y-3802900D01*
X22054800Y-4020000D02*
G75*
G03*
X22154800Y-4120000I100000J0D01*
G01*
X10554800Y-4220000D02*
X10554800Y-9020000D01*
X22154800Y-4120000D02*
X22454800Y-4120000D01*
X10954800Y-4120000D02*
X10654800Y-4120000D01*
X10654800Y-4120000D02*
G75*
G03*
X10554800Y-4220000I0J-100000D01*
G01*
X10954800Y-4120000D02*
G75*
G03*
X11054800Y-4020000I0J100000D01*
G01*
X11054800Y-3720000D02*
X11054800Y-4020000D01*
X12710600Y-3852900D02*
G75*
G03*
X12660600Y-3802900I-50000J0D01*
G01*
X21954800Y-3620000D02*
X11154800Y-3620000D01*
X11154800Y-9620000D02*
X21954800Y-9620000D01*
X11883400Y-4334200D02*
G75*
G03*
X11933400Y-4384200I50000J0D01*
G01*
X22454800Y-9120000D02*
G75*
G03*
X22554800Y-9020000I0J100000D01*
G01*
X21954800Y-9620000D02*
G75*
G03*
X22054800Y-9520000I0J100000D01*
G01*
X11054800Y-9220000D02*
G75*
G03*
X10954800Y-9120000I-100000J0D01*
G01*
X22554800Y-9020000D02*
X22554800Y-4220000D01*
X22054800Y-3720000D02*
X22054800Y-4020000D01*
X11933400Y-3802900D02*
G75*
G03*
X11883400Y-3852900I0J-50000D01*
G01*
X11054800Y-9520000D02*
G75*
G03*
X11154800Y-9620000I100000J0D01*
G01*
X10554800Y-9020000D02*
G75*
G03*
X10654800Y-9120000I100000J0D01*
G01*
X10654800Y-9120000D02*
X10954800Y-9120000D01*
X22054800Y-3720000D02*
G75*
G03*
X21954800Y-3620000I-100000J0D01*
G01*
X12710600Y-4334200D02*
X12710600Y-3852900D01*
D11*
D12*
X14714308Y-4699692D02*
X14889308Y-4874692D01*
X14889308Y-4699692D02*
X14714308Y-4874692D01*
X14714308Y-6599692D02*
X14889308Y-6774692D01*
X14889308Y-6599692D02*
X14714308Y-6774692D01*
X14714308Y-8499692D02*
X14889308Y-8674692D01*
X14889308Y-8499692D02*
X14714308Y-8674692D01*
X15730308Y-4699692D02*
X15905308Y-4874692D01*
X15905308Y-4699692D02*
X15730308Y-4874692D01*
X15730308Y-6599692D02*
X15905308Y-6774692D01*
X15905308Y-6599692D02*
X15730308Y-6774692D01*
X15730308Y-8499692D02*
X15905308Y-8674692D01*
X15905308Y-8499692D02*
X15730308Y-8674692D01*
X16614308Y-4699692D02*
X16789308Y-4874692D01*
X16789308Y-4699692D02*
X16614308Y-4874692D01*
X16614308Y-6599692D02*
X16789308Y-6774692D01*
X16789308Y-6599692D02*
X16614308Y-6774692D01*
X16614308Y-8499692D02*
X16789308Y-8674692D01*
X16789308Y-8499692D02*
X16614308Y-8674692D01*
X17630308Y-4699692D02*
X17805308Y-4874692D01*
X17805308Y-4699692D02*
X17630308Y-4874692D01*
X17630308Y-6599692D02*
X17805308Y-6774692D01*
X17805308Y-6599692D02*
X17630308Y-6774692D01*
X17630308Y-8499692D02*
X17805308Y-8674692D01*
X17805308Y-8499692D02*
X17630308Y-8674692D01*
X18514308Y-4699692D02*
X18689308Y-4874692D01*
X18689308Y-4699692D02*
X18514308Y-4874692D01*
X18514308Y-6599692D02*
X18689308Y-6774692D01*
X18689308Y-6599692D02*
X18514308Y-6774692D01*
X18514308Y-8499692D02*
X18689308Y-8674692D01*
X18689308Y-8499692D02*
X18514308Y-8674692D01*
X19530308Y-4699692D02*
X19705308Y-4874692D01*
X19705308Y-4699692D02*
X19530308Y-4874692D01*
X19530308Y-6599692D02*
X19705308Y-6774692D01*
X19705308Y-6599692D02*
X19530308Y-6774692D01*
X19530308Y-8499692D02*
X19705308Y-8674692D01*
X19705308Y-8499692D02*
X19530308Y-8674692D01*
X20414308Y-4699692D02*
X20589308Y-4874692D01*
X20589308Y-4699692D02*
X20414308Y-4874692D01*
X20414308Y-6599692D02*
X20589308Y-6774692D01*
X20589308Y-6599692D02*
X20414308Y-6774692D01*
X20414308Y-8499692D02*
X20589308Y-8674692D01*
X20589308Y-8499692D02*
X20414308Y-8674692D01*
X21430308Y-4699692D02*
X21605308Y-4874692D01*
X21605308Y-4699692D02*
X21430308Y-4874692D01*
X21430308Y-6599692D02*
X21605308Y-6774692D01*
X21605308Y-6599692D02*
X21430308Y-6774692D01*
X21430308Y-8499692D02*
X21605308Y-8674692D01*
X21605308Y-8499692D02*
X21430308Y-8674692D01*
D13*
X10914600Y-8869500D02*
G75*
G03*
X10914600Y-8869500I-110000J0D01*
G01*
X10915000Y-4370000D02*
G75*
G03*
X10915000Y-4370000I-110000J0D01*
G01*
X22414800Y-8869600D02*
G75*
G03*
X22414800Y-8869600I-110000J0D01*
G01*
X22414900Y-4370300D02*
G75*
G03*
X22414900Y-4370300I-110000J0D01*
G01*
D14*
X15309808Y-4587802D02*
X15309808Y-4986582D01*
X15110418Y-4787192D02*
X15509198Y-4787192D01*
X15309808Y-6487802D02*
X15309808Y-6886582D01*
X15110418Y-6687192D02*
X15509198Y-6687192D01*
X15309808Y-8387802D02*
X15309808Y-8786582D01*
X15110418Y-8587192D02*
X15509198Y-8587192D01*
X17209808Y-4587802D02*
X17209808Y-4986582D01*
X17010418Y-4787192D02*
X17409198Y-4787192D01*
X17209808Y-6487802D02*
X17209808Y-6886582D01*
X17010418Y-6687192D02*
X17409198Y-6687192D01*
X17209808Y-8387802D02*
X17209808Y-8786582D01*
X17010418Y-8587192D02*
X17409198Y-8587192D01*
X19109808Y-4587802D02*
X19109808Y-4986582D01*
X18910418Y-4787192D02*
X19309198Y-4787192D01*
X19109808Y-6487802D02*
X19109808Y-6886582D01*
X18910418Y-6687192D02*
X19309198Y-6687192D01*
X19109808Y-8387802D02*
X19109808Y-8786582D01*
X18910418Y-8587192D02*
X19309198Y-8587192D01*
X21009808Y-4587802D02*
X21009808Y-4986582D01*
X20810418Y-4787192D02*
X21209198Y-4787192D01*
X21009808Y-6487802D02*
X21009808Y-6886582D01*
X20810418Y-6687192D02*
X21209198Y-6687192D01*
X21009808Y-8387802D02*
X21009808Y-8786582D01*
X20810418Y-8587192D02*
X21209198Y-8587192D01*
D11*
X10810577Y-9936484D02*
X10810577Y-9736484D01*
X10810577Y-9736484D02*
X10858196Y-9736484D01*
X10858196Y-9736484D02*
X10886767Y-9746008D01*
X10886767Y-9746008D02*
X10905815Y-9765055D01*
X10905815Y-9765055D02*
X10915339Y-9784103D01*
X10915339Y-9784103D02*
X10924863Y-9822198D01*
X10924863Y-9822198D02*
X10924863Y-9850770D01*
X10924863Y-9850770D02*
X10915339Y-9888865D01*
X10915339Y-9888865D02*
X10905815Y-9907912D01*
X10905815Y-9907912D02*
X10886767Y-9926960D01*
X10886767Y-9926960D02*
X10858196Y-9936484D01*
X10858196Y-9936484D02*
X10810577Y-9936484D01*
X11010577Y-9936484D02*
X11010577Y-9803150D01*
X11010577Y-9841246D02*
X11020101Y-9822198D01*
X11020101Y-9822198D02*
X11029624Y-9812674D01*
X11029624Y-9812674D02*
X11048672Y-9803150D01*
X11048672Y-9803150D02*
X11067720Y-9803150D01*
X11134386Y-9936484D02*
X11134386Y-9803150D01*
X11134386Y-9736484D02*
X11124863Y-9746008D01*
X11124863Y-9746008D02*
X11134386Y-9755531D01*
X11134386Y-9755531D02*
X11143910Y-9746008D01*
X11143910Y-9746008D02*
X11134386Y-9736484D01*
X11134386Y-9736484D02*
X11134386Y-9755531D01*
X11258196Y-9936484D02*
X11239148Y-9926960D01*
X11239148Y-9926960D02*
X11229624Y-9907912D01*
X11229624Y-9907912D02*
X11229624Y-9736484D01*
X11362958Y-9936484D02*
X11343910Y-9926960D01*
X11343910Y-9926960D02*
X11334386Y-9907912D01*
X11334386Y-9907912D02*
X11334386Y-9736484D01*
X11591529Y-9936484D02*
X11591529Y-9736484D01*
X11591529Y-9736484D02*
X11658196Y-9879341D01*
X11658196Y-9879341D02*
X11724862Y-9736484D01*
X11724862Y-9736484D02*
X11724862Y-9936484D01*
X11905815Y-9936484D02*
X11905815Y-9831722D01*
X11905815Y-9831722D02*
X11896291Y-9812674D01*
X11896291Y-9812674D02*
X11877243Y-9803150D01*
X11877243Y-9803150D02*
X11839148Y-9803150D01*
X11839148Y-9803150D02*
X11820101Y-9812674D01*
X11905815Y-9926960D02*
X11886767Y-9936484D01*
X11886767Y-9936484D02*
X11839148Y-9936484D01*
X11839148Y-9936484D02*
X11820101Y-9926960D01*
X11820101Y-9926960D02*
X11810577Y-9907912D01*
X11810577Y-9907912D02*
X11810577Y-9888865D01*
X11810577Y-9888865D02*
X11820101Y-9869817D01*
X11820101Y-9869817D02*
X11839148Y-9860293D01*
X11839148Y-9860293D02*
X11886767Y-9860293D01*
X11886767Y-9860293D02*
X11905815Y-9850770D01*
X12001053Y-9803150D02*
X12001053Y-10003150D01*
X12001053Y-9812674D02*
X12020101Y-9803150D01*
X12020101Y-9803150D02*
X12058196Y-9803150D01*
X12058196Y-9803150D02*
X12077243Y-9812674D01*
X12077243Y-9812674D02*
X12086767Y-9822198D01*
X12086767Y-9822198D02*
X12096291Y-9841246D01*
X12096291Y-9841246D02*
X12096291Y-9898389D01*
X12096291Y-9898389D02*
X12086767Y-9917436D01*
X12086767Y-9917436D02*
X12077243Y-9926960D01*
X12077243Y-9926960D02*
X12058196Y-9936484D01*
X12058196Y-9936484D02*
X12020101Y-9936484D01*
X12020101Y-9936484D02*
X12001053Y-9926960D01*
X12182005Y-9917436D02*
X12191529Y-9926960D01*
X12191529Y-9926960D02*
X12182005Y-9936484D01*
X12182005Y-9936484D02*
X12172482Y-9926960D01*
X12172482Y-9926960D02*
X12182005Y-9917436D01*
X12182005Y-9917436D02*
X12182005Y-9936484D01*
X12182005Y-9812674D02*
X12191529Y-9822198D01*
X12191529Y-9822198D02*
X12182005Y-9831722D01*
X12182005Y-9831722D02*
X12172482Y-9822198D01*
X12172482Y-9822198D02*
X12182005Y-9812674D01*
X12182005Y-9812674D02*
X12182005Y-9831722D01*
D12*
X10374800Y-10177500D02*
X10549800Y-10352500D01*
X10549800Y-10177500D02*
X10374800Y-10352500D01*
D11*
X10915339Y-10356484D02*
X10801053Y-10356484D01*
X10858196Y-10356484D02*
X10858196Y-10156484D01*
X10858196Y-10156484D02*
X10839148Y-10185055D01*
X10839148Y-10185055D02*
X10820101Y-10204103D01*
X10820101Y-10204103D02*
X10801053Y-10213627D01*
X11001053Y-10337436D02*
X11010577Y-10346960D01*
X11010577Y-10346960D02*
X11001053Y-10356484D01*
X11001053Y-10356484D02*
X10991529Y-10346960D01*
X10991529Y-10346960D02*
X11001053Y-10337436D01*
X11001053Y-10337436D02*
X11001053Y-10356484D01*
X11077244Y-10156484D02*
X11210577Y-10156484D01*
X11210577Y-10156484D02*
X11124863Y-10356484D01*
X11382005Y-10156484D02*
X11286767Y-10156484D01*
X11286767Y-10156484D02*
X11277243Y-10251722D01*
X11277243Y-10251722D02*
X11286767Y-10242198D01*
X11286767Y-10242198D02*
X11305815Y-10232674D01*
X11305815Y-10232674D02*
X11353434Y-10232674D01*
X11353434Y-10232674D02*
X11372482Y-10242198D01*
X11372482Y-10242198D02*
X11382005Y-10251722D01*
X11382005Y-10251722D02*
X11391529Y-10270770D01*
X11391529Y-10270770D02*
X11391529Y-10318389D01*
X11391529Y-10318389D02*
X11382005Y-10337436D01*
X11382005Y-10337436D02*
X11372482Y-10346960D01*
X11372482Y-10346960D02*
X11353434Y-10356484D01*
X11353434Y-10356484D02*
X11305815Y-10356484D01*
X11305815Y-10356484D02*
X11286767Y-10346960D01*
X11286767Y-10346960D02*
X11277243Y-10337436D01*
X11515339Y-10156484D02*
X11534386Y-10156484D01*
X11534386Y-10156484D02*
X11553434Y-10166008D01*
X11553434Y-10166008D02*
X11562958Y-10175531D01*
X11562958Y-10175531D02*
X11572482Y-10194579D01*
X11572482Y-10194579D02*
X11582005Y-10232674D01*
X11582005Y-10232674D02*
X11582005Y-10280293D01*
X11582005Y-10280293D02*
X11572482Y-10318389D01*
X11572482Y-10318389D02*
X11562958Y-10337436D01*
X11562958Y-10337436D02*
X11553434Y-10346960D01*
X11553434Y-10346960D02*
X11534386Y-10356484D01*
X11534386Y-10356484D02*
X11515339Y-10356484D01*
X11515339Y-10356484D02*
X11496291Y-10346960D01*
X11496291Y-10346960D02*
X11486767Y-10337436D01*
X11486767Y-10337436D02*
X11477243Y-10318389D01*
X11477243Y-10318389D02*
X11467720Y-10280293D01*
X11467720Y-10280293D02*
X11467720Y-10232674D01*
X11467720Y-10232674D02*
X11477243Y-10194579D01*
X11477243Y-10194579D02*
X11486767Y-10175531D01*
X11486767Y-10175531D02*
X11496291Y-10166008D01*
X11496291Y-10166008D02*
X11515339Y-10156484D01*
X11667720Y-10356484D02*
X11667720Y-10223150D01*
X11667720Y-10242198D02*
X11677243Y-10232674D01*
X11677243Y-10232674D02*
X11696291Y-10223150D01*
X11696291Y-10223150D02*
X11724863Y-10223150D01*
X11724863Y-10223150D02*
X11743910Y-10232674D01*
X11743910Y-10232674D02*
X11753434Y-10251722D01*
X11753434Y-10251722D02*
X11753434Y-10356484D01*
X11753434Y-10251722D02*
X11762958Y-10232674D01*
X11762958Y-10232674D02*
X11782005Y-10223150D01*
X11782005Y-10223150D02*
X11810577Y-10223150D01*
X11810577Y-10223150D02*
X11829624Y-10232674D01*
X11829624Y-10232674D02*
X11839148Y-10251722D01*
X11839148Y-10251722D02*
X11839148Y-10356484D01*
X11934386Y-10356484D02*
X11934386Y-10223150D01*
X11934386Y-10242198D02*
X11943910Y-10232674D01*
X11943910Y-10232674D02*
X11962958Y-10223150D01*
X11962958Y-10223150D02*
X11991529Y-10223150D01*
X11991529Y-10223150D02*
X12010577Y-10232674D01*
X12010577Y-10232674D02*
X12020101Y-10251722D01*
X12020101Y-10251722D02*
X12020101Y-10356484D01*
X12020101Y-10251722D02*
X12029624Y-10232674D01*
X12029624Y-10232674D02*
X12048672Y-10223150D01*
X12048672Y-10223150D02*
X12077243Y-10223150D01*
X12077243Y-10223150D02*
X12096291Y-10232674D01*
X12096291Y-10232674D02*
X12105815Y-10251722D01*
X12105815Y-10251722D02*
X12105815Y-10356484D01*
X12496291Y-10146960D02*
X12324863Y-10404103D01*
X12753434Y-10156484D02*
X12772482Y-10156484D01*
X12772482Y-10156484D02*
X12791529Y-10166008D01*
X12791529Y-10166008D02*
X12801053Y-10175531D01*
X12801053Y-10175531D02*
X12810577Y-10194579D01*
X12810577Y-10194579D02*
X12820101Y-10232674D01*
X12820101Y-10232674D02*
X12820101Y-10280293D01*
X12820101Y-10280293D02*
X12810577Y-10318389D01*
X12810577Y-10318389D02*
X12801053Y-10337436D01*
X12801053Y-10337436D02*
X12791529Y-10346960D01*
X12791529Y-10346960D02*
X12772482Y-10356484D01*
X12772482Y-10356484D02*
X12753434Y-10356484D01*
X12753434Y-10356484D02*
X12734386Y-10346960D01*
X12734386Y-10346960D02*
X12724863Y-10337436D01*
X12724863Y-10337436D02*
X12715339Y-10318389D01*
X12715339Y-10318389D02*
X12705815Y-10280293D01*
X12705815Y-10280293D02*
X12705815Y-10232674D01*
X12705815Y-10232674D02*
X12715339Y-10194579D01*
X12715339Y-10194579D02*
X12724863Y-10175531D01*
X12724863Y-10175531D02*
X12734386Y-10166008D01*
X12734386Y-10166008D02*
X12753434Y-10156484D01*
X12905815Y-10337436D02*
X12915339Y-10346960D01*
X12915339Y-10346960D02*
X12905815Y-10356484D01*
X12905815Y-10356484D02*
X12896291Y-10346960D01*
X12896291Y-10346960D02*
X12905815Y-10337436D01*
X12905815Y-10337436D02*
X12905815Y-10356484D01*
X13039148Y-10156484D02*
X13058196Y-10156484D01*
X13058196Y-10156484D02*
X13077244Y-10166008D01*
X13077244Y-10166008D02*
X13086767Y-10175531D01*
X13086767Y-10175531D02*
X13096291Y-10194579D01*
X13096291Y-10194579D02*
X13105815Y-10232674D01*
X13105815Y-10232674D02*
X13105815Y-10280293D01*
X13105815Y-10280293D02*
X13096291Y-10318389D01*
X13096291Y-10318389D02*
X13086767Y-10337436D01*
X13086767Y-10337436D02*
X13077244Y-10346960D01*
X13077244Y-10346960D02*
X13058196Y-10356484D01*
X13058196Y-10356484D02*
X13039148Y-10356484D01*
X13039148Y-10356484D02*
X13020101Y-10346960D01*
X13020101Y-10346960D02*
X13010577Y-10337436D01*
X13010577Y-10337436D02*
X13001053Y-10318389D01*
X13001053Y-10318389D02*
X12991529Y-10280293D01*
X12991529Y-10280293D02*
X12991529Y-10232674D01*
X12991529Y-10232674D02*
X13001053Y-10194579D01*
X13001053Y-10194579D02*
X13010577Y-10175531D01*
X13010577Y-10175531D02*
X13020101Y-10166008D01*
X13020101Y-10166008D02*
X13039148Y-10156484D01*
X13277244Y-10156484D02*
X13239148Y-10156484D01*
X13239148Y-10156484D02*
X13220101Y-10166008D01*
X13220101Y-10166008D02*
X13210577Y-10175531D01*
X13210577Y-10175531D02*
X13191529Y-10204103D01*
X13191529Y-10204103D02*
X13182006Y-10242198D01*
X13182006Y-10242198D02*
X13182006Y-10318389D01*
X13182006Y-10318389D02*
X13191529Y-10337436D01*
X13191529Y-10337436D02*
X13201053Y-10346960D01*
X13201053Y-10346960D02*
X13220101Y-10356484D01*
X13220101Y-10356484D02*
X13258196Y-10356484D01*
X13258196Y-10356484D02*
X13277244Y-10346960D01*
X13277244Y-10346960D02*
X13286767Y-10337436D01*
X13286767Y-10337436D02*
X13296291Y-10318389D01*
X13296291Y-10318389D02*
X13296291Y-10270770D01*
X13296291Y-10270770D02*
X13286767Y-10251722D01*
X13286767Y-10251722D02*
X13277244Y-10242198D01*
X13277244Y-10242198D02*
X13258196Y-10232674D01*
X13258196Y-10232674D02*
X13220101Y-10232674D01*
X13220101Y-10232674D02*
X13201053Y-10242198D01*
X13201053Y-10242198D02*
X13191529Y-10251722D01*
X13191529Y-10251722D02*
X13182006Y-10270770D01*
X13410577Y-10242198D02*
X13391529Y-10232674D01*
X13391529Y-10232674D02*
X13382006Y-10223150D01*
X13382006Y-10223150D02*
X13372482Y-10204103D01*
X13372482Y-10204103D02*
X13372482Y-10194579D01*
X13372482Y-10194579D02*
X13382006Y-10175531D01*
X13382006Y-10175531D02*
X13391529Y-10166008D01*
X13391529Y-10166008D02*
X13410577Y-10156484D01*
X13410577Y-10156484D02*
X13448672Y-10156484D01*
X13448672Y-10156484D02*
X13467720Y-10166008D01*
X13467720Y-10166008D02*
X13477244Y-10175531D01*
X13477244Y-10175531D02*
X13486767Y-10194579D01*
X13486767Y-10194579D02*
X13486767Y-10204103D01*
X13486767Y-10204103D02*
X13477244Y-10223150D01*
X13477244Y-10223150D02*
X13467720Y-10232674D01*
X13467720Y-10232674D02*
X13448672Y-10242198D01*
X13448672Y-10242198D02*
X13410577Y-10242198D01*
X13410577Y-10242198D02*
X13391529Y-10251722D01*
X13391529Y-10251722D02*
X13382006Y-10261246D01*
X13382006Y-10261246D02*
X13372482Y-10280293D01*
X13372482Y-10280293D02*
X13372482Y-10318389D01*
X13372482Y-10318389D02*
X13382006Y-10337436D01*
X13382006Y-10337436D02*
X13391529Y-10346960D01*
X13391529Y-10346960D02*
X13410577Y-10356484D01*
X13410577Y-10356484D02*
X13448672Y-10356484D01*
X13448672Y-10356484D02*
X13467720Y-10346960D01*
X13467720Y-10346960D02*
X13477244Y-10337436D01*
X13477244Y-10337436D02*
X13486767Y-10318389D01*
X13486767Y-10318389D02*
X13486767Y-10280293D01*
X13486767Y-10280293D02*
X13477244Y-10261246D01*
X13477244Y-10261246D02*
X13467720Y-10251722D01*
X13467720Y-10251722D02*
X13448672Y-10242198D01*
X13582006Y-10356484D02*
X13620101Y-10356484D01*
X13620101Y-10356484D02*
X13639148Y-10346960D01*
X13639148Y-10346960D02*
X13648672Y-10337436D01*
X13648672Y-10337436D02*
X13667720Y-10308865D01*
X13667720Y-10308865D02*
X13677244Y-10270770D01*
X13677244Y-10270770D02*
X13677244Y-10194579D01*
X13677244Y-10194579D02*
X13667720Y-10175531D01*
X13667720Y-10175531D02*
X13658196Y-10166008D01*
X13658196Y-10166008D02*
X13639148Y-10156484D01*
X13639148Y-10156484D02*
X13601053Y-10156484D01*
X13601053Y-10156484D02*
X13582006Y-10166008D01*
X13582006Y-10166008D02*
X13572482Y-10175531D01*
X13572482Y-10175531D02*
X13562958Y-10194579D01*
X13562958Y-10194579D02*
X13562958Y-10242198D01*
X13562958Y-10242198D02*
X13572482Y-10261246D01*
X13572482Y-10261246D02*
X13582006Y-10270770D01*
X13582006Y-10270770D02*
X13601053Y-10280293D01*
X13601053Y-10280293D02*
X13639148Y-10280293D01*
X13639148Y-10280293D02*
X13658196Y-10270770D01*
X13658196Y-10270770D02*
X13667720Y-10261246D01*
X13667720Y-10261246D02*
X13677244Y-10242198D01*
X13753434Y-10156484D02*
X13753434Y-10194579D01*
X13829625Y-10156484D02*
X13829625Y-10194579D01*
X14124863Y-10432674D02*
X14115339Y-10423150D01*
X14115339Y-10423150D02*
X14096291Y-10394579D01*
X14096291Y-10394579D02*
X14086768Y-10375531D01*
X14086768Y-10375531D02*
X14077244Y-10346960D01*
X14077244Y-10346960D02*
X14067720Y-10299341D01*
X14067720Y-10299341D02*
X14067720Y-10261246D01*
X14067720Y-10261246D02*
X14077244Y-10213627D01*
X14077244Y-10213627D02*
X14086768Y-10185055D01*
X14086768Y-10185055D02*
X14096291Y-10166008D01*
X14096291Y-10166008D02*
X14115339Y-10137436D01*
X14115339Y-10137436D02*
X14124863Y-10127912D01*
X14191529Y-10175531D02*
X14201053Y-10166008D01*
X14201053Y-10166008D02*
X14220101Y-10156484D01*
X14220101Y-10156484D02*
X14267720Y-10156484D01*
X14267720Y-10156484D02*
X14286768Y-10166008D01*
X14286768Y-10166008D02*
X14296291Y-10175531D01*
X14296291Y-10175531D02*
X14305815Y-10194579D01*
X14305815Y-10194579D02*
X14305815Y-10213627D01*
X14305815Y-10213627D02*
X14296291Y-10242198D01*
X14296291Y-10242198D02*
X14182006Y-10356484D01*
X14182006Y-10356484D02*
X14305815Y-10356484D01*
X14477244Y-10223150D02*
X14477244Y-10356484D01*
X14429625Y-10146960D02*
X14382006Y-10289817D01*
X14382006Y-10289817D02*
X14505815Y-10289817D01*
X14734387Y-10356484D02*
X14734387Y-10156484D01*
X14820101Y-10356484D02*
X14820101Y-10251722D01*
X14820101Y-10251722D02*
X14810577Y-10232674D01*
X14810577Y-10232674D02*
X14791530Y-10223150D01*
X14791530Y-10223150D02*
X14762958Y-10223150D01*
X14762958Y-10223150D02*
X14743910Y-10232674D01*
X14743910Y-10232674D02*
X14734387Y-10242198D01*
X14943910Y-10356484D02*
X14924863Y-10346960D01*
X14924863Y-10346960D02*
X14915339Y-10337436D01*
X14915339Y-10337436D02*
X14905815Y-10318389D01*
X14905815Y-10318389D02*
X14905815Y-10261246D01*
X14905815Y-10261246D02*
X14915339Y-10242198D01*
X14915339Y-10242198D02*
X14924863Y-10232674D01*
X14924863Y-10232674D02*
X14943910Y-10223150D01*
X14943910Y-10223150D02*
X14972482Y-10223150D01*
X14972482Y-10223150D02*
X14991530Y-10232674D01*
X14991530Y-10232674D02*
X15001053Y-10242198D01*
X15001053Y-10242198D02*
X15010577Y-10261246D01*
X15010577Y-10261246D02*
X15010577Y-10318389D01*
X15010577Y-10318389D02*
X15001053Y-10337436D01*
X15001053Y-10337436D02*
X14991530Y-10346960D01*
X14991530Y-10346960D02*
X14972482Y-10356484D01*
X14972482Y-10356484D02*
X14943910Y-10356484D01*
X15124863Y-10356484D02*
X15105815Y-10346960D01*
X15105815Y-10346960D02*
X15096291Y-10327912D01*
X15096291Y-10327912D02*
X15096291Y-10156484D01*
X15277244Y-10346960D02*
X15258196Y-10356484D01*
X15258196Y-10356484D02*
X15220101Y-10356484D01*
X15220101Y-10356484D02*
X15201053Y-10346960D01*
X15201053Y-10346960D02*
X15191530Y-10327912D01*
X15191530Y-10327912D02*
X15191530Y-10251722D01*
X15191530Y-10251722D02*
X15201053Y-10232674D01*
X15201053Y-10232674D02*
X15220101Y-10223150D01*
X15220101Y-10223150D02*
X15258196Y-10223150D01*
X15258196Y-10223150D02*
X15277244Y-10232674D01*
X15277244Y-10232674D02*
X15286768Y-10251722D01*
X15286768Y-10251722D02*
X15286768Y-10270770D01*
X15286768Y-10270770D02*
X15191530Y-10289817D01*
X15362958Y-10346960D02*
X15382006Y-10356484D01*
X15382006Y-10356484D02*
X15420101Y-10356484D01*
X15420101Y-10356484D02*
X15439149Y-10346960D01*
X15439149Y-10346960D02*
X15448672Y-10327912D01*
X15448672Y-10327912D02*
X15448672Y-10318389D01*
X15448672Y-10318389D02*
X15439149Y-10299341D01*
X15439149Y-10299341D02*
X15420101Y-10289817D01*
X15420101Y-10289817D02*
X15391530Y-10289817D01*
X15391530Y-10289817D02*
X15372482Y-10280293D01*
X15372482Y-10280293D02*
X15362958Y-10261246D01*
X15362958Y-10261246D02*
X15362958Y-10251722D01*
X15362958Y-10251722D02*
X15372482Y-10232674D01*
X15372482Y-10232674D02*
X15391530Y-10223150D01*
X15391530Y-10223150D02*
X15420101Y-10223150D01*
X15420101Y-10223150D02*
X15439149Y-10232674D01*
X15515339Y-10432674D02*
X15524863Y-10423150D01*
X15524863Y-10423150D02*
X15543911Y-10394579D01*
X15543911Y-10394579D02*
X15553434Y-10375531D01*
X15553434Y-10375531D02*
X15562958Y-10346960D01*
X15562958Y-10346960D02*
X15572482Y-10299341D01*
X15572482Y-10299341D02*
X15572482Y-10261246D01*
X15572482Y-10261246D02*
X15562958Y-10213627D01*
X15562958Y-10213627D02*
X15553434Y-10185055D01*
X15553434Y-10185055D02*
X15543911Y-10166008D01*
X15543911Y-10166008D02*
X15524863Y-10137436D01*
X15524863Y-10137436D02*
X15515339Y-10127912D01*
X15877244Y-10432674D02*
X15867720Y-10423150D01*
X15867720Y-10423150D02*
X15848672Y-10394579D01*
X15848672Y-10394579D02*
X15839149Y-10375531D01*
X15839149Y-10375531D02*
X15829625Y-10346960D01*
X15829625Y-10346960D02*
X15820101Y-10299341D01*
X15820101Y-10299341D02*
X15820101Y-10261246D01*
X15820101Y-10261246D02*
X15829625Y-10213627D01*
X15829625Y-10213627D02*
X15839149Y-10185055D01*
X15839149Y-10185055D02*
X15848672Y-10166008D01*
X15848672Y-10166008D02*
X15867720Y-10137436D01*
X15867720Y-10137436D02*
X15877244Y-10127912D01*
X15953434Y-10223150D02*
X15953434Y-10356484D01*
X15953434Y-10242198D02*
X15962958Y-10232674D01*
X15962958Y-10232674D02*
X15982006Y-10223150D01*
X15982006Y-10223150D02*
X16010577Y-10223150D01*
X16010577Y-10223150D02*
X16029625Y-10232674D01*
X16029625Y-10232674D02*
X16039149Y-10251722D01*
X16039149Y-10251722D02*
X16039149Y-10356484D01*
X16162958Y-10356484D02*
X16143911Y-10346960D01*
X16143911Y-10346960D02*
X16134387Y-10337436D01*
X16134387Y-10337436D02*
X16124863Y-10318389D01*
X16124863Y-10318389D02*
X16124863Y-10261246D01*
X16124863Y-10261246D02*
X16134387Y-10242198D01*
X16134387Y-10242198D02*
X16143911Y-10232674D01*
X16143911Y-10232674D02*
X16162958Y-10223150D01*
X16162958Y-10223150D02*
X16191530Y-10223150D01*
X16191530Y-10223150D02*
X16210577Y-10232674D01*
X16210577Y-10232674D02*
X16220101Y-10242198D01*
X16220101Y-10242198D02*
X16229625Y-10261246D01*
X16229625Y-10261246D02*
X16229625Y-10318389D01*
X16229625Y-10318389D02*
X16220101Y-10337436D01*
X16220101Y-10337436D02*
X16210577Y-10346960D01*
X16210577Y-10346960D02*
X16191530Y-10356484D01*
X16191530Y-10356484D02*
X16162958Y-10356484D01*
X16286768Y-10223150D02*
X16362958Y-10223150D01*
X16315339Y-10156484D02*
X16315339Y-10327912D01*
X16315339Y-10327912D02*
X16324863Y-10346960D01*
X16324863Y-10346960D02*
X16343911Y-10356484D01*
X16343911Y-10356484D02*
X16362958Y-10356484D01*
X16582006Y-10223150D02*
X16582006Y-10423150D01*
X16582006Y-10232674D02*
X16601053Y-10223150D01*
X16601053Y-10223150D02*
X16639149Y-10223150D01*
X16639149Y-10223150D02*
X16658196Y-10232674D01*
X16658196Y-10232674D02*
X16667720Y-10242198D01*
X16667720Y-10242198D02*
X16677244Y-10261246D01*
X16677244Y-10261246D02*
X16677244Y-10318389D01*
X16677244Y-10318389D02*
X16667720Y-10337436D01*
X16667720Y-10337436D02*
X16658196Y-10346960D01*
X16658196Y-10346960D02*
X16639149Y-10356484D01*
X16639149Y-10356484D02*
X16601053Y-10356484D01*
X16601053Y-10356484D02*
X16582006Y-10346960D01*
X16791530Y-10356484D02*
X16772482Y-10346960D01*
X16772482Y-10346960D02*
X16762958Y-10327912D01*
X16762958Y-10327912D02*
X16762958Y-10156484D01*
X16953435Y-10356484D02*
X16953435Y-10251722D01*
X16953435Y-10251722D02*
X16943911Y-10232674D01*
X16943911Y-10232674D02*
X16924863Y-10223150D01*
X16924863Y-10223150D02*
X16886768Y-10223150D01*
X16886768Y-10223150D02*
X16867720Y-10232674D01*
X16953435Y-10346960D02*
X16934387Y-10356484D01*
X16934387Y-10356484D02*
X16886768Y-10356484D01*
X16886768Y-10356484D02*
X16867720Y-10346960D01*
X16867720Y-10346960D02*
X16858196Y-10327912D01*
X16858196Y-10327912D02*
X16858196Y-10308865D01*
X16858196Y-10308865D02*
X16867720Y-10289817D01*
X16867720Y-10289817D02*
X16886768Y-10280293D01*
X16886768Y-10280293D02*
X16934387Y-10280293D01*
X16934387Y-10280293D02*
X16953435Y-10270770D01*
X17020101Y-10223150D02*
X17096292Y-10223150D01*
X17048673Y-10156484D02*
X17048673Y-10327912D01*
X17048673Y-10327912D02*
X17058196Y-10346960D01*
X17058196Y-10346960D02*
X17077244Y-10356484D01*
X17077244Y-10356484D02*
X17096292Y-10356484D01*
X17239149Y-10346960D02*
X17220101Y-10356484D01*
X17220101Y-10356484D02*
X17182006Y-10356484D01*
X17182006Y-10356484D02*
X17162958Y-10346960D01*
X17162958Y-10346960D02*
X17153435Y-10327912D01*
X17153435Y-10327912D02*
X17153435Y-10251722D01*
X17153435Y-10251722D02*
X17162958Y-10232674D01*
X17162958Y-10232674D02*
X17182006Y-10223150D01*
X17182006Y-10223150D02*
X17220101Y-10223150D01*
X17220101Y-10223150D02*
X17239149Y-10232674D01*
X17239149Y-10232674D02*
X17248673Y-10251722D01*
X17248673Y-10251722D02*
X17248673Y-10270770D01*
X17248673Y-10270770D02*
X17153435Y-10289817D01*
X17420101Y-10356484D02*
X17420101Y-10156484D01*
X17420101Y-10346960D02*
X17401054Y-10356484D01*
X17401054Y-10356484D02*
X17362958Y-10356484D01*
X17362958Y-10356484D02*
X17343911Y-10346960D01*
X17343911Y-10346960D02*
X17334387Y-10337436D01*
X17334387Y-10337436D02*
X17324863Y-10318389D01*
X17324863Y-10318389D02*
X17324863Y-10261246D01*
X17324863Y-10261246D02*
X17334387Y-10242198D01*
X17334387Y-10242198D02*
X17343911Y-10232674D01*
X17343911Y-10232674D02*
X17362958Y-10223150D01*
X17362958Y-10223150D02*
X17401054Y-10223150D01*
X17401054Y-10223150D02*
X17420101Y-10232674D01*
X17496292Y-10432674D02*
X17505816Y-10423150D01*
X17505816Y-10423150D02*
X17524863Y-10394579D01*
X17524863Y-10394579D02*
X17534387Y-10375531D01*
X17534387Y-10375531D02*
X17543911Y-10346960D01*
X17543911Y-10346960D02*
X17553435Y-10299341D01*
X17553435Y-10299341D02*
X17553435Y-10261246D01*
X17553435Y-10261246D02*
X17543911Y-10213627D01*
X17543911Y-10213627D02*
X17534387Y-10185055D01*
X17534387Y-10185055D02*
X17524863Y-10166008D01*
X17524863Y-10166008D02*
X17505816Y-10137436D01*
X17505816Y-10137436D02*
X17496292Y-10127912D01*
X10549800Y-10560000D02*
G75*
G03*
X10549800Y-10560000I-100000J0D01*
G01*
X10801053Y-10470531D02*
X10810577Y-10461008D01*
X10810577Y-10461008D02*
X10829624Y-10451484D01*
X10829624Y-10451484D02*
X10877244Y-10451484D01*
X10877244Y-10451484D02*
X10896291Y-10461008D01*
X10896291Y-10461008D02*
X10905815Y-10470531D01*
X10905815Y-10470531D02*
X10915339Y-10489579D01*
X10915339Y-10489579D02*
X10915339Y-10508627D01*
X10915339Y-10508627D02*
X10905815Y-10537198D01*
X10905815Y-10537198D02*
X10791529Y-10651484D01*
X10791529Y-10651484D02*
X10915339Y-10651484D01*
X11001053Y-10632436D02*
X11010577Y-10641960D01*
X11010577Y-10641960D02*
X11001053Y-10651484D01*
X11001053Y-10651484D02*
X10991529Y-10641960D01*
X10991529Y-10641960D02*
X11001053Y-10632436D01*
X11001053Y-10632436D02*
X11001053Y-10651484D01*
X11086767Y-10470531D02*
X11096291Y-10461008D01*
X11096291Y-10461008D02*
X11115339Y-10451484D01*
X11115339Y-10451484D02*
X11162958Y-10451484D01*
X11162958Y-10451484D02*
X11182005Y-10461008D01*
X11182005Y-10461008D02*
X11191529Y-10470531D01*
X11191529Y-10470531D02*
X11201053Y-10489579D01*
X11201053Y-10489579D02*
X11201053Y-10508627D01*
X11201053Y-10508627D02*
X11191529Y-10537198D01*
X11191529Y-10537198D02*
X11077244Y-10651484D01*
X11077244Y-10651484D02*
X11201053Y-10651484D01*
X11324862Y-10451484D02*
X11343910Y-10451484D01*
X11343910Y-10451484D02*
X11362958Y-10461008D01*
X11362958Y-10461008D02*
X11372482Y-10470531D01*
X11372482Y-10470531D02*
X11382005Y-10489579D01*
X11382005Y-10489579D02*
X11391529Y-10527674D01*
X11391529Y-10527674D02*
X11391529Y-10575293D01*
X11391529Y-10575293D02*
X11382005Y-10613389D01*
X11382005Y-10613389D02*
X11372482Y-10632436D01*
X11372482Y-10632436D02*
X11362958Y-10641960D01*
X11362958Y-10641960D02*
X11343910Y-10651484D01*
X11343910Y-10651484D02*
X11324862Y-10651484D01*
X11324862Y-10651484D02*
X11305815Y-10641960D01*
X11305815Y-10641960D02*
X11296291Y-10632436D01*
X11296291Y-10632436D02*
X11286767Y-10613389D01*
X11286767Y-10613389D02*
X11277243Y-10575293D01*
X11277243Y-10575293D02*
X11277243Y-10527674D01*
X11277243Y-10527674D02*
X11286767Y-10489579D01*
X11286767Y-10489579D02*
X11296291Y-10470531D01*
X11296291Y-10470531D02*
X11305815Y-10461008D01*
X11305815Y-10461008D02*
X11324862Y-10451484D01*
X11515339Y-10451484D02*
X11534386Y-10451484D01*
X11534386Y-10451484D02*
X11553434Y-10461008D01*
X11553434Y-10461008D02*
X11562958Y-10470531D01*
X11562958Y-10470531D02*
X11572482Y-10489579D01*
X11572482Y-10489579D02*
X11582005Y-10527674D01*
X11582005Y-10527674D02*
X11582005Y-10575293D01*
X11582005Y-10575293D02*
X11572482Y-10613389D01*
X11572482Y-10613389D02*
X11562958Y-10632436D01*
X11562958Y-10632436D02*
X11553434Y-10641960D01*
X11553434Y-10641960D02*
X11534386Y-10651484D01*
X11534386Y-10651484D02*
X11515339Y-10651484D01*
X11515339Y-10651484D02*
X11496291Y-10641960D01*
X11496291Y-10641960D02*
X11486767Y-10632436D01*
X11486767Y-10632436D02*
X11477243Y-10613389D01*
X11477243Y-10613389D02*
X11467720Y-10575293D01*
X11467720Y-10575293D02*
X11467720Y-10527674D01*
X11467720Y-10527674D02*
X11477243Y-10489579D01*
X11477243Y-10489579D02*
X11486767Y-10470531D01*
X11486767Y-10470531D02*
X11496291Y-10461008D01*
X11496291Y-10461008D02*
X11515339Y-10451484D01*
X11667720Y-10651484D02*
X11667720Y-10518150D01*
X11667720Y-10537198D02*
X11677243Y-10527674D01*
X11677243Y-10527674D02*
X11696291Y-10518150D01*
X11696291Y-10518150D02*
X11724863Y-10518150D01*
X11724863Y-10518150D02*
X11743910Y-10527674D01*
X11743910Y-10527674D02*
X11753434Y-10546722D01*
X11753434Y-10546722D02*
X11753434Y-10651484D01*
X11753434Y-10546722D02*
X11762958Y-10527674D01*
X11762958Y-10527674D02*
X11782005Y-10518150D01*
X11782005Y-10518150D02*
X11810577Y-10518150D01*
X11810577Y-10518150D02*
X11829624Y-10527674D01*
X11829624Y-10527674D02*
X11839148Y-10546722D01*
X11839148Y-10546722D02*
X11839148Y-10651484D01*
X11934386Y-10651484D02*
X11934386Y-10518150D01*
X11934386Y-10537198D02*
X11943910Y-10527674D01*
X11943910Y-10527674D02*
X11962958Y-10518150D01*
X11962958Y-10518150D02*
X11991529Y-10518150D01*
X11991529Y-10518150D02*
X12010577Y-10527674D01*
X12010577Y-10527674D02*
X12020101Y-10546722D01*
X12020101Y-10546722D02*
X12020101Y-10651484D01*
X12020101Y-10546722D02*
X12029624Y-10527674D01*
X12029624Y-10527674D02*
X12048672Y-10518150D01*
X12048672Y-10518150D02*
X12077243Y-10518150D01*
X12077243Y-10518150D02*
X12096291Y-10527674D01*
X12096291Y-10527674D02*
X12105815Y-10546722D01*
X12105815Y-10546722D02*
X12105815Y-10651484D01*
X12496291Y-10441960D02*
X12324863Y-10699103D01*
X12753434Y-10451484D02*
X12772482Y-10451484D01*
X12772482Y-10451484D02*
X12791529Y-10461008D01*
X12791529Y-10461008D02*
X12801053Y-10470531D01*
X12801053Y-10470531D02*
X12810577Y-10489579D01*
X12810577Y-10489579D02*
X12820101Y-10527674D01*
X12820101Y-10527674D02*
X12820101Y-10575293D01*
X12820101Y-10575293D02*
X12810577Y-10613389D01*
X12810577Y-10613389D02*
X12801053Y-10632436D01*
X12801053Y-10632436D02*
X12791529Y-10641960D01*
X12791529Y-10641960D02*
X12772482Y-10651484D01*
X12772482Y-10651484D02*
X12753434Y-10651484D01*
X12753434Y-10651484D02*
X12734386Y-10641960D01*
X12734386Y-10641960D02*
X12724863Y-10632436D01*
X12724863Y-10632436D02*
X12715339Y-10613389D01*
X12715339Y-10613389D02*
X12705815Y-10575293D01*
X12705815Y-10575293D02*
X12705815Y-10527674D01*
X12705815Y-10527674D02*
X12715339Y-10489579D01*
X12715339Y-10489579D02*
X12724863Y-10470531D01*
X12724863Y-10470531D02*
X12734386Y-10461008D01*
X12734386Y-10461008D02*
X12753434Y-10451484D01*
X12905815Y-10632436D02*
X12915339Y-10641960D01*
X12915339Y-10641960D02*
X12905815Y-10651484D01*
X12905815Y-10651484D02*
X12896291Y-10641960D01*
X12896291Y-10641960D02*
X12905815Y-10632436D01*
X12905815Y-10632436D02*
X12905815Y-10651484D01*
X13039148Y-10451484D02*
X13058196Y-10451484D01*
X13058196Y-10451484D02*
X13077244Y-10461008D01*
X13077244Y-10461008D02*
X13086767Y-10470531D01*
X13086767Y-10470531D02*
X13096291Y-10489579D01*
X13096291Y-10489579D02*
X13105815Y-10527674D01*
X13105815Y-10527674D02*
X13105815Y-10575293D01*
X13105815Y-10575293D02*
X13096291Y-10613389D01*
X13096291Y-10613389D02*
X13086767Y-10632436D01*
X13086767Y-10632436D02*
X13077244Y-10641960D01*
X13077244Y-10641960D02*
X13058196Y-10651484D01*
X13058196Y-10651484D02*
X13039148Y-10651484D01*
X13039148Y-10651484D02*
X13020101Y-10641960D01*
X13020101Y-10641960D02*
X13010577Y-10632436D01*
X13010577Y-10632436D02*
X13001053Y-10613389D01*
X13001053Y-10613389D02*
X12991529Y-10575293D01*
X12991529Y-10575293D02*
X12991529Y-10527674D01*
X12991529Y-10527674D02*
X13001053Y-10489579D01*
X13001053Y-10489579D02*
X13010577Y-10470531D01*
X13010577Y-10470531D02*
X13020101Y-10461008D01*
X13020101Y-10461008D02*
X13039148Y-10451484D01*
X13220101Y-10537198D02*
X13201053Y-10527674D01*
X13201053Y-10527674D02*
X13191529Y-10518150D01*
X13191529Y-10518150D02*
X13182006Y-10499103D01*
X13182006Y-10499103D02*
X13182006Y-10489579D01*
X13182006Y-10489579D02*
X13191529Y-10470531D01*
X13191529Y-10470531D02*
X13201053Y-10461008D01*
X13201053Y-10461008D02*
X13220101Y-10451484D01*
X13220101Y-10451484D02*
X13258196Y-10451484D01*
X13258196Y-10451484D02*
X13277244Y-10461008D01*
X13277244Y-10461008D02*
X13286767Y-10470531D01*
X13286767Y-10470531D02*
X13296291Y-10489579D01*
X13296291Y-10489579D02*
X13296291Y-10499103D01*
X13296291Y-10499103D02*
X13286767Y-10518150D01*
X13286767Y-10518150D02*
X13277244Y-10527674D01*
X13277244Y-10527674D02*
X13258196Y-10537198D01*
X13258196Y-10537198D02*
X13220101Y-10537198D01*
X13220101Y-10537198D02*
X13201053Y-10546722D01*
X13201053Y-10546722D02*
X13191529Y-10556246D01*
X13191529Y-10556246D02*
X13182006Y-10575293D01*
X13182006Y-10575293D02*
X13182006Y-10613389D01*
X13182006Y-10613389D02*
X13191529Y-10632436D01*
X13191529Y-10632436D02*
X13201053Y-10641960D01*
X13201053Y-10641960D02*
X13220101Y-10651484D01*
X13220101Y-10651484D02*
X13258196Y-10651484D01*
X13258196Y-10651484D02*
X13277244Y-10641960D01*
X13277244Y-10641960D02*
X13286767Y-10632436D01*
X13286767Y-10632436D02*
X13296291Y-10613389D01*
X13296291Y-10613389D02*
X13296291Y-10575293D01*
X13296291Y-10575293D02*
X13286767Y-10556246D01*
X13286767Y-10556246D02*
X13277244Y-10546722D01*
X13277244Y-10546722D02*
X13258196Y-10537198D01*
X13467720Y-10451484D02*
X13429625Y-10451484D01*
X13429625Y-10451484D02*
X13410577Y-10461008D01*
X13410577Y-10461008D02*
X13401053Y-10470531D01*
X13401053Y-10470531D02*
X13382006Y-10499103D01*
X13382006Y-10499103D02*
X13372482Y-10537198D01*
X13372482Y-10537198D02*
X13372482Y-10613389D01*
X13372482Y-10613389D02*
X13382006Y-10632436D01*
X13382006Y-10632436D02*
X13391529Y-10641960D01*
X13391529Y-10641960D02*
X13410577Y-10651484D01*
X13410577Y-10651484D02*
X13448672Y-10651484D01*
X13448672Y-10651484D02*
X13467720Y-10641960D01*
X13467720Y-10641960D02*
X13477244Y-10632436D01*
X13477244Y-10632436D02*
X13486767Y-10613389D01*
X13486767Y-10613389D02*
X13486767Y-10565770D01*
X13486767Y-10565770D02*
X13477244Y-10546722D01*
X13477244Y-10546722D02*
X13467720Y-10537198D01*
X13467720Y-10537198D02*
X13448672Y-10527674D01*
X13448672Y-10527674D02*
X13410577Y-10527674D01*
X13410577Y-10527674D02*
X13391529Y-10537198D01*
X13391529Y-10537198D02*
X13382006Y-10546722D01*
X13382006Y-10546722D02*
X13372482Y-10565770D01*
X13658196Y-10451484D02*
X13620101Y-10451484D01*
X13620101Y-10451484D02*
X13601053Y-10461008D01*
X13601053Y-10461008D02*
X13591529Y-10470531D01*
X13591529Y-10470531D02*
X13572482Y-10499103D01*
X13572482Y-10499103D02*
X13562958Y-10537198D01*
X13562958Y-10537198D02*
X13562958Y-10613389D01*
X13562958Y-10613389D02*
X13572482Y-10632436D01*
X13572482Y-10632436D02*
X13582006Y-10641960D01*
X13582006Y-10641960D02*
X13601053Y-10651484D01*
X13601053Y-10651484D02*
X13639148Y-10651484D01*
X13639148Y-10651484D02*
X13658196Y-10641960D01*
X13658196Y-10641960D02*
X13667720Y-10632436D01*
X13667720Y-10632436D02*
X13677244Y-10613389D01*
X13677244Y-10613389D02*
X13677244Y-10565770D01*
X13677244Y-10565770D02*
X13667720Y-10546722D01*
X13667720Y-10546722D02*
X13658196Y-10537198D01*
X13658196Y-10537198D02*
X13639148Y-10527674D01*
X13639148Y-10527674D02*
X13601053Y-10527674D01*
X13601053Y-10527674D02*
X13582006Y-10537198D01*
X13582006Y-10537198D02*
X13572482Y-10546722D01*
X13572482Y-10546722D02*
X13562958Y-10565770D01*
X13753434Y-10451484D02*
X13753434Y-10489579D01*
X13829625Y-10451484D02*
X13829625Y-10489579D01*
X14124863Y-10727674D02*
X14115339Y-10718150D01*
X14115339Y-10718150D02*
X14096291Y-10689579D01*
X14096291Y-10689579D02*
X14086768Y-10670531D01*
X14086768Y-10670531D02*
X14077244Y-10641960D01*
X14077244Y-10641960D02*
X14067720Y-10594341D01*
X14067720Y-10594341D02*
X14067720Y-10556246D01*
X14067720Y-10556246D02*
X14077244Y-10508627D01*
X14077244Y-10508627D02*
X14086768Y-10480055D01*
X14086768Y-10480055D02*
X14096291Y-10461008D01*
X14096291Y-10461008D02*
X14115339Y-10432436D01*
X14115339Y-10432436D02*
X14124863Y-10422912D01*
X14286768Y-10518150D02*
X14286768Y-10651484D01*
X14239148Y-10441960D02*
X14191529Y-10584817D01*
X14191529Y-10584817D02*
X14315339Y-10584817D01*
X14543910Y-10651484D02*
X14543910Y-10451484D01*
X14629625Y-10651484D02*
X14629625Y-10546722D01*
X14629625Y-10546722D02*
X14620101Y-10527674D01*
X14620101Y-10527674D02*
X14601053Y-10518150D01*
X14601053Y-10518150D02*
X14572482Y-10518150D01*
X14572482Y-10518150D02*
X14553434Y-10527674D01*
X14553434Y-10527674D02*
X14543910Y-10537198D01*
X14753434Y-10651484D02*
X14734387Y-10641960D01*
X14734387Y-10641960D02*
X14724863Y-10632436D01*
X14724863Y-10632436D02*
X14715339Y-10613389D01*
X14715339Y-10613389D02*
X14715339Y-10556246D01*
X14715339Y-10556246D02*
X14724863Y-10537198D01*
X14724863Y-10537198D02*
X14734387Y-10527674D01*
X14734387Y-10527674D02*
X14753434Y-10518150D01*
X14753434Y-10518150D02*
X14782006Y-10518150D01*
X14782006Y-10518150D02*
X14801053Y-10527674D01*
X14801053Y-10527674D02*
X14810577Y-10537198D01*
X14810577Y-10537198D02*
X14820101Y-10556246D01*
X14820101Y-10556246D02*
X14820101Y-10613389D01*
X14820101Y-10613389D02*
X14810577Y-10632436D01*
X14810577Y-10632436D02*
X14801053Y-10641960D01*
X14801053Y-10641960D02*
X14782006Y-10651484D01*
X14782006Y-10651484D02*
X14753434Y-10651484D01*
X14934387Y-10651484D02*
X14915339Y-10641960D01*
X14915339Y-10641960D02*
X14905815Y-10622912D01*
X14905815Y-10622912D02*
X14905815Y-10451484D01*
X15086768Y-10641960D02*
X15067720Y-10651484D01*
X15067720Y-10651484D02*
X15029625Y-10651484D01*
X15029625Y-10651484D02*
X15010577Y-10641960D01*
X15010577Y-10641960D02*
X15001053Y-10622912D01*
X15001053Y-10622912D02*
X15001053Y-10546722D01*
X15001053Y-10546722D02*
X15010577Y-10527674D01*
X15010577Y-10527674D02*
X15029625Y-10518150D01*
X15029625Y-10518150D02*
X15067720Y-10518150D01*
X15067720Y-10518150D02*
X15086768Y-10527674D01*
X15086768Y-10527674D02*
X15096291Y-10546722D01*
X15096291Y-10546722D02*
X15096291Y-10565770D01*
X15096291Y-10565770D02*
X15001053Y-10584817D01*
X15172482Y-10641960D02*
X15191530Y-10651484D01*
X15191530Y-10651484D02*
X15229625Y-10651484D01*
X15229625Y-10651484D02*
X15248672Y-10641960D01*
X15248672Y-10641960D02*
X15258196Y-10622912D01*
X15258196Y-10622912D02*
X15258196Y-10613389D01*
X15258196Y-10613389D02*
X15248672Y-10594341D01*
X15248672Y-10594341D02*
X15229625Y-10584817D01*
X15229625Y-10584817D02*
X15201053Y-10584817D01*
X15201053Y-10584817D02*
X15182006Y-10575293D01*
X15182006Y-10575293D02*
X15172482Y-10556246D01*
X15172482Y-10556246D02*
X15172482Y-10546722D01*
X15172482Y-10546722D02*
X15182006Y-10527674D01*
X15182006Y-10527674D02*
X15201053Y-10518150D01*
X15201053Y-10518150D02*
X15229625Y-10518150D01*
X15229625Y-10518150D02*
X15248672Y-10527674D01*
X15324863Y-10727674D02*
X15334387Y-10718150D01*
X15334387Y-10718150D02*
X15353434Y-10689579D01*
X15353434Y-10689579D02*
X15362958Y-10670531D01*
X15362958Y-10670531D02*
X15372482Y-10641960D01*
X15372482Y-10641960D02*
X15382006Y-10594341D01*
X15382006Y-10594341D02*
X15382006Y-10556246D01*
X15382006Y-10556246D02*
X15372482Y-10508627D01*
X15372482Y-10508627D02*
X15362958Y-10480055D01*
X15362958Y-10480055D02*
X15353434Y-10461008D01*
X15353434Y-10461008D02*
X15334387Y-10432436D01*
X15334387Y-10432436D02*
X15324863Y-10422912D01*
X15686768Y-10727674D02*
X15677244Y-10718150D01*
X15677244Y-10718150D02*
X15658196Y-10689579D01*
X15658196Y-10689579D02*
X15648672Y-10670531D01*
X15648672Y-10670531D02*
X15639149Y-10641960D01*
X15639149Y-10641960D02*
X15629625Y-10594341D01*
X15629625Y-10594341D02*
X15629625Y-10556246D01*
X15629625Y-10556246D02*
X15639149Y-10508627D01*
X15639149Y-10508627D02*
X15648672Y-10480055D01*
X15648672Y-10480055D02*
X15658196Y-10461008D01*
X15658196Y-10461008D02*
X15677244Y-10432436D01*
X15677244Y-10432436D02*
X15686768Y-10422912D01*
X15762958Y-10518150D02*
X15762958Y-10651484D01*
X15762958Y-10537198D02*
X15772482Y-10527674D01*
X15772482Y-10527674D02*
X15791530Y-10518150D01*
X15791530Y-10518150D02*
X15820101Y-10518150D01*
X15820101Y-10518150D02*
X15839149Y-10527674D01*
X15839149Y-10527674D02*
X15848672Y-10546722D01*
X15848672Y-10546722D02*
X15848672Y-10651484D01*
X15972482Y-10651484D02*
X15953434Y-10641960D01*
X15953434Y-10641960D02*
X15943911Y-10632436D01*
X15943911Y-10632436D02*
X15934387Y-10613389D01*
X15934387Y-10613389D02*
X15934387Y-10556246D01*
X15934387Y-10556246D02*
X15943911Y-10537198D01*
X15943911Y-10537198D02*
X15953434Y-10527674D01*
X15953434Y-10527674D02*
X15972482Y-10518150D01*
X15972482Y-10518150D02*
X16001053Y-10518150D01*
X16001053Y-10518150D02*
X16020101Y-10527674D01*
X16020101Y-10527674D02*
X16029625Y-10537198D01*
X16029625Y-10537198D02*
X16039149Y-10556246D01*
X16039149Y-10556246D02*
X16039149Y-10613389D01*
X16039149Y-10613389D02*
X16029625Y-10632436D01*
X16029625Y-10632436D02*
X16020101Y-10641960D01*
X16020101Y-10641960D02*
X16001053Y-10651484D01*
X16001053Y-10651484D02*
X15972482Y-10651484D01*
X16096292Y-10518150D02*
X16172482Y-10518150D01*
X16124863Y-10451484D02*
X16124863Y-10622912D01*
X16124863Y-10622912D02*
X16134387Y-10641960D01*
X16134387Y-10641960D02*
X16153434Y-10651484D01*
X16153434Y-10651484D02*
X16172482Y-10651484D01*
X16391530Y-10518150D02*
X16391530Y-10718150D01*
X16391530Y-10527674D02*
X16410577Y-10518150D01*
X16410577Y-10518150D02*
X16448673Y-10518150D01*
X16448673Y-10518150D02*
X16467720Y-10527674D01*
X16467720Y-10527674D02*
X16477244Y-10537198D01*
X16477244Y-10537198D02*
X16486768Y-10556246D01*
X16486768Y-10556246D02*
X16486768Y-10613389D01*
X16486768Y-10613389D02*
X16477244Y-10632436D01*
X16477244Y-10632436D02*
X16467720Y-10641960D01*
X16467720Y-10641960D02*
X16448673Y-10651484D01*
X16448673Y-10651484D02*
X16410577Y-10651484D01*
X16410577Y-10651484D02*
X16391530Y-10641960D01*
X16601053Y-10651484D02*
X16582006Y-10641960D01*
X16582006Y-10641960D02*
X16572482Y-10622912D01*
X16572482Y-10622912D02*
X16572482Y-10451484D01*
X16762958Y-10651484D02*
X16762958Y-10546722D01*
X16762958Y-10546722D02*
X16753434Y-10527674D01*
X16753434Y-10527674D02*
X16734387Y-10518150D01*
X16734387Y-10518150D02*
X16696292Y-10518150D01*
X16696292Y-10518150D02*
X16677244Y-10527674D01*
X16762958Y-10641960D02*
X16743911Y-10651484D01*
X16743911Y-10651484D02*
X16696292Y-10651484D01*
X16696292Y-10651484D02*
X16677244Y-10641960D01*
X16677244Y-10641960D02*
X16667720Y-10622912D01*
X16667720Y-10622912D02*
X16667720Y-10603865D01*
X16667720Y-10603865D02*
X16677244Y-10584817D01*
X16677244Y-10584817D02*
X16696292Y-10575293D01*
X16696292Y-10575293D02*
X16743911Y-10575293D01*
X16743911Y-10575293D02*
X16762958Y-10565770D01*
X16829625Y-10518150D02*
X16905815Y-10518150D01*
X16858196Y-10451484D02*
X16858196Y-10622912D01*
X16858196Y-10622912D02*
X16867720Y-10641960D01*
X16867720Y-10641960D02*
X16886768Y-10651484D01*
X16886768Y-10651484D02*
X16905815Y-10651484D01*
X17048673Y-10641960D02*
X17029625Y-10651484D01*
X17029625Y-10651484D02*
X16991530Y-10651484D01*
X16991530Y-10651484D02*
X16972482Y-10641960D01*
X16972482Y-10641960D02*
X16962958Y-10622912D01*
X16962958Y-10622912D02*
X16962958Y-10546722D01*
X16962958Y-10546722D02*
X16972482Y-10527674D01*
X16972482Y-10527674D02*
X16991530Y-10518150D01*
X16991530Y-10518150D02*
X17029625Y-10518150D01*
X17029625Y-10518150D02*
X17048673Y-10527674D01*
X17048673Y-10527674D02*
X17058196Y-10546722D01*
X17058196Y-10546722D02*
X17058196Y-10565770D01*
X17058196Y-10565770D02*
X16962958Y-10584817D01*
X17229625Y-10651484D02*
X17229625Y-10451484D01*
X17229625Y-10641960D02*
X17210577Y-10651484D01*
X17210577Y-10651484D02*
X17172482Y-10651484D01*
X17172482Y-10651484D02*
X17153435Y-10641960D01*
X17153435Y-10641960D02*
X17143911Y-10632436D01*
X17143911Y-10632436D02*
X17134387Y-10613389D01*
X17134387Y-10613389D02*
X17134387Y-10556246D01*
X17134387Y-10556246D02*
X17143911Y-10537198D01*
X17143911Y-10537198D02*
X17153435Y-10527674D01*
X17153435Y-10527674D02*
X17172482Y-10518150D01*
X17172482Y-10518150D02*
X17210577Y-10518150D01*
X17210577Y-10518150D02*
X17229625Y-10527674D01*
X17305816Y-10727674D02*
X17315339Y-10718150D01*
X17315339Y-10718150D02*
X17334387Y-10689579D01*
X17334387Y-10689579D02*
X17343911Y-10670531D01*
X17343911Y-10670531D02*
X17353435Y-10641960D01*
X17353435Y-10641960D02*
X17362958Y-10594341D01*
X17362958Y-10594341D02*
X17362958Y-10556246D01*
X17362958Y-10556246D02*
X17353435Y-10508627D01*
X17353435Y-10508627D02*
X17343911Y-10480055D01*
X17343911Y-10480055D02*
X17334387Y-10461008D01*
X17334387Y-10461008D02*
X17315339Y-10432436D01*
X17315339Y-10432436D02*
X17305816Y-10422912D01*
X10449800Y-10780000D02*
X10449800Y-10980000D01*
X10349800Y-10880000D02*
X10549800Y-10880000D01*
X10791529Y-10771484D02*
X10915339Y-10771484D01*
X10915339Y-10771484D02*
X10848672Y-10847674D01*
X10848672Y-10847674D02*
X10877244Y-10847674D01*
X10877244Y-10847674D02*
X10896291Y-10857198D01*
X10896291Y-10857198D02*
X10905815Y-10866722D01*
X10905815Y-10866722D02*
X10915339Y-10885770D01*
X10915339Y-10885770D02*
X10915339Y-10933389D01*
X10915339Y-10933389D02*
X10905815Y-10952436D01*
X10905815Y-10952436D02*
X10896291Y-10961960D01*
X10896291Y-10961960D02*
X10877244Y-10971484D01*
X10877244Y-10971484D02*
X10820101Y-10971484D01*
X10820101Y-10971484D02*
X10801053Y-10961960D01*
X10801053Y-10961960D02*
X10791529Y-10952436D01*
X11001053Y-10952436D02*
X11010577Y-10961960D01*
X11010577Y-10961960D02*
X11001053Y-10971484D01*
X11001053Y-10971484D02*
X10991529Y-10961960D01*
X10991529Y-10961960D02*
X11001053Y-10952436D01*
X11001053Y-10952436D02*
X11001053Y-10971484D01*
X11105815Y-10971484D02*
X11143910Y-10971484D01*
X11143910Y-10971484D02*
X11162958Y-10961960D01*
X11162958Y-10961960D02*
X11172482Y-10952436D01*
X11172482Y-10952436D02*
X11191529Y-10923865D01*
X11191529Y-10923865D02*
X11201053Y-10885770D01*
X11201053Y-10885770D02*
X11201053Y-10809579D01*
X11201053Y-10809579D02*
X11191529Y-10790531D01*
X11191529Y-10790531D02*
X11182005Y-10781008D01*
X11182005Y-10781008D02*
X11162958Y-10771484D01*
X11162958Y-10771484D02*
X11124863Y-10771484D01*
X11124863Y-10771484D02*
X11105815Y-10781008D01*
X11105815Y-10781008D02*
X11096291Y-10790531D01*
X11096291Y-10790531D02*
X11086767Y-10809579D01*
X11086767Y-10809579D02*
X11086767Y-10857198D01*
X11086767Y-10857198D02*
X11096291Y-10876246D01*
X11096291Y-10876246D02*
X11105815Y-10885770D01*
X11105815Y-10885770D02*
X11124863Y-10895293D01*
X11124863Y-10895293D02*
X11162958Y-10895293D01*
X11162958Y-10895293D02*
X11182005Y-10885770D01*
X11182005Y-10885770D02*
X11191529Y-10876246D01*
X11191529Y-10876246D02*
X11201053Y-10857198D01*
X11315339Y-10857198D02*
X11296291Y-10847674D01*
X11296291Y-10847674D02*
X11286767Y-10838150D01*
X11286767Y-10838150D02*
X11277243Y-10819103D01*
X11277243Y-10819103D02*
X11277243Y-10809579D01*
X11277243Y-10809579D02*
X11286767Y-10790531D01*
X11286767Y-10790531D02*
X11296291Y-10781008D01*
X11296291Y-10781008D02*
X11315339Y-10771484D01*
X11315339Y-10771484D02*
X11353434Y-10771484D01*
X11353434Y-10771484D02*
X11372482Y-10781008D01*
X11372482Y-10781008D02*
X11382005Y-10790531D01*
X11382005Y-10790531D02*
X11391529Y-10809579D01*
X11391529Y-10809579D02*
X11391529Y-10819103D01*
X11391529Y-10819103D02*
X11382005Y-10838150D01*
X11382005Y-10838150D02*
X11372482Y-10847674D01*
X11372482Y-10847674D02*
X11353434Y-10857198D01*
X11353434Y-10857198D02*
X11315339Y-10857198D01*
X11315339Y-10857198D02*
X11296291Y-10866722D01*
X11296291Y-10866722D02*
X11286767Y-10876246D01*
X11286767Y-10876246D02*
X11277243Y-10895293D01*
X11277243Y-10895293D02*
X11277243Y-10933389D01*
X11277243Y-10933389D02*
X11286767Y-10952436D01*
X11286767Y-10952436D02*
X11296291Y-10961960D01*
X11296291Y-10961960D02*
X11315339Y-10971484D01*
X11315339Y-10971484D02*
X11353434Y-10971484D01*
X11353434Y-10971484D02*
X11372482Y-10961960D01*
X11372482Y-10961960D02*
X11382005Y-10952436D01*
X11382005Y-10952436D02*
X11391529Y-10933389D01*
X11391529Y-10933389D02*
X11391529Y-10895293D01*
X11391529Y-10895293D02*
X11382005Y-10876246D01*
X11382005Y-10876246D02*
X11372482Y-10866722D01*
X11372482Y-10866722D02*
X11353434Y-10857198D01*
X11505815Y-10857198D02*
X11486767Y-10847674D01*
X11486767Y-10847674D02*
X11477243Y-10838150D01*
X11477243Y-10838150D02*
X11467720Y-10819103D01*
X11467720Y-10819103D02*
X11467720Y-10809579D01*
X11467720Y-10809579D02*
X11477243Y-10790531D01*
X11477243Y-10790531D02*
X11486767Y-10781008D01*
X11486767Y-10781008D02*
X11505815Y-10771484D01*
X11505815Y-10771484D02*
X11543910Y-10771484D01*
X11543910Y-10771484D02*
X11562958Y-10781008D01*
X11562958Y-10781008D02*
X11572482Y-10790531D01*
X11572482Y-10790531D02*
X11582005Y-10809579D01*
X11582005Y-10809579D02*
X11582005Y-10819103D01*
X11582005Y-10819103D02*
X11572482Y-10838150D01*
X11572482Y-10838150D02*
X11562958Y-10847674D01*
X11562958Y-10847674D02*
X11543910Y-10857198D01*
X11543910Y-10857198D02*
X11505815Y-10857198D01*
X11505815Y-10857198D02*
X11486767Y-10866722D01*
X11486767Y-10866722D02*
X11477243Y-10876246D01*
X11477243Y-10876246D02*
X11467720Y-10895293D01*
X11467720Y-10895293D02*
X11467720Y-10933389D01*
X11467720Y-10933389D02*
X11477243Y-10952436D01*
X11477243Y-10952436D02*
X11486767Y-10961960D01*
X11486767Y-10961960D02*
X11505815Y-10971484D01*
X11505815Y-10971484D02*
X11543910Y-10971484D01*
X11543910Y-10971484D02*
X11562958Y-10961960D01*
X11562958Y-10961960D02*
X11572482Y-10952436D01*
X11572482Y-10952436D02*
X11582005Y-10933389D01*
X11582005Y-10933389D02*
X11582005Y-10895293D01*
X11582005Y-10895293D02*
X11572482Y-10876246D01*
X11572482Y-10876246D02*
X11562958Y-10866722D01*
X11562958Y-10866722D02*
X11543910Y-10857198D01*
X11667720Y-10971484D02*
X11667720Y-10838150D01*
X11667720Y-10857198D02*
X11677243Y-10847674D01*
X11677243Y-10847674D02*
X11696291Y-10838150D01*
X11696291Y-10838150D02*
X11724863Y-10838150D01*
X11724863Y-10838150D02*
X11743910Y-10847674D01*
X11743910Y-10847674D02*
X11753434Y-10866722D01*
X11753434Y-10866722D02*
X11753434Y-10971484D01*
X11753434Y-10866722D02*
X11762958Y-10847674D01*
X11762958Y-10847674D02*
X11782005Y-10838150D01*
X11782005Y-10838150D02*
X11810577Y-10838150D01*
X11810577Y-10838150D02*
X11829624Y-10847674D01*
X11829624Y-10847674D02*
X11839148Y-10866722D01*
X11839148Y-10866722D02*
X11839148Y-10971484D01*
X11934386Y-10971484D02*
X11934386Y-10838150D01*
X11934386Y-10857198D02*
X11943910Y-10847674D01*
X11943910Y-10847674D02*
X11962958Y-10838150D01*
X11962958Y-10838150D02*
X11991529Y-10838150D01*
X11991529Y-10838150D02*
X12010577Y-10847674D01*
X12010577Y-10847674D02*
X12020101Y-10866722D01*
X12020101Y-10866722D02*
X12020101Y-10971484D01*
X12020101Y-10866722D02*
X12029624Y-10847674D01*
X12029624Y-10847674D02*
X12048672Y-10838150D01*
X12048672Y-10838150D02*
X12077243Y-10838150D01*
X12077243Y-10838150D02*
X12096291Y-10847674D01*
X12096291Y-10847674D02*
X12105815Y-10866722D01*
X12105815Y-10866722D02*
X12105815Y-10971484D01*
X12496291Y-10761960D02*
X12324863Y-11019103D01*
X12753434Y-10771484D02*
X12772482Y-10771484D01*
X12772482Y-10771484D02*
X12791529Y-10781008D01*
X12791529Y-10781008D02*
X12801053Y-10790531D01*
X12801053Y-10790531D02*
X12810577Y-10809579D01*
X12810577Y-10809579D02*
X12820101Y-10847674D01*
X12820101Y-10847674D02*
X12820101Y-10895293D01*
X12820101Y-10895293D02*
X12810577Y-10933389D01*
X12810577Y-10933389D02*
X12801053Y-10952436D01*
X12801053Y-10952436D02*
X12791529Y-10961960D01*
X12791529Y-10961960D02*
X12772482Y-10971484D01*
X12772482Y-10971484D02*
X12753434Y-10971484D01*
X12753434Y-10971484D02*
X12734386Y-10961960D01*
X12734386Y-10961960D02*
X12724863Y-10952436D01*
X12724863Y-10952436D02*
X12715339Y-10933389D01*
X12715339Y-10933389D02*
X12705815Y-10895293D01*
X12705815Y-10895293D02*
X12705815Y-10847674D01*
X12705815Y-10847674D02*
X12715339Y-10809579D01*
X12715339Y-10809579D02*
X12724863Y-10790531D01*
X12724863Y-10790531D02*
X12734386Y-10781008D01*
X12734386Y-10781008D02*
X12753434Y-10771484D01*
X12905815Y-10952436D02*
X12915339Y-10961960D01*
X12915339Y-10961960D02*
X12905815Y-10971484D01*
X12905815Y-10971484D02*
X12896291Y-10961960D01*
X12896291Y-10961960D02*
X12905815Y-10952436D01*
X12905815Y-10952436D02*
X12905815Y-10971484D01*
X13105815Y-10971484D02*
X12991529Y-10971484D01*
X13048672Y-10971484D02*
X13048672Y-10771484D01*
X13048672Y-10771484D02*
X13029625Y-10800055D01*
X13029625Y-10800055D02*
X13010577Y-10819103D01*
X13010577Y-10819103D02*
X12991529Y-10828627D01*
X13286767Y-10771484D02*
X13191529Y-10771484D01*
X13191529Y-10771484D02*
X13182006Y-10866722D01*
X13182006Y-10866722D02*
X13191529Y-10857198D01*
X13191529Y-10857198D02*
X13210577Y-10847674D01*
X13210577Y-10847674D02*
X13258196Y-10847674D01*
X13258196Y-10847674D02*
X13277244Y-10857198D01*
X13277244Y-10857198D02*
X13286767Y-10866722D01*
X13286767Y-10866722D02*
X13296291Y-10885770D01*
X13296291Y-10885770D02*
X13296291Y-10933389D01*
X13296291Y-10933389D02*
X13286767Y-10952436D01*
X13286767Y-10952436D02*
X13277244Y-10961960D01*
X13277244Y-10961960D02*
X13258196Y-10971484D01*
X13258196Y-10971484D02*
X13210577Y-10971484D01*
X13210577Y-10971484D02*
X13191529Y-10961960D01*
X13191529Y-10961960D02*
X13182006Y-10952436D01*
X13362958Y-10771484D02*
X13496291Y-10771484D01*
X13496291Y-10771484D02*
X13410577Y-10971484D01*
X13610577Y-10771484D02*
X13629625Y-10771484D01*
X13629625Y-10771484D02*
X13648672Y-10781008D01*
X13648672Y-10781008D02*
X13658196Y-10790531D01*
X13658196Y-10790531D02*
X13667720Y-10809579D01*
X13667720Y-10809579D02*
X13677244Y-10847674D01*
X13677244Y-10847674D02*
X13677244Y-10895293D01*
X13677244Y-10895293D02*
X13667720Y-10933389D01*
X13667720Y-10933389D02*
X13658196Y-10952436D01*
X13658196Y-10952436D02*
X13648672Y-10961960D01*
X13648672Y-10961960D02*
X13629625Y-10971484D01*
X13629625Y-10971484D02*
X13610577Y-10971484D01*
X13610577Y-10971484D02*
X13591529Y-10961960D01*
X13591529Y-10961960D02*
X13582006Y-10952436D01*
X13582006Y-10952436D02*
X13572482Y-10933389D01*
X13572482Y-10933389D02*
X13562958Y-10895293D01*
X13562958Y-10895293D02*
X13562958Y-10847674D01*
X13562958Y-10847674D02*
X13572482Y-10809579D01*
X13572482Y-10809579D02*
X13582006Y-10790531D01*
X13582006Y-10790531D02*
X13591529Y-10781008D01*
X13591529Y-10781008D02*
X13610577Y-10771484D01*
X13753434Y-10771484D02*
X13753434Y-10809579D01*
X13829625Y-10771484D02*
X13829625Y-10809579D01*
X14124863Y-11047674D02*
X14115339Y-11038150D01*
X14115339Y-11038150D02*
X14096291Y-11009579D01*
X14096291Y-11009579D02*
X14086768Y-10990531D01*
X14086768Y-10990531D02*
X14077244Y-10961960D01*
X14077244Y-10961960D02*
X14067720Y-10914341D01*
X14067720Y-10914341D02*
X14067720Y-10876246D01*
X14067720Y-10876246D02*
X14077244Y-10828627D01*
X14077244Y-10828627D02*
X14086768Y-10800055D01*
X14086768Y-10800055D02*
X14096291Y-10781008D01*
X14096291Y-10781008D02*
X14115339Y-10752436D01*
X14115339Y-10752436D02*
X14124863Y-10742912D01*
X14305815Y-10971484D02*
X14191529Y-10971484D01*
X14248672Y-10971484D02*
X14248672Y-10771484D01*
X14248672Y-10771484D02*
X14229625Y-10800055D01*
X14229625Y-10800055D02*
X14210577Y-10819103D01*
X14210577Y-10819103D02*
X14191529Y-10828627D01*
X14382006Y-10790531D02*
X14391529Y-10781008D01*
X14391529Y-10781008D02*
X14410577Y-10771484D01*
X14410577Y-10771484D02*
X14458196Y-10771484D01*
X14458196Y-10771484D02*
X14477244Y-10781008D01*
X14477244Y-10781008D02*
X14486768Y-10790531D01*
X14486768Y-10790531D02*
X14496291Y-10809579D01*
X14496291Y-10809579D02*
X14496291Y-10828627D01*
X14496291Y-10828627D02*
X14486768Y-10857198D01*
X14486768Y-10857198D02*
X14372482Y-10971484D01*
X14372482Y-10971484D02*
X14496291Y-10971484D01*
X14734387Y-10971484D02*
X14734387Y-10771484D01*
X14820101Y-10971484D02*
X14820101Y-10866722D01*
X14820101Y-10866722D02*
X14810577Y-10847674D01*
X14810577Y-10847674D02*
X14791530Y-10838150D01*
X14791530Y-10838150D02*
X14762958Y-10838150D01*
X14762958Y-10838150D02*
X14743910Y-10847674D01*
X14743910Y-10847674D02*
X14734387Y-10857198D01*
X14943910Y-10971484D02*
X14924863Y-10961960D01*
X14924863Y-10961960D02*
X14915339Y-10952436D01*
X14915339Y-10952436D02*
X14905815Y-10933389D01*
X14905815Y-10933389D02*
X14905815Y-10876246D01*
X14905815Y-10876246D02*
X14915339Y-10857198D01*
X14915339Y-10857198D02*
X14924863Y-10847674D01*
X14924863Y-10847674D02*
X14943910Y-10838150D01*
X14943910Y-10838150D02*
X14972482Y-10838150D01*
X14972482Y-10838150D02*
X14991530Y-10847674D01*
X14991530Y-10847674D02*
X15001053Y-10857198D01*
X15001053Y-10857198D02*
X15010577Y-10876246D01*
X15010577Y-10876246D02*
X15010577Y-10933389D01*
X15010577Y-10933389D02*
X15001053Y-10952436D01*
X15001053Y-10952436D02*
X14991530Y-10961960D01*
X14991530Y-10961960D02*
X14972482Y-10971484D01*
X14972482Y-10971484D02*
X14943910Y-10971484D01*
X15124863Y-10971484D02*
X15105815Y-10961960D01*
X15105815Y-10961960D02*
X15096291Y-10942912D01*
X15096291Y-10942912D02*
X15096291Y-10771484D01*
X15277244Y-10961960D02*
X15258196Y-10971484D01*
X15258196Y-10971484D02*
X15220101Y-10971484D01*
X15220101Y-10971484D02*
X15201053Y-10961960D01*
X15201053Y-10961960D02*
X15191530Y-10942912D01*
X15191530Y-10942912D02*
X15191530Y-10866722D01*
X15191530Y-10866722D02*
X15201053Y-10847674D01*
X15201053Y-10847674D02*
X15220101Y-10838150D01*
X15220101Y-10838150D02*
X15258196Y-10838150D01*
X15258196Y-10838150D02*
X15277244Y-10847674D01*
X15277244Y-10847674D02*
X15286768Y-10866722D01*
X15286768Y-10866722D02*
X15286768Y-10885770D01*
X15286768Y-10885770D02*
X15191530Y-10904817D01*
X15362958Y-10961960D02*
X15382006Y-10971484D01*
X15382006Y-10971484D02*
X15420101Y-10971484D01*
X15420101Y-10971484D02*
X15439149Y-10961960D01*
X15439149Y-10961960D02*
X15448672Y-10942912D01*
X15448672Y-10942912D02*
X15448672Y-10933389D01*
X15448672Y-10933389D02*
X15439149Y-10914341D01*
X15439149Y-10914341D02*
X15420101Y-10904817D01*
X15420101Y-10904817D02*
X15391530Y-10904817D01*
X15391530Y-10904817D02*
X15372482Y-10895293D01*
X15372482Y-10895293D02*
X15362958Y-10876246D01*
X15362958Y-10876246D02*
X15362958Y-10866722D01*
X15362958Y-10866722D02*
X15372482Y-10847674D01*
X15372482Y-10847674D02*
X15391530Y-10838150D01*
X15391530Y-10838150D02*
X15420101Y-10838150D01*
X15420101Y-10838150D02*
X15439149Y-10847674D01*
X15515339Y-11047674D02*
X15524863Y-11038150D01*
X15524863Y-11038150D02*
X15543911Y-11009579D01*
X15543911Y-11009579D02*
X15553434Y-10990531D01*
X15553434Y-10990531D02*
X15562958Y-10961960D01*
X15562958Y-10961960D02*
X15572482Y-10914341D01*
X15572482Y-10914341D02*
X15572482Y-10876246D01*
X15572482Y-10876246D02*
X15562958Y-10828627D01*
X15562958Y-10828627D02*
X15553434Y-10800055D01*
X15553434Y-10800055D02*
X15543911Y-10781008D01*
X15543911Y-10781008D02*
X15524863Y-10752436D01*
X15524863Y-10752436D02*
X15515339Y-10742912D01*
X15877244Y-11047674D02*
X15867720Y-11038150D01*
X15867720Y-11038150D02*
X15848672Y-11009579D01*
X15848672Y-11009579D02*
X15839149Y-10990531D01*
X15839149Y-10990531D02*
X15829625Y-10961960D01*
X15829625Y-10961960D02*
X15820101Y-10914341D01*
X15820101Y-10914341D02*
X15820101Y-10876246D01*
X15820101Y-10876246D02*
X15829625Y-10828627D01*
X15829625Y-10828627D02*
X15839149Y-10800055D01*
X15839149Y-10800055D02*
X15848672Y-10781008D01*
X15848672Y-10781008D02*
X15867720Y-10752436D01*
X15867720Y-10752436D02*
X15877244Y-10742912D01*
X15953434Y-10838150D02*
X15953434Y-10971484D01*
X15953434Y-10857198D02*
X15962958Y-10847674D01*
X15962958Y-10847674D02*
X15982006Y-10838150D01*
X15982006Y-10838150D02*
X16010577Y-10838150D01*
X16010577Y-10838150D02*
X16029625Y-10847674D01*
X16029625Y-10847674D02*
X16039149Y-10866722D01*
X16039149Y-10866722D02*
X16039149Y-10971484D01*
X16162958Y-10971484D02*
X16143911Y-10961960D01*
X16143911Y-10961960D02*
X16134387Y-10952436D01*
X16134387Y-10952436D02*
X16124863Y-10933389D01*
X16124863Y-10933389D02*
X16124863Y-10876246D01*
X16124863Y-10876246D02*
X16134387Y-10857198D01*
X16134387Y-10857198D02*
X16143911Y-10847674D01*
X16143911Y-10847674D02*
X16162958Y-10838150D01*
X16162958Y-10838150D02*
X16191530Y-10838150D01*
X16191530Y-10838150D02*
X16210577Y-10847674D01*
X16210577Y-10847674D02*
X16220101Y-10857198D01*
X16220101Y-10857198D02*
X16229625Y-10876246D01*
X16229625Y-10876246D02*
X16229625Y-10933389D01*
X16229625Y-10933389D02*
X16220101Y-10952436D01*
X16220101Y-10952436D02*
X16210577Y-10961960D01*
X16210577Y-10961960D02*
X16191530Y-10971484D01*
X16191530Y-10971484D02*
X16162958Y-10971484D01*
X16286768Y-10838150D02*
X16362958Y-10838150D01*
X16315339Y-10771484D02*
X16315339Y-10942912D01*
X16315339Y-10942912D02*
X16324863Y-10961960D01*
X16324863Y-10961960D02*
X16343911Y-10971484D01*
X16343911Y-10971484D02*
X16362958Y-10971484D01*
X16582006Y-10838150D02*
X16582006Y-11038150D01*
X16582006Y-10847674D02*
X16601053Y-10838150D01*
X16601053Y-10838150D02*
X16639149Y-10838150D01*
X16639149Y-10838150D02*
X16658196Y-10847674D01*
X16658196Y-10847674D02*
X16667720Y-10857198D01*
X16667720Y-10857198D02*
X16677244Y-10876246D01*
X16677244Y-10876246D02*
X16677244Y-10933389D01*
X16677244Y-10933389D02*
X16667720Y-10952436D01*
X16667720Y-10952436D02*
X16658196Y-10961960D01*
X16658196Y-10961960D02*
X16639149Y-10971484D01*
X16639149Y-10971484D02*
X16601053Y-10971484D01*
X16601053Y-10971484D02*
X16582006Y-10961960D01*
X16791530Y-10971484D02*
X16772482Y-10961960D01*
X16772482Y-10961960D02*
X16762958Y-10942912D01*
X16762958Y-10942912D02*
X16762958Y-10771484D01*
X16953435Y-10971484D02*
X16953435Y-10866722D01*
X16953435Y-10866722D02*
X16943911Y-10847674D01*
X16943911Y-10847674D02*
X16924863Y-10838150D01*
X16924863Y-10838150D02*
X16886768Y-10838150D01*
X16886768Y-10838150D02*
X16867720Y-10847674D01*
X16953435Y-10961960D02*
X16934387Y-10971484D01*
X16934387Y-10971484D02*
X16886768Y-10971484D01*
X16886768Y-10971484D02*
X16867720Y-10961960D01*
X16867720Y-10961960D02*
X16858196Y-10942912D01*
X16858196Y-10942912D02*
X16858196Y-10923865D01*
X16858196Y-10923865D02*
X16867720Y-10904817D01*
X16867720Y-10904817D02*
X16886768Y-10895293D01*
X16886768Y-10895293D02*
X16934387Y-10895293D01*
X16934387Y-10895293D02*
X16953435Y-10885770D01*
X17020101Y-10838150D02*
X17096292Y-10838150D01*
X17048673Y-10771484D02*
X17048673Y-10942912D01*
X17048673Y-10942912D02*
X17058196Y-10961960D01*
X17058196Y-10961960D02*
X17077244Y-10971484D01*
X17077244Y-10971484D02*
X17096292Y-10971484D01*
X17239149Y-10961960D02*
X17220101Y-10971484D01*
X17220101Y-10971484D02*
X17182006Y-10971484D01*
X17182006Y-10971484D02*
X17162958Y-10961960D01*
X17162958Y-10961960D02*
X17153435Y-10942912D01*
X17153435Y-10942912D02*
X17153435Y-10866722D01*
X17153435Y-10866722D02*
X17162958Y-10847674D01*
X17162958Y-10847674D02*
X17182006Y-10838150D01*
X17182006Y-10838150D02*
X17220101Y-10838150D01*
X17220101Y-10838150D02*
X17239149Y-10847674D01*
X17239149Y-10847674D02*
X17248673Y-10866722D01*
X17248673Y-10866722D02*
X17248673Y-10885770D01*
X17248673Y-10885770D02*
X17153435Y-10904817D01*
X17420101Y-10971484D02*
X17420101Y-10771484D01*
X17420101Y-10961960D02*
X17401054Y-10971484D01*
X17401054Y-10971484D02*
X17362958Y-10971484D01*
X17362958Y-10971484D02*
X17343911Y-10961960D01*
X17343911Y-10961960D02*
X17334387Y-10952436D01*
X17334387Y-10952436D02*
X17324863Y-10933389D01*
X17324863Y-10933389D02*
X17324863Y-10876246D01*
X17324863Y-10876246D02*
X17334387Y-10857198D01*
X17334387Y-10857198D02*
X17343911Y-10847674D01*
X17343911Y-10847674D02*
X17362958Y-10838150D01*
X17362958Y-10838150D02*
X17401054Y-10838150D01*
X17401054Y-10838150D02*
X17420101Y-10847674D01*
X17496292Y-11047674D02*
X17505816Y-11038150D01*
X17505816Y-11038150D02*
X17524863Y-11009579D01*
X17524863Y-11009579D02*
X17534387Y-10990531D01*
X17534387Y-10990531D02*
X17543911Y-10961960D01*
X17543911Y-10961960D02*
X17553435Y-10914341D01*
X17553435Y-10914341D02*
X17553435Y-10876246D01*
X17553435Y-10876246D02*
X17543911Y-10828627D01*
X17543911Y-10828627D02*
X17534387Y-10800055D01*
X17534387Y-10800055D02*
X17524863Y-10781008D01*
X17524863Y-10781008D02*
X17505816Y-10752436D01*
X17505816Y-10752436D02*
X17496292Y-10742912D01*
M02*
