M48
; DRILL file {KiCad 7.0.9} date Mon Aug 19 17:06:17 2024
; FORMAT={-:-/ absolute / inch / decimal}
; #@! TF.CreationDate,2024-08-19T17:06:17-04:00
; #@! TF.GenerationSoftware,Kicad,Pcbnew,7.0.9
; #@! TF.FileFunction,NonPlated,1,2,NPTH
FMAT,2
INCH
; #@! TA.AperFunction,NonPlated,NPTH,ComponentDrill
T1C0.0689
; #@! TA.AperFunction,NonPlated,NPTH,ComponentDrill
T2C0.0866
; #@! TA.AperFunction,NonPlated,NPTH,ComponentDrill
T3C0.1570
%
G90
G05
T1
X5.8275Y-1.8847
X5.8275Y-2.6328
X5.8275Y-3.3808
X6.2275Y-1.8847
X6.2275Y-2.6328
X6.2275Y-3.3808
X6.5755Y-1.8847
X6.5755Y-2.6328
X6.5755Y-3.3808
X6.9755Y-1.8847
X6.9755Y-2.6328
X6.9755Y-3.3808
X7.3235Y-1.8847
X7.3235Y-2.6328
X7.3235Y-3.3808
X7.7235Y-1.8847
X7.7235Y-2.6328
X7.7235Y-3.3808
X8.0716Y-1.8847
X8.0716Y-2.6328
X8.0716Y-3.3808
X8.4716Y-1.8847
X8.4716Y-2.6328
X8.4716Y-3.3808
T2
X4.2538Y-3.4919
X4.2539Y-1.7205
X8.7814Y-3.492
X8.7815Y-1.7206
T3
X6.0275Y-1.8847
X6.0275Y-2.6328
X6.0275Y-3.3808
X6.7755Y-1.8847
X6.7755Y-2.6328
X6.7755Y-3.3808
X7.5235Y-1.8847
X7.5235Y-2.6328
X7.5235Y-3.3808
X8.2716Y-1.8847
X8.2716Y-2.6328
X8.2716Y-3.3808
T0
M30
