M48
; DRILL file {KiCad 7.0.9} date Mon Aug 19 17:06:17 2024
; FORMAT={-:-/ absolute / inch / decimal}
; #@! TF.CreationDate,2024-08-19T17:06:17-04:00
; #@! TF.GenerationSoftware,Kicad,Pcbnew,7.0.9
; #@! TF.FileFunction,Plated,1,2,PTH
FMAT,2
INCH
; #@! TA.AperFunction,Plated,PTH,ViaDrill
T1C0.0157
; #@! TA.AperFunction,Plated,PTH,ComponentDrill
T2C0.0295
; #@! TA.AperFunction,Plated,PTH,ComponentDrill
T3C0.0315
; #@! TA.AperFunction,Plated,PTH,ComponentDrill
T4C0.0394
; #@! TA.AperFunction,Plated,PTH,ComponentDrill
T5C0.0402
; #@! TA.AperFunction,Plated,PTH,ComponentDrill
T6C0.0579
%
G90
G05
T1
X4.7871Y-2.1984
X4.8203Y-2.3731
X4.8212Y-2.4711
X4.8264Y-2.1989
X4.8657Y-2.2007
X4.9067Y-2.1996
T2
X4.9276Y-2.9686
X4.9276Y-3.0473
X4.9276Y-3.1261
X4.9276Y-3.2048
X5.4366Y-1.6115
X5.5153Y-1.6115
T3
X5.3786Y-2.475
X5.3786Y-2.9239
X5.3786Y-3.3728
X5.3805Y-2.0241
X5.3805Y-2.6246
X5.3805Y-2.7724
X5.3805Y-3.0754
X5.3805Y-3.5206
X5.382Y-2.3219
X5.3824Y-1.8735
X5.3824Y-3.2194
X5.3842Y-2.1719
X5.52Y-2.3335
X5.52Y-2.7825
X5.52Y-3.2314
X5.5219Y-1.8827
X5.5219Y-2.4832
X5.5219Y-2.6309
X5.5219Y-2.934
X5.5219Y-3.3792
X5.5234Y-2.1805
X5.5238Y-1.7321
X5.5238Y-3.078
X5.5256Y-2.0305
T4
X4.8023Y-1.5713
X4.8823Y-1.5713
T5
X4.4923Y-1.5711
X4.4923Y-1.6711
X4.4923Y-1.7711
X4.4923Y-1.8711
X4.4923Y-1.9711
X4.4923Y-2.0711
X4.4923Y-2.1711
X4.4923Y-2.2711
X4.4923Y-2.3711
X4.4923Y-2.4711
X4.4923Y-2.5711
X4.4923Y-2.6711
X4.4923Y-2.7711
X4.4923Y-2.8711
X4.4923Y-2.9711
X4.4923Y-3.0711
X4.4923Y-3.1711
X4.4923Y-3.2711
X4.4923Y-3.3711
X4.4923Y-3.4711
X4.7423Y-3.4621
X4.8423Y-3.4621
X4.9423Y-3.4621
X5.1923Y-1.5711
X5.1923Y-1.6711
X5.1923Y-1.7711
X5.1923Y-1.8711
X5.1923Y-1.9711
X5.1923Y-2.0711
X5.1923Y-2.1711
X5.1923Y-2.2711
X5.1923Y-2.3711
X5.1923Y-2.4711
X5.1923Y-2.5711
X5.1923Y-2.6711
X5.1923Y-2.7711
X5.1923Y-2.8711
X5.1923Y-2.9711
X5.1923Y-3.0711
X5.1923Y-3.1711
X5.1923Y-3.2711
X5.1923Y-3.3711
X5.1923Y-3.4711
T6
X5.8775Y-1.7847
X5.8775Y-2.5328
X5.8775Y-3.2808
X6.1275Y-1.6847
X6.1275Y-2.4328
X6.1275Y-3.1808
X6.6255Y-1.7847
X6.6255Y-2.5328
X6.6255Y-3.2808
X6.8755Y-1.6847
X6.8755Y-2.4328
X6.8755Y-3.1808
X7.3735Y-1.7847
X7.3735Y-2.5328
X7.3735Y-3.2808
X7.6235Y-1.6847
X7.6235Y-2.4328
X7.6235Y-3.1808
X8.1216Y-1.7847
X8.1216Y-2.5328
X8.1216Y-3.2808
X8.3716Y-1.6847
X8.3716Y-2.4328
X8.3716Y-3.1808
T0
M30
