%TF.GenerationSoftware,KiCad,Pcbnew,7.0.9*%
%TF.CreationDate,2024-08-19T17:06:18-04:00*%
%TF.ProjectId,macropad-pico,6d616372-6f70-4616-942d-7069636f2e6b,rev?*%
%TF.SameCoordinates,Original*%
%TF.FileFunction,Drillmap*%
%TF.FilePolarity,Positive*%
%FSLAX45Y45*%
G04 Gerber Fmt 4.5, Leading zero omitted, Abs format (unit mm)*
G04 Created by KiCad (PCBNEW 7.0.9) date 2024-08-19 17:06:18*
%MOMM*%
%LPD*%
G01*
G04 APERTURE LIST*
%ADD10C,0.100000*%
%ADD11C,0.200000*%
%ADD12C,0.102000*%
%ADD13C,0.147000*%
G04 APERTURE END LIST*
D10*
X11883400Y-4334200D02*
X11883400Y-3852900D01*
X11933400Y-4384200D02*
X12660600Y-4384200D01*
X11054800Y-9220000D02*
X11054800Y-9520000D01*
X22554800Y-4220000D02*
G75*
G03*
X22454800Y-4120000I-100000J0D01*
G01*
X22154800Y-9120000D02*
X22454800Y-9120000D01*
X22154800Y-9120000D02*
G75*
G03*
X22054800Y-9220000I0J-100000D01*
G01*
X22054800Y-9520000D02*
X22054800Y-9220000D01*
X11154800Y-3620000D02*
G75*
G03*
X11054800Y-3720000I0J-100000D01*
G01*
X12660600Y-4384200D02*
G75*
G03*
X12710600Y-4334200I0J50000D01*
G01*
X12660600Y-3802900D02*
X11933400Y-3802900D01*
X22054800Y-4020000D02*
G75*
G03*
X22154800Y-4120000I100000J0D01*
G01*
X10554800Y-4220000D02*
X10554800Y-9020000D01*
X22154800Y-4120000D02*
X22454800Y-4120000D01*
X10954800Y-4120000D02*
X10654800Y-4120000D01*
X10654800Y-4120000D02*
G75*
G03*
X10554800Y-4220000I0J-100000D01*
G01*
X10954800Y-4120000D02*
G75*
G03*
X11054800Y-4020000I0J100000D01*
G01*
X11054800Y-3720000D02*
X11054800Y-4020000D01*
X12710600Y-3852900D02*
G75*
G03*
X12660600Y-3802900I-50000J0D01*
G01*
X21954800Y-3620000D02*
X11154800Y-3620000D01*
X11154800Y-9620000D02*
X21954800Y-9620000D01*
X11883400Y-4334200D02*
G75*
G03*
X11933400Y-4384200I50000J0D01*
G01*
X22454800Y-9120000D02*
G75*
G03*
X22554800Y-9020000I0J100000D01*
G01*
X21954800Y-9620000D02*
G75*
G03*
X22054800Y-9520000I0J100000D01*
G01*
X11054800Y-9220000D02*
G75*
G03*
X10954800Y-9120000I-100000J0D01*
G01*
X22554800Y-9020000D02*
X22554800Y-4220000D01*
X22054800Y-3720000D02*
X22054800Y-4020000D01*
X11933400Y-3802900D02*
G75*
G03*
X11883400Y-3852900I0J-50000D01*
G01*
X11054800Y-9520000D02*
G75*
G03*
X11154800Y-9620000I100000J0D01*
G01*
X10554800Y-9020000D02*
G75*
G03*
X10654800Y-9120000I100000J0D01*
G01*
X10654800Y-9120000D02*
X10954800Y-9120000D01*
X22054800Y-3720000D02*
G75*
G03*
X21954800Y-3620000I-100000J0D01*
G01*
X12710600Y-4334200D02*
X12710600Y-3852900D01*
D11*
D10*
X12139123Y-5563919D02*
X12179123Y-5603919D01*
X12179123Y-5563919D02*
X12139123Y-5603919D01*
X12223600Y-6007600D02*
X12263600Y-6047600D01*
X12263600Y-6007600D02*
X12223600Y-6047600D01*
X12225900Y-6256500D02*
X12265900Y-6296500D01*
X12265900Y-6256500D02*
X12225900Y-6296500D01*
X12239066Y-5565138D02*
X12279066Y-5605138D01*
X12279066Y-5565138D02*
X12239066Y-5605138D01*
X12338908Y-5569792D02*
X12378908Y-5609792D01*
X12378908Y-5569792D02*
X12338908Y-5609792D01*
X12443008Y-5566992D02*
X12483008Y-5606992D01*
X12483008Y-5566992D02*
X12443008Y-5606992D01*
X12553700Y-7540200D02*
G75*
G03*
X12553700Y-7540200I-37500J0D01*
G01*
X12553700Y-7740200D02*
G75*
G03*
X12553700Y-7740200I-37500J0D01*
G01*
X12553700Y-7940200D02*
G75*
G03*
X12553700Y-7940200I-37500J0D01*
G01*
X12553700Y-8140200D02*
G75*
G03*
X12553700Y-8140200I-37500J0D01*
G01*
X13846400Y-4093300D02*
G75*
G03*
X13846400Y-4093300I-37500J0D01*
G01*
X14046400Y-4093300D02*
G75*
G03*
X14046400Y-4093300I-37500J0D01*
G01*
X13661703Y-6246397D02*
X13661703Y-6326397D01*
X13621703Y-6286397D02*
X13701703Y-6286397D01*
X13661703Y-7386697D02*
X13661703Y-7466697D01*
X13621703Y-7426697D02*
X13701703Y-7426697D01*
X13661703Y-8526997D02*
X13661703Y-8606997D01*
X13621703Y-8566997D02*
X13701703Y-8566997D01*
X13666403Y-5101297D02*
X13666403Y-5181297D01*
X13626403Y-5141297D02*
X13706403Y-5141297D01*
X13666403Y-6626497D02*
X13666403Y-6706497D01*
X13626403Y-6666497D02*
X13706403Y-6666497D01*
X13666403Y-7001797D02*
X13666403Y-7081797D01*
X13626403Y-7041797D02*
X13706403Y-7041797D01*
X13666403Y-7771597D02*
X13666403Y-7851597D01*
X13626403Y-7811597D02*
X13706403Y-7811597D01*
X13666403Y-8902397D02*
X13666403Y-8982397D01*
X13626403Y-8942397D02*
X13706403Y-8942397D01*
X13670208Y-5857692D02*
X13670208Y-5937692D01*
X13630208Y-5897692D02*
X13710208Y-5897692D01*
X13671203Y-4718797D02*
X13671203Y-4798797D01*
X13631203Y-4758797D02*
X13711203Y-4758797D01*
X13671203Y-8137397D02*
X13671203Y-8217397D01*
X13631203Y-8177397D02*
X13711203Y-8177397D01*
X13675903Y-5476697D02*
X13675903Y-5556697D01*
X13635903Y-5516697D02*
X13715903Y-5516697D01*
X14020913Y-5887187D02*
X14020913Y-5967187D01*
X13980913Y-5927187D02*
X14060913Y-5927187D01*
X14020913Y-7027487D02*
X14020913Y-7107487D01*
X13980913Y-7067487D02*
X14060913Y-7067487D01*
X14020913Y-8167787D02*
X14020913Y-8247787D01*
X13980913Y-8207787D02*
X14060913Y-8207787D01*
X14025613Y-4742087D02*
X14025613Y-4822087D01*
X13985613Y-4782087D02*
X14065613Y-4782087D01*
X14025613Y-6267287D02*
X14025613Y-6347287D01*
X13985613Y-6307287D02*
X14065613Y-6307287D01*
X14025613Y-6642587D02*
X14025613Y-6722587D01*
X13985613Y-6682587D02*
X14065613Y-6682587D01*
X14025613Y-7412387D02*
X14025613Y-7492387D01*
X13985613Y-7452387D02*
X14065613Y-7452387D01*
X14025613Y-8543187D02*
X14025613Y-8623187D01*
X13985613Y-8583187D02*
X14065613Y-8583187D01*
X14029418Y-5498482D02*
X14029418Y-5578482D01*
X13989418Y-5538482D02*
X14069418Y-5538482D01*
X14030413Y-4359587D02*
X14030413Y-4439587D01*
X13990413Y-4399587D02*
X14070413Y-4399587D01*
X14030413Y-7778187D02*
X14030413Y-7858187D01*
X13990413Y-7818187D02*
X14070413Y-7818187D01*
X14035113Y-5117487D02*
X14035113Y-5197487D01*
X13995113Y-5157487D02*
X14075113Y-5157487D01*
X12233163Y-4026548D02*
X12233163Y-3955837D01*
X12162452Y-3955837D01*
X12162452Y-4026548D01*
X12233163Y-4026548D01*
X12436363Y-4026548D02*
X12436363Y-3955837D01*
X12365652Y-3955837D01*
X12365652Y-4026548D01*
X12436363Y-4026548D01*
D12*
X11410408Y-4041692D02*
X11461408Y-3990692D01*
X11410408Y-3939692D01*
X11359408Y-3990692D01*
X11410408Y-4041692D01*
X11410408Y-4295692D02*
X11461408Y-4244692D01*
X11410408Y-4193692D01*
X11359408Y-4244692D01*
X11410408Y-4295692D01*
X11410408Y-4549692D02*
X11461408Y-4498692D01*
X11410408Y-4447692D01*
X11359408Y-4498692D01*
X11410408Y-4549692D01*
X11410408Y-4803692D02*
X11461408Y-4752692D01*
X11410408Y-4701692D01*
X11359408Y-4752692D01*
X11410408Y-4803692D01*
X11410408Y-5057692D02*
X11461408Y-5006692D01*
X11410408Y-4955692D01*
X11359408Y-5006692D01*
X11410408Y-5057692D01*
X11410408Y-5311692D02*
X11461408Y-5260692D01*
X11410408Y-5209692D01*
X11359408Y-5260692D01*
X11410408Y-5311692D01*
X11410408Y-5565692D02*
X11461408Y-5514692D01*
X11410408Y-5463692D01*
X11359408Y-5514692D01*
X11410408Y-5565692D01*
X11410408Y-5819692D02*
X11461408Y-5768692D01*
X11410408Y-5717692D01*
X11359408Y-5768692D01*
X11410408Y-5819692D01*
X11410408Y-6073692D02*
X11461408Y-6022692D01*
X11410408Y-5971692D01*
X11359408Y-6022692D01*
X11410408Y-6073692D01*
X11410408Y-6327692D02*
X11461408Y-6276692D01*
X11410408Y-6225692D01*
X11359408Y-6276692D01*
X11410408Y-6327692D01*
X11410408Y-6581692D02*
X11461408Y-6530692D01*
X11410408Y-6479692D01*
X11359408Y-6530692D01*
X11410408Y-6581692D01*
X11410408Y-6835692D02*
X11461408Y-6784692D01*
X11410408Y-6733692D01*
X11359408Y-6784692D01*
X11410408Y-6835692D01*
X11410408Y-7089692D02*
X11461408Y-7038692D01*
X11410408Y-6987692D01*
X11359408Y-7038692D01*
X11410408Y-7089692D01*
X11410408Y-7343692D02*
X11461408Y-7292692D01*
X11410408Y-7241692D01*
X11359408Y-7292692D01*
X11410408Y-7343692D01*
X11410408Y-7597692D02*
X11461408Y-7546692D01*
X11410408Y-7495692D01*
X11359408Y-7546692D01*
X11410408Y-7597692D01*
X11410408Y-7851692D02*
X11461408Y-7800692D01*
X11410408Y-7749692D01*
X11359408Y-7800692D01*
X11410408Y-7851692D01*
X11410408Y-8105692D02*
X11461408Y-8054692D01*
X11410408Y-8003692D01*
X11359408Y-8054692D01*
X11410408Y-8105692D01*
X11410408Y-8359692D02*
X11461408Y-8308692D01*
X11410408Y-8257692D01*
X11359408Y-8308692D01*
X11410408Y-8359692D01*
X11410408Y-8613692D02*
X11461408Y-8562692D01*
X11410408Y-8511692D01*
X11359408Y-8562692D01*
X11410408Y-8613692D01*
X11410408Y-8867692D02*
X11461408Y-8816692D01*
X11410408Y-8765692D01*
X11359408Y-8816692D01*
X11410408Y-8867692D01*
X12045408Y-8844692D02*
X12096408Y-8793692D01*
X12045408Y-8742692D01*
X11994408Y-8793692D01*
X12045408Y-8844692D01*
X12299408Y-8844692D02*
X12350408Y-8793692D01*
X12299408Y-8742692D01*
X12248408Y-8793692D01*
X12299408Y-8844692D01*
X12553408Y-8844692D02*
X12604408Y-8793692D01*
X12553408Y-8742692D01*
X12502408Y-8793692D01*
X12553408Y-8844692D01*
X13188408Y-4041692D02*
X13239408Y-3990692D01*
X13188408Y-3939692D01*
X13137408Y-3990692D01*
X13188408Y-4041692D01*
X13188408Y-4295692D02*
X13239408Y-4244692D01*
X13188408Y-4193692D01*
X13137408Y-4244692D01*
X13188408Y-4295692D01*
X13188408Y-4549692D02*
X13239408Y-4498692D01*
X13188408Y-4447692D01*
X13137408Y-4498692D01*
X13188408Y-4549692D01*
X13188408Y-4803692D02*
X13239408Y-4752692D01*
X13188408Y-4701692D01*
X13137408Y-4752692D01*
X13188408Y-4803692D01*
X13188408Y-5057692D02*
X13239408Y-5006692D01*
X13188408Y-4955692D01*
X13137408Y-5006692D01*
X13188408Y-5057692D01*
X13188408Y-5311692D02*
X13239408Y-5260692D01*
X13188408Y-5209692D01*
X13137408Y-5260692D01*
X13188408Y-5311692D01*
X13188408Y-5565692D02*
X13239408Y-5514692D01*
X13188408Y-5463692D01*
X13137408Y-5514692D01*
X13188408Y-5565692D01*
X13188408Y-5819692D02*
X13239408Y-5768692D01*
X13188408Y-5717692D01*
X13137408Y-5768692D01*
X13188408Y-5819692D01*
X13188408Y-6073692D02*
X13239408Y-6022692D01*
X13188408Y-5971692D01*
X13137408Y-6022692D01*
X13188408Y-6073692D01*
X13188408Y-6327692D02*
X13239408Y-6276692D01*
X13188408Y-6225692D01*
X13137408Y-6276692D01*
X13188408Y-6327692D01*
X13188408Y-6581692D02*
X13239408Y-6530692D01*
X13188408Y-6479692D01*
X13137408Y-6530692D01*
X13188408Y-6581692D01*
X13188408Y-6835692D02*
X13239408Y-6784692D01*
X13188408Y-6733692D01*
X13137408Y-6784692D01*
X13188408Y-6835692D01*
X13188408Y-7089692D02*
X13239408Y-7038692D01*
X13188408Y-6987692D01*
X13137408Y-7038692D01*
X13188408Y-7089692D01*
X13188408Y-7343692D02*
X13239408Y-7292692D01*
X13188408Y-7241692D01*
X13137408Y-7292692D01*
X13188408Y-7343692D01*
X13188408Y-7597692D02*
X13239408Y-7546692D01*
X13188408Y-7495692D01*
X13137408Y-7546692D01*
X13188408Y-7597692D01*
X13188408Y-7851692D02*
X13239408Y-7800692D01*
X13188408Y-7749692D01*
X13137408Y-7800692D01*
X13188408Y-7851692D01*
X13188408Y-8105692D02*
X13239408Y-8054692D01*
X13188408Y-8003692D01*
X13137408Y-8054692D01*
X13188408Y-8105692D01*
X13188408Y-8359692D02*
X13239408Y-8308692D01*
X13188408Y-8257692D01*
X13137408Y-8308692D01*
X13188408Y-8359692D01*
X13188408Y-8613692D02*
X13239408Y-8562692D01*
X13188408Y-8511692D01*
X13137408Y-8562692D01*
X13188408Y-8613692D01*
X13188408Y-8867692D02*
X13239408Y-8816692D01*
X13188408Y-8765692D01*
X13137408Y-8816692D01*
X13188408Y-8867692D01*
D13*
X14855308Y-4459692D02*
X15002308Y-4606692D01*
X15002308Y-4459692D02*
X14855308Y-4606692D01*
X15002308Y-4533192D02*
G75*
G03*
X15002308Y-4533192I-73500J0D01*
G01*
X14855308Y-6359692D02*
X15002308Y-6506692D01*
X15002308Y-6359692D02*
X14855308Y-6506692D01*
X15002308Y-6433192D02*
G75*
G03*
X15002308Y-6433192I-73500J0D01*
G01*
X14855308Y-8259692D02*
X15002308Y-8406692D01*
X15002308Y-8259692D02*
X14855308Y-8406692D01*
X15002308Y-8333192D02*
G75*
G03*
X15002308Y-8333192I-73500J0D01*
G01*
X15490308Y-4205692D02*
X15637308Y-4352692D01*
X15637308Y-4205692D02*
X15490308Y-4352692D01*
X15637308Y-4279192D02*
G75*
G03*
X15637308Y-4279192I-73500J0D01*
G01*
X15490308Y-6105692D02*
X15637308Y-6252692D01*
X15637308Y-6105692D02*
X15490308Y-6252692D01*
X15637308Y-6179192D02*
G75*
G03*
X15637308Y-6179192I-73500J0D01*
G01*
X15490308Y-8005692D02*
X15637308Y-8152692D01*
X15637308Y-8005692D02*
X15490308Y-8152692D01*
X15637308Y-8079192D02*
G75*
G03*
X15637308Y-8079192I-73500J0D01*
G01*
X16755308Y-4459692D02*
X16902308Y-4606692D01*
X16902308Y-4459692D02*
X16755308Y-4606692D01*
X16902308Y-4533192D02*
G75*
G03*
X16902308Y-4533192I-73500J0D01*
G01*
X16755308Y-6359692D02*
X16902308Y-6506692D01*
X16902308Y-6359692D02*
X16755308Y-6506692D01*
X16902308Y-6433192D02*
G75*
G03*
X16902308Y-6433192I-73500J0D01*
G01*
X16755308Y-8259692D02*
X16902308Y-8406692D01*
X16902308Y-8259692D02*
X16755308Y-8406692D01*
X16902308Y-8333192D02*
G75*
G03*
X16902308Y-8333192I-73500J0D01*
G01*
X17390308Y-4205692D02*
X17537308Y-4352692D01*
X17537308Y-4205692D02*
X17390308Y-4352692D01*
X17537308Y-4279192D02*
G75*
G03*
X17537308Y-4279192I-73500J0D01*
G01*
X17390308Y-6105692D02*
X17537308Y-6252692D01*
X17537308Y-6105692D02*
X17390308Y-6252692D01*
X17537308Y-6179192D02*
G75*
G03*
X17537308Y-6179192I-73500J0D01*
G01*
X17390308Y-8005692D02*
X17537308Y-8152692D01*
X17537308Y-8005692D02*
X17390308Y-8152692D01*
X17537308Y-8079192D02*
G75*
G03*
X17537308Y-8079192I-73500J0D01*
G01*
X18655308Y-4459692D02*
X18802308Y-4606692D01*
X18802308Y-4459692D02*
X18655308Y-4606692D01*
X18802308Y-4533192D02*
G75*
G03*
X18802308Y-4533192I-73500J0D01*
G01*
X18655308Y-6359692D02*
X18802308Y-6506692D01*
X18802308Y-6359692D02*
X18655308Y-6506692D01*
X18802308Y-6433192D02*
G75*
G03*
X18802308Y-6433192I-73500J0D01*
G01*
X18655308Y-8259692D02*
X18802308Y-8406692D01*
X18802308Y-8259692D02*
X18655308Y-8406692D01*
X18802308Y-8333192D02*
G75*
G03*
X18802308Y-8333192I-73500J0D01*
G01*
X19290308Y-4205692D02*
X19437308Y-4352692D01*
X19437308Y-4205692D02*
X19290308Y-4352692D01*
X19437308Y-4279192D02*
G75*
G03*
X19437308Y-4279192I-73500J0D01*
G01*
X19290308Y-6105692D02*
X19437308Y-6252692D01*
X19437308Y-6105692D02*
X19290308Y-6252692D01*
X19437308Y-6179192D02*
G75*
G03*
X19437308Y-6179192I-73500J0D01*
G01*
X19290308Y-8005692D02*
X19437308Y-8152692D01*
X19437308Y-8005692D02*
X19290308Y-8152692D01*
X19437308Y-8079192D02*
G75*
G03*
X19437308Y-8079192I-73500J0D01*
G01*
X20555308Y-4459692D02*
X20702308Y-4606692D01*
X20702308Y-4459692D02*
X20555308Y-4606692D01*
X20702308Y-4533192D02*
G75*
G03*
X20702308Y-4533192I-73500J0D01*
G01*
X20555308Y-6359692D02*
X20702308Y-6506692D01*
X20702308Y-6359692D02*
X20555308Y-6506692D01*
X20702308Y-6433192D02*
G75*
G03*
X20702308Y-6433192I-73500J0D01*
G01*
X20555308Y-8259692D02*
X20702308Y-8406692D01*
X20702308Y-8259692D02*
X20555308Y-8406692D01*
X20702308Y-8333192D02*
G75*
G03*
X20702308Y-8333192I-73500J0D01*
G01*
X21190308Y-4205692D02*
X21337308Y-4352692D01*
X21337308Y-4205692D02*
X21190308Y-4352692D01*
X21337308Y-4279192D02*
G75*
G03*
X21337308Y-4279192I-73500J0D01*
G01*
X21190308Y-6105692D02*
X21337308Y-6252692D01*
X21337308Y-6105692D02*
X21190308Y-6252692D01*
X21337308Y-6179192D02*
G75*
G03*
X21337308Y-6179192I-73500J0D01*
G01*
X21190308Y-8005692D02*
X21337308Y-8152692D01*
X21337308Y-8005692D02*
X21190308Y-8152692D01*
X21337308Y-8079192D02*
G75*
G03*
X21337308Y-8079192I-73500J0D01*
G01*
D11*
X10810577Y-9936484D02*
X10810577Y-9736484D01*
X10810577Y-9736484D02*
X10858196Y-9736484D01*
X10858196Y-9736484D02*
X10886767Y-9746008D01*
X10886767Y-9746008D02*
X10905815Y-9765055D01*
X10905815Y-9765055D02*
X10915339Y-9784103D01*
X10915339Y-9784103D02*
X10924863Y-9822198D01*
X10924863Y-9822198D02*
X10924863Y-9850770D01*
X10924863Y-9850770D02*
X10915339Y-9888865D01*
X10915339Y-9888865D02*
X10905815Y-9907912D01*
X10905815Y-9907912D02*
X10886767Y-9926960D01*
X10886767Y-9926960D02*
X10858196Y-9936484D01*
X10858196Y-9936484D02*
X10810577Y-9936484D01*
X11010577Y-9936484D02*
X11010577Y-9803150D01*
X11010577Y-9841246D02*
X11020101Y-9822198D01*
X11020101Y-9822198D02*
X11029624Y-9812674D01*
X11029624Y-9812674D02*
X11048672Y-9803150D01*
X11048672Y-9803150D02*
X11067720Y-9803150D01*
X11134386Y-9936484D02*
X11134386Y-9803150D01*
X11134386Y-9736484D02*
X11124863Y-9746008D01*
X11124863Y-9746008D02*
X11134386Y-9755531D01*
X11134386Y-9755531D02*
X11143910Y-9746008D01*
X11143910Y-9746008D02*
X11134386Y-9736484D01*
X11134386Y-9736484D02*
X11134386Y-9755531D01*
X11258196Y-9936484D02*
X11239148Y-9926960D01*
X11239148Y-9926960D02*
X11229624Y-9907912D01*
X11229624Y-9907912D02*
X11229624Y-9736484D01*
X11362958Y-9936484D02*
X11343910Y-9926960D01*
X11343910Y-9926960D02*
X11334386Y-9907912D01*
X11334386Y-9907912D02*
X11334386Y-9736484D01*
X11591529Y-9936484D02*
X11591529Y-9736484D01*
X11591529Y-9736484D02*
X11658196Y-9879341D01*
X11658196Y-9879341D02*
X11724862Y-9736484D01*
X11724862Y-9736484D02*
X11724862Y-9936484D01*
X11905815Y-9936484D02*
X11905815Y-9831722D01*
X11905815Y-9831722D02*
X11896291Y-9812674D01*
X11896291Y-9812674D02*
X11877243Y-9803150D01*
X11877243Y-9803150D02*
X11839148Y-9803150D01*
X11839148Y-9803150D02*
X11820101Y-9812674D01*
X11905815Y-9926960D02*
X11886767Y-9936484D01*
X11886767Y-9936484D02*
X11839148Y-9936484D01*
X11839148Y-9936484D02*
X11820101Y-9926960D01*
X11820101Y-9926960D02*
X11810577Y-9907912D01*
X11810577Y-9907912D02*
X11810577Y-9888865D01*
X11810577Y-9888865D02*
X11820101Y-9869817D01*
X11820101Y-9869817D02*
X11839148Y-9860293D01*
X11839148Y-9860293D02*
X11886767Y-9860293D01*
X11886767Y-9860293D02*
X11905815Y-9850770D01*
X12001053Y-9803150D02*
X12001053Y-10003150D01*
X12001053Y-9812674D02*
X12020101Y-9803150D01*
X12020101Y-9803150D02*
X12058196Y-9803150D01*
X12058196Y-9803150D02*
X12077243Y-9812674D01*
X12077243Y-9812674D02*
X12086767Y-9822198D01*
X12086767Y-9822198D02*
X12096291Y-9841246D01*
X12096291Y-9841246D02*
X12096291Y-9898389D01*
X12096291Y-9898389D02*
X12086767Y-9917436D01*
X12086767Y-9917436D02*
X12077243Y-9926960D01*
X12077243Y-9926960D02*
X12058196Y-9936484D01*
X12058196Y-9936484D02*
X12020101Y-9936484D01*
X12020101Y-9936484D02*
X12001053Y-9926960D01*
X12182005Y-9917436D02*
X12191529Y-9926960D01*
X12191529Y-9926960D02*
X12182005Y-9936484D01*
X12182005Y-9936484D02*
X12172482Y-9926960D01*
X12172482Y-9926960D02*
X12182005Y-9917436D01*
X12182005Y-9917436D02*
X12182005Y-9936484D01*
X12182005Y-9812674D02*
X12191529Y-9822198D01*
X12191529Y-9822198D02*
X12182005Y-9831722D01*
X12182005Y-9831722D02*
X12172482Y-9822198D01*
X12172482Y-9822198D02*
X12182005Y-9812674D01*
X12182005Y-9812674D02*
X12182005Y-9831722D01*
D10*
X10509800Y-10245000D02*
X10549800Y-10285000D01*
X10549800Y-10245000D02*
X10509800Y-10285000D01*
D11*
X10848672Y-10156484D02*
X10867720Y-10156484D01*
X10867720Y-10156484D02*
X10886767Y-10166008D01*
X10886767Y-10166008D02*
X10896291Y-10175531D01*
X10896291Y-10175531D02*
X10905815Y-10194579D01*
X10905815Y-10194579D02*
X10915339Y-10232674D01*
X10915339Y-10232674D02*
X10915339Y-10280293D01*
X10915339Y-10280293D02*
X10905815Y-10318389D01*
X10905815Y-10318389D02*
X10896291Y-10337436D01*
X10896291Y-10337436D02*
X10886767Y-10346960D01*
X10886767Y-10346960D02*
X10867720Y-10356484D01*
X10867720Y-10356484D02*
X10848672Y-10356484D01*
X10848672Y-10356484D02*
X10829624Y-10346960D01*
X10829624Y-10346960D02*
X10820101Y-10337436D01*
X10820101Y-10337436D02*
X10810577Y-10318389D01*
X10810577Y-10318389D02*
X10801053Y-10280293D01*
X10801053Y-10280293D02*
X10801053Y-10232674D01*
X10801053Y-10232674D02*
X10810577Y-10194579D01*
X10810577Y-10194579D02*
X10820101Y-10175531D01*
X10820101Y-10175531D02*
X10829624Y-10166008D01*
X10829624Y-10166008D02*
X10848672Y-10156484D01*
X11001053Y-10337436D02*
X11010577Y-10346960D01*
X11010577Y-10346960D02*
X11001053Y-10356484D01*
X11001053Y-10356484D02*
X10991529Y-10346960D01*
X10991529Y-10346960D02*
X11001053Y-10337436D01*
X11001053Y-10337436D02*
X11001053Y-10356484D01*
X11182005Y-10223150D02*
X11182005Y-10356484D01*
X11134386Y-10146960D02*
X11086767Y-10289817D01*
X11086767Y-10289817D02*
X11210577Y-10289817D01*
X11324862Y-10156484D02*
X11343910Y-10156484D01*
X11343910Y-10156484D02*
X11362958Y-10166008D01*
X11362958Y-10166008D02*
X11372482Y-10175531D01*
X11372482Y-10175531D02*
X11382005Y-10194579D01*
X11382005Y-10194579D02*
X11391529Y-10232674D01*
X11391529Y-10232674D02*
X11391529Y-10280293D01*
X11391529Y-10280293D02*
X11382005Y-10318389D01*
X11382005Y-10318389D02*
X11372482Y-10337436D01*
X11372482Y-10337436D02*
X11362958Y-10346960D01*
X11362958Y-10346960D02*
X11343910Y-10356484D01*
X11343910Y-10356484D02*
X11324862Y-10356484D01*
X11324862Y-10356484D02*
X11305815Y-10346960D01*
X11305815Y-10346960D02*
X11296291Y-10337436D01*
X11296291Y-10337436D02*
X11286767Y-10318389D01*
X11286767Y-10318389D02*
X11277243Y-10280293D01*
X11277243Y-10280293D02*
X11277243Y-10232674D01*
X11277243Y-10232674D02*
X11286767Y-10194579D01*
X11286767Y-10194579D02*
X11296291Y-10175531D01*
X11296291Y-10175531D02*
X11305815Y-10166008D01*
X11305815Y-10166008D02*
X11324862Y-10156484D01*
X11515339Y-10156484D02*
X11534386Y-10156484D01*
X11534386Y-10156484D02*
X11553434Y-10166008D01*
X11553434Y-10166008D02*
X11562958Y-10175531D01*
X11562958Y-10175531D02*
X11572482Y-10194579D01*
X11572482Y-10194579D02*
X11582005Y-10232674D01*
X11582005Y-10232674D02*
X11582005Y-10280293D01*
X11582005Y-10280293D02*
X11572482Y-10318389D01*
X11572482Y-10318389D02*
X11562958Y-10337436D01*
X11562958Y-10337436D02*
X11553434Y-10346960D01*
X11553434Y-10346960D02*
X11534386Y-10356484D01*
X11534386Y-10356484D02*
X11515339Y-10356484D01*
X11515339Y-10356484D02*
X11496291Y-10346960D01*
X11496291Y-10346960D02*
X11486767Y-10337436D01*
X11486767Y-10337436D02*
X11477243Y-10318389D01*
X11477243Y-10318389D02*
X11467720Y-10280293D01*
X11467720Y-10280293D02*
X11467720Y-10232674D01*
X11467720Y-10232674D02*
X11477243Y-10194579D01*
X11477243Y-10194579D02*
X11486767Y-10175531D01*
X11486767Y-10175531D02*
X11496291Y-10166008D01*
X11496291Y-10166008D02*
X11515339Y-10156484D01*
X11667720Y-10356484D02*
X11667720Y-10223150D01*
X11667720Y-10242198D02*
X11677243Y-10232674D01*
X11677243Y-10232674D02*
X11696291Y-10223150D01*
X11696291Y-10223150D02*
X11724863Y-10223150D01*
X11724863Y-10223150D02*
X11743910Y-10232674D01*
X11743910Y-10232674D02*
X11753434Y-10251722D01*
X11753434Y-10251722D02*
X11753434Y-10356484D01*
X11753434Y-10251722D02*
X11762958Y-10232674D01*
X11762958Y-10232674D02*
X11782005Y-10223150D01*
X11782005Y-10223150D02*
X11810577Y-10223150D01*
X11810577Y-10223150D02*
X11829624Y-10232674D01*
X11829624Y-10232674D02*
X11839148Y-10251722D01*
X11839148Y-10251722D02*
X11839148Y-10356484D01*
X11934386Y-10356484D02*
X11934386Y-10223150D01*
X11934386Y-10242198D02*
X11943910Y-10232674D01*
X11943910Y-10232674D02*
X11962958Y-10223150D01*
X11962958Y-10223150D02*
X11991529Y-10223150D01*
X11991529Y-10223150D02*
X12010577Y-10232674D01*
X12010577Y-10232674D02*
X12020101Y-10251722D01*
X12020101Y-10251722D02*
X12020101Y-10356484D01*
X12020101Y-10251722D02*
X12029624Y-10232674D01*
X12029624Y-10232674D02*
X12048672Y-10223150D01*
X12048672Y-10223150D02*
X12077243Y-10223150D01*
X12077243Y-10223150D02*
X12096291Y-10232674D01*
X12096291Y-10232674D02*
X12105815Y-10251722D01*
X12105815Y-10251722D02*
X12105815Y-10356484D01*
X12496291Y-10146960D02*
X12324863Y-10404103D01*
X12753434Y-10156484D02*
X12772482Y-10156484D01*
X12772482Y-10156484D02*
X12791529Y-10166008D01*
X12791529Y-10166008D02*
X12801053Y-10175531D01*
X12801053Y-10175531D02*
X12810577Y-10194579D01*
X12810577Y-10194579D02*
X12820101Y-10232674D01*
X12820101Y-10232674D02*
X12820101Y-10280293D01*
X12820101Y-10280293D02*
X12810577Y-10318389D01*
X12810577Y-10318389D02*
X12801053Y-10337436D01*
X12801053Y-10337436D02*
X12791529Y-10346960D01*
X12791529Y-10346960D02*
X12772482Y-10356484D01*
X12772482Y-10356484D02*
X12753434Y-10356484D01*
X12753434Y-10356484D02*
X12734386Y-10346960D01*
X12734386Y-10346960D02*
X12724863Y-10337436D01*
X12724863Y-10337436D02*
X12715339Y-10318389D01*
X12715339Y-10318389D02*
X12705815Y-10280293D01*
X12705815Y-10280293D02*
X12705815Y-10232674D01*
X12705815Y-10232674D02*
X12715339Y-10194579D01*
X12715339Y-10194579D02*
X12724863Y-10175531D01*
X12724863Y-10175531D02*
X12734386Y-10166008D01*
X12734386Y-10166008D02*
X12753434Y-10156484D01*
X12905815Y-10337436D02*
X12915339Y-10346960D01*
X12915339Y-10346960D02*
X12905815Y-10356484D01*
X12905815Y-10356484D02*
X12896291Y-10346960D01*
X12896291Y-10346960D02*
X12905815Y-10337436D01*
X12905815Y-10337436D02*
X12905815Y-10356484D01*
X13039148Y-10156484D02*
X13058196Y-10156484D01*
X13058196Y-10156484D02*
X13077244Y-10166008D01*
X13077244Y-10166008D02*
X13086767Y-10175531D01*
X13086767Y-10175531D02*
X13096291Y-10194579D01*
X13096291Y-10194579D02*
X13105815Y-10232674D01*
X13105815Y-10232674D02*
X13105815Y-10280293D01*
X13105815Y-10280293D02*
X13096291Y-10318389D01*
X13096291Y-10318389D02*
X13086767Y-10337436D01*
X13086767Y-10337436D02*
X13077244Y-10346960D01*
X13077244Y-10346960D02*
X13058196Y-10356484D01*
X13058196Y-10356484D02*
X13039148Y-10356484D01*
X13039148Y-10356484D02*
X13020101Y-10346960D01*
X13020101Y-10346960D02*
X13010577Y-10337436D01*
X13010577Y-10337436D02*
X13001053Y-10318389D01*
X13001053Y-10318389D02*
X12991529Y-10280293D01*
X12991529Y-10280293D02*
X12991529Y-10232674D01*
X12991529Y-10232674D02*
X13001053Y-10194579D01*
X13001053Y-10194579D02*
X13010577Y-10175531D01*
X13010577Y-10175531D02*
X13020101Y-10166008D01*
X13020101Y-10166008D02*
X13039148Y-10156484D01*
X13296291Y-10356484D02*
X13182006Y-10356484D01*
X13239148Y-10356484D02*
X13239148Y-10156484D01*
X13239148Y-10156484D02*
X13220101Y-10185055D01*
X13220101Y-10185055D02*
X13201053Y-10204103D01*
X13201053Y-10204103D02*
X13182006Y-10213627D01*
X13477244Y-10156484D02*
X13382006Y-10156484D01*
X13382006Y-10156484D02*
X13372482Y-10251722D01*
X13372482Y-10251722D02*
X13382006Y-10242198D01*
X13382006Y-10242198D02*
X13401053Y-10232674D01*
X13401053Y-10232674D02*
X13448672Y-10232674D01*
X13448672Y-10232674D02*
X13467720Y-10242198D01*
X13467720Y-10242198D02*
X13477244Y-10251722D01*
X13477244Y-10251722D02*
X13486767Y-10270770D01*
X13486767Y-10270770D02*
X13486767Y-10318389D01*
X13486767Y-10318389D02*
X13477244Y-10337436D01*
X13477244Y-10337436D02*
X13467720Y-10346960D01*
X13467720Y-10346960D02*
X13448672Y-10356484D01*
X13448672Y-10356484D02*
X13401053Y-10356484D01*
X13401053Y-10356484D02*
X13382006Y-10346960D01*
X13382006Y-10346960D02*
X13372482Y-10337436D01*
X13553434Y-10156484D02*
X13686767Y-10156484D01*
X13686767Y-10156484D02*
X13601053Y-10356484D01*
X13753434Y-10156484D02*
X13753434Y-10194579D01*
X13829625Y-10156484D02*
X13829625Y-10194579D01*
X14124863Y-10432674D02*
X14115339Y-10423150D01*
X14115339Y-10423150D02*
X14096291Y-10394579D01*
X14096291Y-10394579D02*
X14086768Y-10375531D01*
X14086768Y-10375531D02*
X14077244Y-10346960D01*
X14077244Y-10346960D02*
X14067720Y-10299341D01*
X14067720Y-10299341D02*
X14067720Y-10261246D01*
X14067720Y-10261246D02*
X14077244Y-10213627D01*
X14077244Y-10213627D02*
X14086768Y-10185055D01*
X14086768Y-10185055D02*
X14096291Y-10166008D01*
X14096291Y-10166008D02*
X14115339Y-10137436D01*
X14115339Y-10137436D02*
X14124863Y-10127912D01*
X14286768Y-10156484D02*
X14248672Y-10156484D01*
X14248672Y-10156484D02*
X14229625Y-10166008D01*
X14229625Y-10166008D02*
X14220101Y-10175531D01*
X14220101Y-10175531D02*
X14201053Y-10204103D01*
X14201053Y-10204103D02*
X14191529Y-10242198D01*
X14191529Y-10242198D02*
X14191529Y-10318389D01*
X14191529Y-10318389D02*
X14201053Y-10337436D01*
X14201053Y-10337436D02*
X14210577Y-10346960D01*
X14210577Y-10346960D02*
X14229625Y-10356484D01*
X14229625Y-10356484D02*
X14267720Y-10356484D01*
X14267720Y-10356484D02*
X14286768Y-10346960D01*
X14286768Y-10346960D02*
X14296291Y-10337436D01*
X14296291Y-10337436D02*
X14305815Y-10318389D01*
X14305815Y-10318389D02*
X14305815Y-10270770D01*
X14305815Y-10270770D02*
X14296291Y-10251722D01*
X14296291Y-10251722D02*
X14286768Y-10242198D01*
X14286768Y-10242198D02*
X14267720Y-10232674D01*
X14267720Y-10232674D02*
X14229625Y-10232674D01*
X14229625Y-10232674D02*
X14210577Y-10242198D01*
X14210577Y-10242198D02*
X14201053Y-10251722D01*
X14201053Y-10251722D02*
X14191529Y-10270770D01*
X14543910Y-10356484D02*
X14543910Y-10156484D01*
X14629625Y-10356484D02*
X14629625Y-10251722D01*
X14629625Y-10251722D02*
X14620101Y-10232674D01*
X14620101Y-10232674D02*
X14601053Y-10223150D01*
X14601053Y-10223150D02*
X14572482Y-10223150D01*
X14572482Y-10223150D02*
X14553434Y-10232674D01*
X14553434Y-10232674D02*
X14543910Y-10242198D01*
X14753434Y-10356484D02*
X14734387Y-10346960D01*
X14734387Y-10346960D02*
X14724863Y-10337436D01*
X14724863Y-10337436D02*
X14715339Y-10318389D01*
X14715339Y-10318389D02*
X14715339Y-10261246D01*
X14715339Y-10261246D02*
X14724863Y-10242198D01*
X14724863Y-10242198D02*
X14734387Y-10232674D01*
X14734387Y-10232674D02*
X14753434Y-10223150D01*
X14753434Y-10223150D02*
X14782006Y-10223150D01*
X14782006Y-10223150D02*
X14801053Y-10232674D01*
X14801053Y-10232674D02*
X14810577Y-10242198D01*
X14810577Y-10242198D02*
X14820101Y-10261246D01*
X14820101Y-10261246D02*
X14820101Y-10318389D01*
X14820101Y-10318389D02*
X14810577Y-10337436D01*
X14810577Y-10337436D02*
X14801053Y-10346960D01*
X14801053Y-10346960D02*
X14782006Y-10356484D01*
X14782006Y-10356484D02*
X14753434Y-10356484D01*
X14934387Y-10356484D02*
X14915339Y-10346960D01*
X14915339Y-10346960D02*
X14905815Y-10327912D01*
X14905815Y-10327912D02*
X14905815Y-10156484D01*
X15086768Y-10346960D02*
X15067720Y-10356484D01*
X15067720Y-10356484D02*
X15029625Y-10356484D01*
X15029625Y-10356484D02*
X15010577Y-10346960D01*
X15010577Y-10346960D02*
X15001053Y-10327912D01*
X15001053Y-10327912D02*
X15001053Y-10251722D01*
X15001053Y-10251722D02*
X15010577Y-10232674D01*
X15010577Y-10232674D02*
X15029625Y-10223150D01*
X15029625Y-10223150D02*
X15067720Y-10223150D01*
X15067720Y-10223150D02*
X15086768Y-10232674D01*
X15086768Y-10232674D02*
X15096291Y-10251722D01*
X15096291Y-10251722D02*
X15096291Y-10270770D01*
X15096291Y-10270770D02*
X15001053Y-10289817D01*
X15172482Y-10346960D02*
X15191530Y-10356484D01*
X15191530Y-10356484D02*
X15229625Y-10356484D01*
X15229625Y-10356484D02*
X15248672Y-10346960D01*
X15248672Y-10346960D02*
X15258196Y-10327912D01*
X15258196Y-10327912D02*
X15258196Y-10318389D01*
X15258196Y-10318389D02*
X15248672Y-10299341D01*
X15248672Y-10299341D02*
X15229625Y-10289817D01*
X15229625Y-10289817D02*
X15201053Y-10289817D01*
X15201053Y-10289817D02*
X15182006Y-10280293D01*
X15182006Y-10280293D02*
X15172482Y-10261246D01*
X15172482Y-10261246D02*
X15172482Y-10251722D01*
X15172482Y-10251722D02*
X15182006Y-10232674D01*
X15182006Y-10232674D02*
X15201053Y-10223150D01*
X15201053Y-10223150D02*
X15229625Y-10223150D01*
X15229625Y-10223150D02*
X15248672Y-10232674D01*
X15324863Y-10432674D02*
X15334387Y-10423150D01*
X15334387Y-10423150D02*
X15353434Y-10394579D01*
X15353434Y-10394579D02*
X15362958Y-10375531D01*
X15362958Y-10375531D02*
X15372482Y-10346960D01*
X15372482Y-10346960D02*
X15382006Y-10299341D01*
X15382006Y-10299341D02*
X15382006Y-10261246D01*
X15382006Y-10261246D02*
X15372482Y-10213627D01*
X15372482Y-10213627D02*
X15362958Y-10185055D01*
X15362958Y-10185055D02*
X15353434Y-10166008D01*
X15353434Y-10166008D02*
X15334387Y-10137436D01*
X15334387Y-10137436D02*
X15324863Y-10127912D01*
D10*
X10549800Y-10529000D02*
G75*
G03*
X10549800Y-10529000I-37500J0D01*
G01*
D11*
X10848672Y-10420484D02*
X10867720Y-10420484D01*
X10867720Y-10420484D02*
X10886767Y-10430008D01*
X10886767Y-10430008D02*
X10896291Y-10439531D01*
X10896291Y-10439531D02*
X10905815Y-10458579D01*
X10905815Y-10458579D02*
X10915339Y-10496674D01*
X10915339Y-10496674D02*
X10915339Y-10544293D01*
X10915339Y-10544293D02*
X10905815Y-10582389D01*
X10905815Y-10582389D02*
X10896291Y-10601436D01*
X10896291Y-10601436D02*
X10886767Y-10610960D01*
X10886767Y-10610960D02*
X10867720Y-10620484D01*
X10867720Y-10620484D02*
X10848672Y-10620484D01*
X10848672Y-10620484D02*
X10829624Y-10610960D01*
X10829624Y-10610960D02*
X10820101Y-10601436D01*
X10820101Y-10601436D02*
X10810577Y-10582389D01*
X10810577Y-10582389D02*
X10801053Y-10544293D01*
X10801053Y-10544293D02*
X10801053Y-10496674D01*
X10801053Y-10496674D02*
X10810577Y-10458579D01*
X10810577Y-10458579D02*
X10820101Y-10439531D01*
X10820101Y-10439531D02*
X10829624Y-10430008D01*
X10829624Y-10430008D02*
X10848672Y-10420484D01*
X11001053Y-10601436D02*
X11010577Y-10610960D01*
X11010577Y-10610960D02*
X11001053Y-10620484D01*
X11001053Y-10620484D02*
X10991529Y-10610960D01*
X10991529Y-10610960D02*
X11001053Y-10601436D01*
X11001053Y-10601436D02*
X11001053Y-10620484D01*
X11077244Y-10420484D02*
X11210577Y-10420484D01*
X11210577Y-10420484D02*
X11124863Y-10620484D01*
X11382005Y-10420484D02*
X11286767Y-10420484D01*
X11286767Y-10420484D02*
X11277243Y-10515722D01*
X11277243Y-10515722D02*
X11286767Y-10506198D01*
X11286767Y-10506198D02*
X11305815Y-10496674D01*
X11305815Y-10496674D02*
X11353434Y-10496674D01*
X11353434Y-10496674D02*
X11372482Y-10506198D01*
X11372482Y-10506198D02*
X11382005Y-10515722D01*
X11382005Y-10515722D02*
X11391529Y-10534770D01*
X11391529Y-10534770D02*
X11391529Y-10582389D01*
X11391529Y-10582389D02*
X11382005Y-10601436D01*
X11382005Y-10601436D02*
X11372482Y-10610960D01*
X11372482Y-10610960D02*
X11353434Y-10620484D01*
X11353434Y-10620484D02*
X11305815Y-10620484D01*
X11305815Y-10620484D02*
X11286767Y-10610960D01*
X11286767Y-10610960D02*
X11277243Y-10601436D01*
X11515339Y-10420484D02*
X11534386Y-10420484D01*
X11534386Y-10420484D02*
X11553434Y-10430008D01*
X11553434Y-10430008D02*
X11562958Y-10439531D01*
X11562958Y-10439531D02*
X11572482Y-10458579D01*
X11572482Y-10458579D02*
X11582005Y-10496674D01*
X11582005Y-10496674D02*
X11582005Y-10544293D01*
X11582005Y-10544293D02*
X11572482Y-10582389D01*
X11572482Y-10582389D02*
X11562958Y-10601436D01*
X11562958Y-10601436D02*
X11553434Y-10610960D01*
X11553434Y-10610960D02*
X11534386Y-10620484D01*
X11534386Y-10620484D02*
X11515339Y-10620484D01*
X11515339Y-10620484D02*
X11496291Y-10610960D01*
X11496291Y-10610960D02*
X11486767Y-10601436D01*
X11486767Y-10601436D02*
X11477243Y-10582389D01*
X11477243Y-10582389D02*
X11467720Y-10544293D01*
X11467720Y-10544293D02*
X11467720Y-10496674D01*
X11467720Y-10496674D02*
X11477243Y-10458579D01*
X11477243Y-10458579D02*
X11486767Y-10439531D01*
X11486767Y-10439531D02*
X11496291Y-10430008D01*
X11496291Y-10430008D02*
X11515339Y-10420484D01*
X11667720Y-10620484D02*
X11667720Y-10487150D01*
X11667720Y-10506198D02*
X11677243Y-10496674D01*
X11677243Y-10496674D02*
X11696291Y-10487150D01*
X11696291Y-10487150D02*
X11724863Y-10487150D01*
X11724863Y-10487150D02*
X11743910Y-10496674D01*
X11743910Y-10496674D02*
X11753434Y-10515722D01*
X11753434Y-10515722D02*
X11753434Y-10620484D01*
X11753434Y-10515722D02*
X11762958Y-10496674D01*
X11762958Y-10496674D02*
X11782005Y-10487150D01*
X11782005Y-10487150D02*
X11810577Y-10487150D01*
X11810577Y-10487150D02*
X11829624Y-10496674D01*
X11829624Y-10496674D02*
X11839148Y-10515722D01*
X11839148Y-10515722D02*
X11839148Y-10620484D01*
X11934386Y-10620484D02*
X11934386Y-10487150D01*
X11934386Y-10506198D02*
X11943910Y-10496674D01*
X11943910Y-10496674D02*
X11962958Y-10487150D01*
X11962958Y-10487150D02*
X11991529Y-10487150D01*
X11991529Y-10487150D02*
X12010577Y-10496674D01*
X12010577Y-10496674D02*
X12020101Y-10515722D01*
X12020101Y-10515722D02*
X12020101Y-10620484D01*
X12020101Y-10515722D02*
X12029624Y-10496674D01*
X12029624Y-10496674D02*
X12048672Y-10487150D01*
X12048672Y-10487150D02*
X12077243Y-10487150D01*
X12077243Y-10487150D02*
X12096291Y-10496674D01*
X12096291Y-10496674D02*
X12105815Y-10515722D01*
X12105815Y-10515722D02*
X12105815Y-10620484D01*
X12496291Y-10410960D02*
X12324863Y-10668103D01*
X12753434Y-10420484D02*
X12772482Y-10420484D01*
X12772482Y-10420484D02*
X12791529Y-10430008D01*
X12791529Y-10430008D02*
X12801053Y-10439531D01*
X12801053Y-10439531D02*
X12810577Y-10458579D01*
X12810577Y-10458579D02*
X12820101Y-10496674D01*
X12820101Y-10496674D02*
X12820101Y-10544293D01*
X12820101Y-10544293D02*
X12810577Y-10582389D01*
X12810577Y-10582389D02*
X12801053Y-10601436D01*
X12801053Y-10601436D02*
X12791529Y-10610960D01*
X12791529Y-10610960D02*
X12772482Y-10620484D01*
X12772482Y-10620484D02*
X12753434Y-10620484D01*
X12753434Y-10620484D02*
X12734386Y-10610960D01*
X12734386Y-10610960D02*
X12724863Y-10601436D01*
X12724863Y-10601436D02*
X12715339Y-10582389D01*
X12715339Y-10582389D02*
X12705815Y-10544293D01*
X12705815Y-10544293D02*
X12705815Y-10496674D01*
X12705815Y-10496674D02*
X12715339Y-10458579D01*
X12715339Y-10458579D02*
X12724863Y-10439531D01*
X12724863Y-10439531D02*
X12734386Y-10430008D01*
X12734386Y-10430008D02*
X12753434Y-10420484D01*
X12905815Y-10601436D02*
X12915339Y-10610960D01*
X12915339Y-10610960D02*
X12905815Y-10620484D01*
X12905815Y-10620484D02*
X12896291Y-10610960D01*
X12896291Y-10610960D02*
X12905815Y-10601436D01*
X12905815Y-10601436D02*
X12905815Y-10620484D01*
X13039148Y-10420484D02*
X13058196Y-10420484D01*
X13058196Y-10420484D02*
X13077244Y-10430008D01*
X13077244Y-10430008D02*
X13086767Y-10439531D01*
X13086767Y-10439531D02*
X13096291Y-10458579D01*
X13096291Y-10458579D02*
X13105815Y-10496674D01*
X13105815Y-10496674D02*
X13105815Y-10544293D01*
X13105815Y-10544293D02*
X13096291Y-10582389D01*
X13096291Y-10582389D02*
X13086767Y-10601436D01*
X13086767Y-10601436D02*
X13077244Y-10610960D01*
X13077244Y-10610960D02*
X13058196Y-10620484D01*
X13058196Y-10620484D02*
X13039148Y-10620484D01*
X13039148Y-10620484D02*
X13020101Y-10610960D01*
X13020101Y-10610960D02*
X13010577Y-10601436D01*
X13010577Y-10601436D02*
X13001053Y-10582389D01*
X13001053Y-10582389D02*
X12991529Y-10544293D01*
X12991529Y-10544293D02*
X12991529Y-10496674D01*
X12991529Y-10496674D02*
X13001053Y-10458579D01*
X13001053Y-10458579D02*
X13010577Y-10439531D01*
X13010577Y-10439531D02*
X13020101Y-10430008D01*
X13020101Y-10430008D02*
X13039148Y-10420484D01*
X13182006Y-10439531D02*
X13191529Y-10430008D01*
X13191529Y-10430008D02*
X13210577Y-10420484D01*
X13210577Y-10420484D02*
X13258196Y-10420484D01*
X13258196Y-10420484D02*
X13277244Y-10430008D01*
X13277244Y-10430008D02*
X13286767Y-10439531D01*
X13286767Y-10439531D02*
X13296291Y-10458579D01*
X13296291Y-10458579D02*
X13296291Y-10477627D01*
X13296291Y-10477627D02*
X13286767Y-10506198D01*
X13286767Y-10506198D02*
X13172482Y-10620484D01*
X13172482Y-10620484D02*
X13296291Y-10620484D01*
X13391529Y-10620484D02*
X13429625Y-10620484D01*
X13429625Y-10620484D02*
X13448672Y-10610960D01*
X13448672Y-10610960D02*
X13458196Y-10601436D01*
X13458196Y-10601436D02*
X13477244Y-10572865D01*
X13477244Y-10572865D02*
X13486767Y-10534770D01*
X13486767Y-10534770D02*
X13486767Y-10458579D01*
X13486767Y-10458579D02*
X13477244Y-10439531D01*
X13477244Y-10439531D02*
X13467720Y-10430008D01*
X13467720Y-10430008D02*
X13448672Y-10420484D01*
X13448672Y-10420484D02*
X13410577Y-10420484D01*
X13410577Y-10420484D02*
X13391529Y-10430008D01*
X13391529Y-10430008D02*
X13382006Y-10439531D01*
X13382006Y-10439531D02*
X13372482Y-10458579D01*
X13372482Y-10458579D02*
X13372482Y-10506198D01*
X13372482Y-10506198D02*
X13382006Y-10525246D01*
X13382006Y-10525246D02*
X13391529Y-10534770D01*
X13391529Y-10534770D02*
X13410577Y-10544293D01*
X13410577Y-10544293D02*
X13448672Y-10544293D01*
X13448672Y-10544293D02*
X13467720Y-10534770D01*
X13467720Y-10534770D02*
X13477244Y-10525246D01*
X13477244Y-10525246D02*
X13486767Y-10506198D01*
X13667720Y-10420484D02*
X13572482Y-10420484D01*
X13572482Y-10420484D02*
X13562958Y-10515722D01*
X13562958Y-10515722D02*
X13572482Y-10506198D01*
X13572482Y-10506198D02*
X13591529Y-10496674D01*
X13591529Y-10496674D02*
X13639148Y-10496674D01*
X13639148Y-10496674D02*
X13658196Y-10506198D01*
X13658196Y-10506198D02*
X13667720Y-10515722D01*
X13667720Y-10515722D02*
X13677244Y-10534770D01*
X13677244Y-10534770D02*
X13677244Y-10582389D01*
X13677244Y-10582389D02*
X13667720Y-10601436D01*
X13667720Y-10601436D02*
X13658196Y-10610960D01*
X13658196Y-10610960D02*
X13639148Y-10620484D01*
X13639148Y-10620484D02*
X13591529Y-10620484D01*
X13591529Y-10620484D02*
X13572482Y-10610960D01*
X13572482Y-10610960D02*
X13562958Y-10601436D01*
X13753434Y-10420484D02*
X13753434Y-10458579D01*
X13829625Y-10420484D02*
X13829625Y-10458579D01*
X14124863Y-10696674D02*
X14115339Y-10687150D01*
X14115339Y-10687150D02*
X14096291Y-10658579D01*
X14096291Y-10658579D02*
X14086768Y-10639531D01*
X14086768Y-10639531D02*
X14077244Y-10610960D01*
X14077244Y-10610960D02*
X14067720Y-10563341D01*
X14067720Y-10563341D02*
X14067720Y-10525246D01*
X14067720Y-10525246D02*
X14077244Y-10477627D01*
X14077244Y-10477627D02*
X14086768Y-10449055D01*
X14086768Y-10449055D02*
X14096291Y-10430008D01*
X14096291Y-10430008D02*
X14115339Y-10401436D01*
X14115339Y-10401436D02*
X14124863Y-10391912D01*
X14286768Y-10420484D02*
X14248672Y-10420484D01*
X14248672Y-10420484D02*
X14229625Y-10430008D01*
X14229625Y-10430008D02*
X14220101Y-10439531D01*
X14220101Y-10439531D02*
X14201053Y-10468103D01*
X14201053Y-10468103D02*
X14191529Y-10506198D01*
X14191529Y-10506198D02*
X14191529Y-10582389D01*
X14191529Y-10582389D02*
X14201053Y-10601436D01*
X14201053Y-10601436D02*
X14210577Y-10610960D01*
X14210577Y-10610960D02*
X14229625Y-10620484D01*
X14229625Y-10620484D02*
X14267720Y-10620484D01*
X14267720Y-10620484D02*
X14286768Y-10610960D01*
X14286768Y-10610960D02*
X14296291Y-10601436D01*
X14296291Y-10601436D02*
X14305815Y-10582389D01*
X14305815Y-10582389D02*
X14305815Y-10534770D01*
X14305815Y-10534770D02*
X14296291Y-10515722D01*
X14296291Y-10515722D02*
X14286768Y-10506198D01*
X14286768Y-10506198D02*
X14267720Y-10496674D01*
X14267720Y-10496674D02*
X14229625Y-10496674D01*
X14229625Y-10496674D02*
X14210577Y-10506198D01*
X14210577Y-10506198D02*
X14201053Y-10515722D01*
X14201053Y-10515722D02*
X14191529Y-10534770D01*
X14543910Y-10620484D02*
X14543910Y-10420484D01*
X14629625Y-10620484D02*
X14629625Y-10515722D01*
X14629625Y-10515722D02*
X14620101Y-10496674D01*
X14620101Y-10496674D02*
X14601053Y-10487150D01*
X14601053Y-10487150D02*
X14572482Y-10487150D01*
X14572482Y-10487150D02*
X14553434Y-10496674D01*
X14553434Y-10496674D02*
X14543910Y-10506198D01*
X14753434Y-10620484D02*
X14734387Y-10610960D01*
X14734387Y-10610960D02*
X14724863Y-10601436D01*
X14724863Y-10601436D02*
X14715339Y-10582389D01*
X14715339Y-10582389D02*
X14715339Y-10525246D01*
X14715339Y-10525246D02*
X14724863Y-10506198D01*
X14724863Y-10506198D02*
X14734387Y-10496674D01*
X14734387Y-10496674D02*
X14753434Y-10487150D01*
X14753434Y-10487150D02*
X14782006Y-10487150D01*
X14782006Y-10487150D02*
X14801053Y-10496674D01*
X14801053Y-10496674D02*
X14810577Y-10506198D01*
X14810577Y-10506198D02*
X14820101Y-10525246D01*
X14820101Y-10525246D02*
X14820101Y-10582389D01*
X14820101Y-10582389D02*
X14810577Y-10601436D01*
X14810577Y-10601436D02*
X14801053Y-10610960D01*
X14801053Y-10610960D02*
X14782006Y-10620484D01*
X14782006Y-10620484D02*
X14753434Y-10620484D01*
X14934387Y-10620484D02*
X14915339Y-10610960D01*
X14915339Y-10610960D02*
X14905815Y-10591912D01*
X14905815Y-10591912D02*
X14905815Y-10420484D01*
X15086768Y-10610960D02*
X15067720Y-10620484D01*
X15067720Y-10620484D02*
X15029625Y-10620484D01*
X15029625Y-10620484D02*
X15010577Y-10610960D01*
X15010577Y-10610960D02*
X15001053Y-10591912D01*
X15001053Y-10591912D02*
X15001053Y-10515722D01*
X15001053Y-10515722D02*
X15010577Y-10496674D01*
X15010577Y-10496674D02*
X15029625Y-10487150D01*
X15029625Y-10487150D02*
X15067720Y-10487150D01*
X15067720Y-10487150D02*
X15086768Y-10496674D01*
X15086768Y-10496674D02*
X15096291Y-10515722D01*
X15096291Y-10515722D02*
X15096291Y-10534770D01*
X15096291Y-10534770D02*
X15001053Y-10553817D01*
X15172482Y-10610960D02*
X15191530Y-10620484D01*
X15191530Y-10620484D02*
X15229625Y-10620484D01*
X15229625Y-10620484D02*
X15248672Y-10610960D01*
X15248672Y-10610960D02*
X15258196Y-10591912D01*
X15258196Y-10591912D02*
X15258196Y-10582389D01*
X15258196Y-10582389D02*
X15248672Y-10563341D01*
X15248672Y-10563341D02*
X15229625Y-10553817D01*
X15229625Y-10553817D02*
X15201053Y-10553817D01*
X15201053Y-10553817D02*
X15182006Y-10544293D01*
X15182006Y-10544293D02*
X15172482Y-10525246D01*
X15172482Y-10525246D02*
X15172482Y-10515722D01*
X15172482Y-10515722D02*
X15182006Y-10496674D01*
X15182006Y-10496674D02*
X15201053Y-10487150D01*
X15201053Y-10487150D02*
X15229625Y-10487150D01*
X15229625Y-10487150D02*
X15248672Y-10496674D01*
X15324863Y-10696674D02*
X15334387Y-10687150D01*
X15334387Y-10687150D02*
X15353434Y-10658579D01*
X15353434Y-10658579D02*
X15362958Y-10639531D01*
X15362958Y-10639531D02*
X15372482Y-10610960D01*
X15372482Y-10610960D02*
X15382006Y-10563341D01*
X15382006Y-10563341D02*
X15382006Y-10525246D01*
X15382006Y-10525246D02*
X15372482Y-10477627D01*
X15372482Y-10477627D02*
X15362958Y-10449055D01*
X15362958Y-10449055D02*
X15353434Y-10430008D01*
X15353434Y-10430008D02*
X15334387Y-10401436D01*
X15334387Y-10401436D02*
X15324863Y-10391912D01*
D10*
X10509800Y-10753000D02*
X10509800Y-10833000D01*
X10469800Y-10793000D02*
X10549800Y-10793000D01*
D11*
X10848672Y-10684484D02*
X10867720Y-10684484D01*
X10867720Y-10684484D02*
X10886767Y-10694008D01*
X10886767Y-10694008D02*
X10896291Y-10703531D01*
X10896291Y-10703531D02*
X10905815Y-10722579D01*
X10905815Y-10722579D02*
X10915339Y-10760674D01*
X10915339Y-10760674D02*
X10915339Y-10808293D01*
X10915339Y-10808293D02*
X10905815Y-10846389D01*
X10905815Y-10846389D02*
X10896291Y-10865436D01*
X10896291Y-10865436D02*
X10886767Y-10874960D01*
X10886767Y-10874960D02*
X10867720Y-10884484D01*
X10867720Y-10884484D02*
X10848672Y-10884484D01*
X10848672Y-10884484D02*
X10829624Y-10874960D01*
X10829624Y-10874960D02*
X10820101Y-10865436D01*
X10820101Y-10865436D02*
X10810577Y-10846389D01*
X10810577Y-10846389D02*
X10801053Y-10808293D01*
X10801053Y-10808293D02*
X10801053Y-10760674D01*
X10801053Y-10760674D02*
X10810577Y-10722579D01*
X10810577Y-10722579D02*
X10820101Y-10703531D01*
X10820101Y-10703531D02*
X10829624Y-10694008D01*
X10829624Y-10694008D02*
X10848672Y-10684484D01*
X11001053Y-10865436D02*
X11010577Y-10874960D01*
X11010577Y-10874960D02*
X11001053Y-10884484D01*
X11001053Y-10884484D02*
X10991529Y-10874960D01*
X10991529Y-10874960D02*
X11001053Y-10865436D01*
X11001053Y-10865436D02*
X11001053Y-10884484D01*
X11124863Y-10770198D02*
X11105815Y-10760674D01*
X11105815Y-10760674D02*
X11096291Y-10751150D01*
X11096291Y-10751150D02*
X11086767Y-10732103D01*
X11086767Y-10732103D02*
X11086767Y-10722579D01*
X11086767Y-10722579D02*
X11096291Y-10703531D01*
X11096291Y-10703531D02*
X11105815Y-10694008D01*
X11105815Y-10694008D02*
X11124863Y-10684484D01*
X11124863Y-10684484D02*
X11162958Y-10684484D01*
X11162958Y-10684484D02*
X11182005Y-10694008D01*
X11182005Y-10694008D02*
X11191529Y-10703531D01*
X11191529Y-10703531D02*
X11201053Y-10722579D01*
X11201053Y-10722579D02*
X11201053Y-10732103D01*
X11201053Y-10732103D02*
X11191529Y-10751150D01*
X11191529Y-10751150D02*
X11182005Y-10760674D01*
X11182005Y-10760674D02*
X11162958Y-10770198D01*
X11162958Y-10770198D02*
X11124863Y-10770198D01*
X11124863Y-10770198D02*
X11105815Y-10779722D01*
X11105815Y-10779722D02*
X11096291Y-10789246D01*
X11096291Y-10789246D02*
X11086767Y-10808293D01*
X11086767Y-10808293D02*
X11086767Y-10846389D01*
X11086767Y-10846389D02*
X11096291Y-10865436D01*
X11096291Y-10865436D02*
X11105815Y-10874960D01*
X11105815Y-10874960D02*
X11124863Y-10884484D01*
X11124863Y-10884484D02*
X11162958Y-10884484D01*
X11162958Y-10884484D02*
X11182005Y-10874960D01*
X11182005Y-10874960D02*
X11191529Y-10865436D01*
X11191529Y-10865436D02*
X11201053Y-10846389D01*
X11201053Y-10846389D02*
X11201053Y-10808293D01*
X11201053Y-10808293D02*
X11191529Y-10789246D01*
X11191529Y-10789246D02*
X11182005Y-10779722D01*
X11182005Y-10779722D02*
X11162958Y-10770198D01*
X11324862Y-10684484D02*
X11343910Y-10684484D01*
X11343910Y-10684484D02*
X11362958Y-10694008D01*
X11362958Y-10694008D02*
X11372482Y-10703531D01*
X11372482Y-10703531D02*
X11382005Y-10722579D01*
X11382005Y-10722579D02*
X11391529Y-10760674D01*
X11391529Y-10760674D02*
X11391529Y-10808293D01*
X11391529Y-10808293D02*
X11382005Y-10846389D01*
X11382005Y-10846389D02*
X11372482Y-10865436D01*
X11372482Y-10865436D02*
X11362958Y-10874960D01*
X11362958Y-10874960D02*
X11343910Y-10884484D01*
X11343910Y-10884484D02*
X11324862Y-10884484D01*
X11324862Y-10884484D02*
X11305815Y-10874960D01*
X11305815Y-10874960D02*
X11296291Y-10865436D01*
X11296291Y-10865436D02*
X11286767Y-10846389D01*
X11286767Y-10846389D02*
X11277243Y-10808293D01*
X11277243Y-10808293D02*
X11277243Y-10760674D01*
X11277243Y-10760674D02*
X11286767Y-10722579D01*
X11286767Y-10722579D02*
X11296291Y-10703531D01*
X11296291Y-10703531D02*
X11305815Y-10694008D01*
X11305815Y-10694008D02*
X11324862Y-10684484D01*
X11515339Y-10684484D02*
X11534386Y-10684484D01*
X11534386Y-10684484D02*
X11553434Y-10694008D01*
X11553434Y-10694008D02*
X11562958Y-10703531D01*
X11562958Y-10703531D02*
X11572482Y-10722579D01*
X11572482Y-10722579D02*
X11582005Y-10760674D01*
X11582005Y-10760674D02*
X11582005Y-10808293D01*
X11582005Y-10808293D02*
X11572482Y-10846389D01*
X11572482Y-10846389D02*
X11562958Y-10865436D01*
X11562958Y-10865436D02*
X11553434Y-10874960D01*
X11553434Y-10874960D02*
X11534386Y-10884484D01*
X11534386Y-10884484D02*
X11515339Y-10884484D01*
X11515339Y-10884484D02*
X11496291Y-10874960D01*
X11496291Y-10874960D02*
X11486767Y-10865436D01*
X11486767Y-10865436D02*
X11477243Y-10846389D01*
X11477243Y-10846389D02*
X11467720Y-10808293D01*
X11467720Y-10808293D02*
X11467720Y-10760674D01*
X11467720Y-10760674D02*
X11477243Y-10722579D01*
X11477243Y-10722579D02*
X11486767Y-10703531D01*
X11486767Y-10703531D02*
X11496291Y-10694008D01*
X11496291Y-10694008D02*
X11515339Y-10684484D01*
X11667720Y-10884484D02*
X11667720Y-10751150D01*
X11667720Y-10770198D02*
X11677243Y-10760674D01*
X11677243Y-10760674D02*
X11696291Y-10751150D01*
X11696291Y-10751150D02*
X11724863Y-10751150D01*
X11724863Y-10751150D02*
X11743910Y-10760674D01*
X11743910Y-10760674D02*
X11753434Y-10779722D01*
X11753434Y-10779722D02*
X11753434Y-10884484D01*
X11753434Y-10779722D02*
X11762958Y-10760674D01*
X11762958Y-10760674D02*
X11782005Y-10751150D01*
X11782005Y-10751150D02*
X11810577Y-10751150D01*
X11810577Y-10751150D02*
X11829624Y-10760674D01*
X11829624Y-10760674D02*
X11839148Y-10779722D01*
X11839148Y-10779722D02*
X11839148Y-10884484D01*
X11934386Y-10884484D02*
X11934386Y-10751150D01*
X11934386Y-10770198D02*
X11943910Y-10760674D01*
X11943910Y-10760674D02*
X11962958Y-10751150D01*
X11962958Y-10751150D02*
X11991529Y-10751150D01*
X11991529Y-10751150D02*
X12010577Y-10760674D01*
X12010577Y-10760674D02*
X12020101Y-10779722D01*
X12020101Y-10779722D02*
X12020101Y-10884484D01*
X12020101Y-10779722D02*
X12029624Y-10760674D01*
X12029624Y-10760674D02*
X12048672Y-10751150D01*
X12048672Y-10751150D02*
X12077243Y-10751150D01*
X12077243Y-10751150D02*
X12096291Y-10760674D01*
X12096291Y-10760674D02*
X12105815Y-10779722D01*
X12105815Y-10779722D02*
X12105815Y-10884484D01*
X12496291Y-10674960D02*
X12324863Y-10932103D01*
X12753434Y-10684484D02*
X12772482Y-10684484D01*
X12772482Y-10684484D02*
X12791529Y-10694008D01*
X12791529Y-10694008D02*
X12801053Y-10703531D01*
X12801053Y-10703531D02*
X12810577Y-10722579D01*
X12810577Y-10722579D02*
X12820101Y-10760674D01*
X12820101Y-10760674D02*
X12820101Y-10808293D01*
X12820101Y-10808293D02*
X12810577Y-10846389D01*
X12810577Y-10846389D02*
X12801053Y-10865436D01*
X12801053Y-10865436D02*
X12791529Y-10874960D01*
X12791529Y-10874960D02*
X12772482Y-10884484D01*
X12772482Y-10884484D02*
X12753434Y-10884484D01*
X12753434Y-10884484D02*
X12734386Y-10874960D01*
X12734386Y-10874960D02*
X12724863Y-10865436D01*
X12724863Y-10865436D02*
X12715339Y-10846389D01*
X12715339Y-10846389D02*
X12705815Y-10808293D01*
X12705815Y-10808293D02*
X12705815Y-10760674D01*
X12705815Y-10760674D02*
X12715339Y-10722579D01*
X12715339Y-10722579D02*
X12724863Y-10703531D01*
X12724863Y-10703531D02*
X12734386Y-10694008D01*
X12734386Y-10694008D02*
X12753434Y-10684484D01*
X12905815Y-10865436D02*
X12915339Y-10874960D01*
X12915339Y-10874960D02*
X12905815Y-10884484D01*
X12905815Y-10884484D02*
X12896291Y-10874960D01*
X12896291Y-10874960D02*
X12905815Y-10865436D01*
X12905815Y-10865436D02*
X12905815Y-10884484D01*
X13039148Y-10684484D02*
X13058196Y-10684484D01*
X13058196Y-10684484D02*
X13077244Y-10694008D01*
X13077244Y-10694008D02*
X13086767Y-10703531D01*
X13086767Y-10703531D02*
X13096291Y-10722579D01*
X13096291Y-10722579D02*
X13105815Y-10760674D01*
X13105815Y-10760674D02*
X13105815Y-10808293D01*
X13105815Y-10808293D02*
X13096291Y-10846389D01*
X13096291Y-10846389D02*
X13086767Y-10865436D01*
X13086767Y-10865436D02*
X13077244Y-10874960D01*
X13077244Y-10874960D02*
X13058196Y-10884484D01*
X13058196Y-10884484D02*
X13039148Y-10884484D01*
X13039148Y-10884484D02*
X13020101Y-10874960D01*
X13020101Y-10874960D02*
X13010577Y-10865436D01*
X13010577Y-10865436D02*
X13001053Y-10846389D01*
X13001053Y-10846389D02*
X12991529Y-10808293D01*
X12991529Y-10808293D02*
X12991529Y-10760674D01*
X12991529Y-10760674D02*
X13001053Y-10722579D01*
X13001053Y-10722579D02*
X13010577Y-10703531D01*
X13010577Y-10703531D02*
X13020101Y-10694008D01*
X13020101Y-10694008D02*
X13039148Y-10684484D01*
X13172482Y-10684484D02*
X13296291Y-10684484D01*
X13296291Y-10684484D02*
X13229625Y-10760674D01*
X13229625Y-10760674D02*
X13258196Y-10760674D01*
X13258196Y-10760674D02*
X13277244Y-10770198D01*
X13277244Y-10770198D02*
X13286767Y-10779722D01*
X13286767Y-10779722D02*
X13296291Y-10798770D01*
X13296291Y-10798770D02*
X13296291Y-10846389D01*
X13296291Y-10846389D02*
X13286767Y-10865436D01*
X13286767Y-10865436D02*
X13277244Y-10874960D01*
X13277244Y-10874960D02*
X13258196Y-10884484D01*
X13258196Y-10884484D02*
X13201053Y-10884484D01*
X13201053Y-10884484D02*
X13182006Y-10874960D01*
X13182006Y-10874960D02*
X13172482Y-10865436D01*
X13486767Y-10884484D02*
X13372482Y-10884484D01*
X13429625Y-10884484D02*
X13429625Y-10684484D01*
X13429625Y-10684484D02*
X13410577Y-10713055D01*
X13410577Y-10713055D02*
X13391529Y-10732103D01*
X13391529Y-10732103D02*
X13372482Y-10741627D01*
X13667720Y-10684484D02*
X13572482Y-10684484D01*
X13572482Y-10684484D02*
X13562958Y-10779722D01*
X13562958Y-10779722D02*
X13572482Y-10770198D01*
X13572482Y-10770198D02*
X13591529Y-10760674D01*
X13591529Y-10760674D02*
X13639148Y-10760674D01*
X13639148Y-10760674D02*
X13658196Y-10770198D01*
X13658196Y-10770198D02*
X13667720Y-10779722D01*
X13667720Y-10779722D02*
X13677244Y-10798770D01*
X13677244Y-10798770D02*
X13677244Y-10846389D01*
X13677244Y-10846389D02*
X13667720Y-10865436D01*
X13667720Y-10865436D02*
X13658196Y-10874960D01*
X13658196Y-10874960D02*
X13639148Y-10884484D01*
X13639148Y-10884484D02*
X13591529Y-10884484D01*
X13591529Y-10884484D02*
X13572482Y-10874960D01*
X13572482Y-10874960D02*
X13562958Y-10865436D01*
X13753434Y-10684484D02*
X13753434Y-10722579D01*
X13829625Y-10684484D02*
X13829625Y-10722579D01*
X14124863Y-10960674D02*
X14115339Y-10951150D01*
X14115339Y-10951150D02*
X14096291Y-10922579D01*
X14096291Y-10922579D02*
X14086768Y-10903531D01*
X14086768Y-10903531D02*
X14077244Y-10874960D01*
X14077244Y-10874960D02*
X14067720Y-10827341D01*
X14067720Y-10827341D02*
X14067720Y-10789246D01*
X14067720Y-10789246D02*
X14077244Y-10741627D01*
X14077244Y-10741627D02*
X14086768Y-10713055D01*
X14086768Y-10713055D02*
X14096291Y-10694008D01*
X14096291Y-10694008D02*
X14115339Y-10665436D01*
X14115339Y-10665436D02*
X14124863Y-10655912D01*
X14191529Y-10703531D02*
X14201053Y-10694008D01*
X14201053Y-10694008D02*
X14220101Y-10684484D01*
X14220101Y-10684484D02*
X14267720Y-10684484D01*
X14267720Y-10684484D02*
X14286768Y-10694008D01*
X14286768Y-10694008D02*
X14296291Y-10703531D01*
X14296291Y-10703531D02*
X14305815Y-10722579D01*
X14305815Y-10722579D02*
X14305815Y-10741627D01*
X14305815Y-10741627D02*
X14296291Y-10770198D01*
X14296291Y-10770198D02*
X14182006Y-10884484D01*
X14182006Y-10884484D02*
X14305815Y-10884484D01*
X14477244Y-10751150D02*
X14477244Y-10884484D01*
X14429625Y-10674960D02*
X14382006Y-10817817D01*
X14382006Y-10817817D02*
X14505815Y-10817817D01*
X14734387Y-10884484D02*
X14734387Y-10684484D01*
X14820101Y-10884484D02*
X14820101Y-10779722D01*
X14820101Y-10779722D02*
X14810577Y-10760674D01*
X14810577Y-10760674D02*
X14791530Y-10751150D01*
X14791530Y-10751150D02*
X14762958Y-10751150D01*
X14762958Y-10751150D02*
X14743910Y-10760674D01*
X14743910Y-10760674D02*
X14734387Y-10770198D01*
X14943910Y-10884484D02*
X14924863Y-10874960D01*
X14924863Y-10874960D02*
X14915339Y-10865436D01*
X14915339Y-10865436D02*
X14905815Y-10846389D01*
X14905815Y-10846389D02*
X14905815Y-10789246D01*
X14905815Y-10789246D02*
X14915339Y-10770198D01*
X14915339Y-10770198D02*
X14924863Y-10760674D01*
X14924863Y-10760674D02*
X14943910Y-10751150D01*
X14943910Y-10751150D02*
X14972482Y-10751150D01*
X14972482Y-10751150D02*
X14991530Y-10760674D01*
X14991530Y-10760674D02*
X15001053Y-10770198D01*
X15001053Y-10770198D02*
X15010577Y-10789246D01*
X15010577Y-10789246D02*
X15010577Y-10846389D01*
X15010577Y-10846389D02*
X15001053Y-10865436D01*
X15001053Y-10865436D02*
X14991530Y-10874960D01*
X14991530Y-10874960D02*
X14972482Y-10884484D01*
X14972482Y-10884484D02*
X14943910Y-10884484D01*
X15124863Y-10884484D02*
X15105815Y-10874960D01*
X15105815Y-10874960D02*
X15096291Y-10855912D01*
X15096291Y-10855912D02*
X15096291Y-10684484D01*
X15277244Y-10874960D02*
X15258196Y-10884484D01*
X15258196Y-10884484D02*
X15220101Y-10884484D01*
X15220101Y-10884484D02*
X15201053Y-10874960D01*
X15201053Y-10874960D02*
X15191530Y-10855912D01*
X15191530Y-10855912D02*
X15191530Y-10779722D01*
X15191530Y-10779722D02*
X15201053Y-10760674D01*
X15201053Y-10760674D02*
X15220101Y-10751150D01*
X15220101Y-10751150D02*
X15258196Y-10751150D01*
X15258196Y-10751150D02*
X15277244Y-10760674D01*
X15277244Y-10760674D02*
X15286768Y-10779722D01*
X15286768Y-10779722D02*
X15286768Y-10798770D01*
X15286768Y-10798770D02*
X15191530Y-10817817D01*
X15362958Y-10874960D02*
X15382006Y-10884484D01*
X15382006Y-10884484D02*
X15420101Y-10884484D01*
X15420101Y-10884484D02*
X15439149Y-10874960D01*
X15439149Y-10874960D02*
X15448672Y-10855912D01*
X15448672Y-10855912D02*
X15448672Y-10846389D01*
X15448672Y-10846389D02*
X15439149Y-10827341D01*
X15439149Y-10827341D02*
X15420101Y-10817817D01*
X15420101Y-10817817D02*
X15391530Y-10817817D01*
X15391530Y-10817817D02*
X15372482Y-10808293D01*
X15372482Y-10808293D02*
X15362958Y-10789246D01*
X15362958Y-10789246D02*
X15362958Y-10779722D01*
X15362958Y-10779722D02*
X15372482Y-10760674D01*
X15372482Y-10760674D02*
X15391530Y-10751150D01*
X15391530Y-10751150D02*
X15420101Y-10751150D01*
X15420101Y-10751150D02*
X15439149Y-10760674D01*
X15515339Y-10960674D02*
X15524863Y-10951150D01*
X15524863Y-10951150D02*
X15543911Y-10922579D01*
X15543911Y-10922579D02*
X15553434Y-10903531D01*
X15553434Y-10903531D02*
X15562958Y-10874960D01*
X15562958Y-10874960D02*
X15572482Y-10827341D01*
X15572482Y-10827341D02*
X15572482Y-10789246D01*
X15572482Y-10789246D02*
X15562958Y-10741627D01*
X15562958Y-10741627D02*
X15553434Y-10713055D01*
X15553434Y-10713055D02*
X15543911Y-10694008D01*
X15543911Y-10694008D02*
X15524863Y-10665436D01*
X15524863Y-10665436D02*
X15515339Y-10655912D01*
D10*
X10535156Y-11092356D02*
X10535156Y-11021644D01*
X10464444Y-11021644D01*
X10464444Y-11092356D01*
X10535156Y-11092356D01*
D11*
X10915339Y-11148484D02*
X10801053Y-11148484D01*
X10858196Y-11148484D02*
X10858196Y-10948484D01*
X10858196Y-10948484D02*
X10839148Y-10977055D01*
X10839148Y-10977055D02*
X10820101Y-10996103D01*
X10820101Y-10996103D02*
X10801053Y-11005627D01*
X11001053Y-11129436D02*
X11010577Y-11138960D01*
X11010577Y-11138960D02*
X11001053Y-11148484D01*
X11001053Y-11148484D02*
X10991529Y-11138960D01*
X10991529Y-11138960D02*
X11001053Y-11129436D01*
X11001053Y-11129436D02*
X11001053Y-11148484D01*
X11134386Y-10948484D02*
X11153434Y-10948484D01*
X11153434Y-10948484D02*
X11172482Y-10958008D01*
X11172482Y-10958008D02*
X11182005Y-10967531D01*
X11182005Y-10967531D02*
X11191529Y-10986579D01*
X11191529Y-10986579D02*
X11201053Y-11024674D01*
X11201053Y-11024674D02*
X11201053Y-11072293D01*
X11201053Y-11072293D02*
X11191529Y-11110389D01*
X11191529Y-11110389D02*
X11182005Y-11129436D01*
X11182005Y-11129436D02*
X11172482Y-11138960D01*
X11172482Y-11138960D02*
X11153434Y-11148484D01*
X11153434Y-11148484D02*
X11134386Y-11148484D01*
X11134386Y-11148484D02*
X11115339Y-11138960D01*
X11115339Y-11138960D02*
X11105815Y-11129436D01*
X11105815Y-11129436D02*
X11096291Y-11110389D01*
X11096291Y-11110389D02*
X11086767Y-11072293D01*
X11086767Y-11072293D02*
X11086767Y-11024674D01*
X11086767Y-11024674D02*
X11096291Y-10986579D01*
X11096291Y-10986579D02*
X11105815Y-10967531D01*
X11105815Y-10967531D02*
X11115339Y-10958008D01*
X11115339Y-10958008D02*
X11134386Y-10948484D01*
X11324862Y-10948484D02*
X11343910Y-10948484D01*
X11343910Y-10948484D02*
X11362958Y-10958008D01*
X11362958Y-10958008D02*
X11372482Y-10967531D01*
X11372482Y-10967531D02*
X11382005Y-10986579D01*
X11382005Y-10986579D02*
X11391529Y-11024674D01*
X11391529Y-11024674D02*
X11391529Y-11072293D01*
X11391529Y-11072293D02*
X11382005Y-11110389D01*
X11382005Y-11110389D02*
X11372482Y-11129436D01*
X11372482Y-11129436D02*
X11362958Y-11138960D01*
X11362958Y-11138960D02*
X11343910Y-11148484D01*
X11343910Y-11148484D02*
X11324862Y-11148484D01*
X11324862Y-11148484D02*
X11305815Y-11138960D01*
X11305815Y-11138960D02*
X11296291Y-11129436D01*
X11296291Y-11129436D02*
X11286767Y-11110389D01*
X11286767Y-11110389D02*
X11277243Y-11072293D01*
X11277243Y-11072293D02*
X11277243Y-11024674D01*
X11277243Y-11024674D02*
X11286767Y-10986579D01*
X11286767Y-10986579D02*
X11296291Y-10967531D01*
X11296291Y-10967531D02*
X11305815Y-10958008D01*
X11305815Y-10958008D02*
X11324862Y-10948484D01*
X11515339Y-10948484D02*
X11534386Y-10948484D01*
X11534386Y-10948484D02*
X11553434Y-10958008D01*
X11553434Y-10958008D02*
X11562958Y-10967531D01*
X11562958Y-10967531D02*
X11572482Y-10986579D01*
X11572482Y-10986579D02*
X11582005Y-11024674D01*
X11582005Y-11024674D02*
X11582005Y-11072293D01*
X11582005Y-11072293D02*
X11572482Y-11110389D01*
X11572482Y-11110389D02*
X11562958Y-11129436D01*
X11562958Y-11129436D02*
X11553434Y-11138960D01*
X11553434Y-11138960D02*
X11534386Y-11148484D01*
X11534386Y-11148484D02*
X11515339Y-11148484D01*
X11515339Y-11148484D02*
X11496291Y-11138960D01*
X11496291Y-11138960D02*
X11486767Y-11129436D01*
X11486767Y-11129436D02*
X11477243Y-11110389D01*
X11477243Y-11110389D02*
X11467720Y-11072293D01*
X11467720Y-11072293D02*
X11467720Y-11024674D01*
X11467720Y-11024674D02*
X11477243Y-10986579D01*
X11477243Y-10986579D02*
X11486767Y-10967531D01*
X11486767Y-10967531D02*
X11496291Y-10958008D01*
X11496291Y-10958008D02*
X11515339Y-10948484D01*
X11667720Y-11148484D02*
X11667720Y-11015150D01*
X11667720Y-11034198D02*
X11677243Y-11024674D01*
X11677243Y-11024674D02*
X11696291Y-11015150D01*
X11696291Y-11015150D02*
X11724863Y-11015150D01*
X11724863Y-11015150D02*
X11743910Y-11024674D01*
X11743910Y-11024674D02*
X11753434Y-11043722D01*
X11753434Y-11043722D02*
X11753434Y-11148484D01*
X11753434Y-11043722D02*
X11762958Y-11024674D01*
X11762958Y-11024674D02*
X11782005Y-11015150D01*
X11782005Y-11015150D02*
X11810577Y-11015150D01*
X11810577Y-11015150D02*
X11829624Y-11024674D01*
X11829624Y-11024674D02*
X11839148Y-11043722D01*
X11839148Y-11043722D02*
X11839148Y-11148484D01*
X11934386Y-11148484D02*
X11934386Y-11015150D01*
X11934386Y-11034198D02*
X11943910Y-11024674D01*
X11943910Y-11024674D02*
X11962958Y-11015150D01*
X11962958Y-11015150D02*
X11991529Y-11015150D01*
X11991529Y-11015150D02*
X12010577Y-11024674D01*
X12010577Y-11024674D02*
X12020101Y-11043722D01*
X12020101Y-11043722D02*
X12020101Y-11148484D01*
X12020101Y-11043722D02*
X12029624Y-11024674D01*
X12029624Y-11024674D02*
X12048672Y-11015150D01*
X12048672Y-11015150D02*
X12077243Y-11015150D01*
X12077243Y-11015150D02*
X12096291Y-11024674D01*
X12096291Y-11024674D02*
X12105815Y-11043722D01*
X12105815Y-11043722D02*
X12105815Y-11148484D01*
X12496291Y-10938960D02*
X12324863Y-11196103D01*
X12753434Y-10948484D02*
X12772482Y-10948484D01*
X12772482Y-10948484D02*
X12791529Y-10958008D01*
X12791529Y-10958008D02*
X12801053Y-10967531D01*
X12801053Y-10967531D02*
X12810577Y-10986579D01*
X12810577Y-10986579D02*
X12820101Y-11024674D01*
X12820101Y-11024674D02*
X12820101Y-11072293D01*
X12820101Y-11072293D02*
X12810577Y-11110389D01*
X12810577Y-11110389D02*
X12801053Y-11129436D01*
X12801053Y-11129436D02*
X12791529Y-11138960D01*
X12791529Y-11138960D02*
X12772482Y-11148484D01*
X12772482Y-11148484D02*
X12753434Y-11148484D01*
X12753434Y-11148484D02*
X12734386Y-11138960D01*
X12734386Y-11138960D02*
X12724863Y-11129436D01*
X12724863Y-11129436D02*
X12715339Y-11110389D01*
X12715339Y-11110389D02*
X12705815Y-11072293D01*
X12705815Y-11072293D02*
X12705815Y-11024674D01*
X12705815Y-11024674D02*
X12715339Y-10986579D01*
X12715339Y-10986579D02*
X12724863Y-10967531D01*
X12724863Y-10967531D02*
X12734386Y-10958008D01*
X12734386Y-10958008D02*
X12753434Y-10948484D01*
X12905815Y-11129436D02*
X12915339Y-11138960D01*
X12915339Y-11138960D02*
X12905815Y-11148484D01*
X12905815Y-11148484D02*
X12896291Y-11138960D01*
X12896291Y-11138960D02*
X12905815Y-11129436D01*
X12905815Y-11129436D02*
X12905815Y-11148484D01*
X13039148Y-10948484D02*
X13058196Y-10948484D01*
X13058196Y-10948484D02*
X13077244Y-10958008D01*
X13077244Y-10958008D02*
X13086767Y-10967531D01*
X13086767Y-10967531D02*
X13096291Y-10986579D01*
X13096291Y-10986579D02*
X13105815Y-11024674D01*
X13105815Y-11024674D02*
X13105815Y-11072293D01*
X13105815Y-11072293D02*
X13096291Y-11110389D01*
X13096291Y-11110389D02*
X13086767Y-11129436D01*
X13086767Y-11129436D02*
X13077244Y-11138960D01*
X13077244Y-11138960D02*
X13058196Y-11148484D01*
X13058196Y-11148484D02*
X13039148Y-11148484D01*
X13039148Y-11148484D02*
X13020101Y-11138960D01*
X13020101Y-11138960D02*
X13010577Y-11129436D01*
X13010577Y-11129436D02*
X13001053Y-11110389D01*
X13001053Y-11110389D02*
X12991529Y-11072293D01*
X12991529Y-11072293D02*
X12991529Y-11024674D01*
X12991529Y-11024674D02*
X13001053Y-10986579D01*
X13001053Y-10986579D02*
X13010577Y-10967531D01*
X13010577Y-10967531D02*
X13020101Y-10958008D01*
X13020101Y-10958008D02*
X13039148Y-10948484D01*
X13172482Y-10948484D02*
X13296291Y-10948484D01*
X13296291Y-10948484D02*
X13229625Y-11024674D01*
X13229625Y-11024674D02*
X13258196Y-11024674D01*
X13258196Y-11024674D02*
X13277244Y-11034198D01*
X13277244Y-11034198D02*
X13286767Y-11043722D01*
X13286767Y-11043722D02*
X13296291Y-11062770D01*
X13296291Y-11062770D02*
X13296291Y-11110389D01*
X13296291Y-11110389D02*
X13286767Y-11129436D01*
X13286767Y-11129436D02*
X13277244Y-11138960D01*
X13277244Y-11138960D02*
X13258196Y-11148484D01*
X13258196Y-11148484D02*
X13201053Y-11148484D01*
X13201053Y-11148484D02*
X13182006Y-11138960D01*
X13182006Y-11138960D02*
X13172482Y-11129436D01*
X13391529Y-11148484D02*
X13429625Y-11148484D01*
X13429625Y-11148484D02*
X13448672Y-11138960D01*
X13448672Y-11138960D02*
X13458196Y-11129436D01*
X13458196Y-11129436D02*
X13477244Y-11100865D01*
X13477244Y-11100865D02*
X13486767Y-11062770D01*
X13486767Y-11062770D02*
X13486767Y-10986579D01*
X13486767Y-10986579D02*
X13477244Y-10967531D01*
X13477244Y-10967531D02*
X13467720Y-10958008D01*
X13467720Y-10958008D02*
X13448672Y-10948484D01*
X13448672Y-10948484D02*
X13410577Y-10948484D01*
X13410577Y-10948484D02*
X13391529Y-10958008D01*
X13391529Y-10958008D02*
X13382006Y-10967531D01*
X13382006Y-10967531D02*
X13372482Y-10986579D01*
X13372482Y-10986579D02*
X13372482Y-11034198D01*
X13372482Y-11034198D02*
X13382006Y-11053246D01*
X13382006Y-11053246D02*
X13391529Y-11062770D01*
X13391529Y-11062770D02*
X13410577Y-11072293D01*
X13410577Y-11072293D02*
X13448672Y-11072293D01*
X13448672Y-11072293D02*
X13467720Y-11062770D01*
X13467720Y-11062770D02*
X13477244Y-11053246D01*
X13477244Y-11053246D02*
X13486767Y-11034198D01*
X13658196Y-11015150D02*
X13658196Y-11148484D01*
X13610577Y-10938960D02*
X13562958Y-11081817D01*
X13562958Y-11081817D02*
X13686767Y-11081817D01*
X13753434Y-10948484D02*
X13753434Y-10986579D01*
X13829625Y-10948484D02*
X13829625Y-10986579D01*
X14124863Y-11224674D02*
X14115339Y-11215150D01*
X14115339Y-11215150D02*
X14096291Y-11186579D01*
X14096291Y-11186579D02*
X14086768Y-11167531D01*
X14086768Y-11167531D02*
X14077244Y-11138960D01*
X14077244Y-11138960D02*
X14067720Y-11091341D01*
X14067720Y-11091341D02*
X14067720Y-11053246D01*
X14067720Y-11053246D02*
X14077244Y-11005627D01*
X14077244Y-11005627D02*
X14086768Y-10977055D01*
X14086768Y-10977055D02*
X14096291Y-10958008D01*
X14096291Y-10958008D02*
X14115339Y-10929436D01*
X14115339Y-10929436D02*
X14124863Y-10919912D01*
X14191529Y-10967531D02*
X14201053Y-10958008D01*
X14201053Y-10958008D02*
X14220101Y-10948484D01*
X14220101Y-10948484D02*
X14267720Y-10948484D01*
X14267720Y-10948484D02*
X14286768Y-10958008D01*
X14286768Y-10958008D02*
X14296291Y-10967531D01*
X14296291Y-10967531D02*
X14305815Y-10986579D01*
X14305815Y-10986579D02*
X14305815Y-11005627D01*
X14305815Y-11005627D02*
X14296291Y-11034198D01*
X14296291Y-11034198D02*
X14182006Y-11148484D01*
X14182006Y-11148484D02*
X14305815Y-11148484D01*
X14543910Y-11148484D02*
X14543910Y-10948484D01*
X14629625Y-11148484D02*
X14629625Y-11043722D01*
X14629625Y-11043722D02*
X14620101Y-11024674D01*
X14620101Y-11024674D02*
X14601053Y-11015150D01*
X14601053Y-11015150D02*
X14572482Y-11015150D01*
X14572482Y-11015150D02*
X14553434Y-11024674D01*
X14553434Y-11024674D02*
X14543910Y-11034198D01*
X14753434Y-11148484D02*
X14734387Y-11138960D01*
X14734387Y-11138960D02*
X14724863Y-11129436D01*
X14724863Y-11129436D02*
X14715339Y-11110389D01*
X14715339Y-11110389D02*
X14715339Y-11053246D01*
X14715339Y-11053246D02*
X14724863Y-11034198D01*
X14724863Y-11034198D02*
X14734387Y-11024674D01*
X14734387Y-11024674D02*
X14753434Y-11015150D01*
X14753434Y-11015150D02*
X14782006Y-11015150D01*
X14782006Y-11015150D02*
X14801053Y-11024674D01*
X14801053Y-11024674D02*
X14810577Y-11034198D01*
X14810577Y-11034198D02*
X14820101Y-11053246D01*
X14820101Y-11053246D02*
X14820101Y-11110389D01*
X14820101Y-11110389D02*
X14810577Y-11129436D01*
X14810577Y-11129436D02*
X14801053Y-11138960D01*
X14801053Y-11138960D02*
X14782006Y-11148484D01*
X14782006Y-11148484D02*
X14753434Y-11148484D01*
X14934387Y-11148484D02*
X14915339Y-11138960D01*
X14915339Y-11138960D02*
X14905815Y-11119912D01*
X14905815Y-11119912D02*
X14905815Y-10948484D01*
X15086768Y-11138960D02*
X15067720Y-11148484D01*
X15067720Y-11148484D02*
X15029625Y-11148484D01*
X15029625Y-11148484D02*
X15010577Y-11138960D01*
X15010577Y-11138960D02*
X15001053Y-11119912D01*
X15001053Y-11119912D02*
X15001053Y-11043722D01*
X15001053Y-11043722D02*
X15010577Y-11024674D01*
X15010577Y-11024674D02*
X15029625Y-11015150D01*
X15029625Y-11015150D02*
X15067720Y-11015150D01*
X15067720Y-11015150D02*
X15086768Y-11024674D01*
X15086768Y-11024674D02*
X15096291Y-11043722D01*
X15096291Y-11043722D02*
X15096291Y-11062770D01*
X15096291Y-11062770D02*
X15001053Y-11081817D01*
X15172482Y-11138960D02*
X15191530Y-11148484D01*
X15191530Y-11148484D02*
X15229625Y-11148484D01*
X15229625Y-11148484D02*
X15248672Y-11138960D01*
X15248672Y-11138960D02*
X15258196Y-11119912D01*
X15258196Y-11119912D02*
X15258196Y-11110389D01*
X15258196Y-11110389D02*
X15248672Y-11091341D01*
X15248672Y-11091341D02*
X15229625Y-11081817D01*
X15229625Y-11081817D02*
X15201053Y-11081817D01*
X15201053Y-11081817D02*
X15182006Y-11072293D01*
X15182006Y-11072293D02*
X15172482Y-11053246D01*
X15172482Y-11053246D02*
X15172482Y-11043722D01*
X15172482Y-11043722D02*
X15182006Y-11024674D01*
X15182006Y-11024674D02*
X15201053Y-11015150D01*
X15201053Y-11015150D02*
X15229625Y-11015150D01*
X15229625Y-11015150D02*
X15248672Y-11024674D01*
X15324863Y-11224674D02*
X15334387Y-11215150D01*
X15334387Y-11215150D02*
X15353434Y-11186579D01*
X15353434Y-11186579D02*
X15362958Y-11167531D01*
X15362958Y-11167531D02*
X15372482Y-11138960D01*
X15372482Y-11138960D02*
X15382006Y-11091341D01*
X15382006Y-11091341D02*
X15382006Y-11053246D01*
X15382006Y-11053246D02*
X15372482Y-11005627D01*
X15372482Y-11005627D02*
X15362958Y-10977055D01*
X15362958Y-10977055D02*
X15353434Y-10958008D01*
X15353434Y-10958008D02*
X15334387Y-10929436D01*
X15334387Y-10929436D02*
X15324863Y-10919912D01*
D12*
X10498800Y-11372000D02*
X10549800Y-11321000D01*
X10498800Y-11270000D01*
X10447800Y-11321000D01*
X10498800Y-11372000D01*
D11*
X10915339Y-11412484D02*
X10801053Y-11412484D01*
X10858196Y-11412484D02*
X10858196Y-11212484D01*
X10858196Y-11212484D02*
X10839148Y-11241055D01*
X10839148Y-11241055D02*
X10820101Y-11260103D01*
X10820101Y-11260103D02*
X10801053Y-11269627D01*
X11001053Y-11393436D02*
X11010577Y-11402960D01*
X11010577Y-11402960D02*
X11001053Y-11412484D01*
X11001053Y-11412484D02*
X10991529Y-11402960D01*
X10991529Y-11402960D02*
X11001053Y-11393436D01*
X11001053Y-11393436D02*
X11001053Y-11412484D01*
X11134386Y-11212484D02*
X11153434Y-11212484D01*
X11153434Y-11212484D02*
X11172482Y-11222008D01*
X11172482Y-11222008D02*
X11182005Y-11231531D01*
X11182005Y-11231531D02*
X11191529Y-11250579D01*
X11191529Y-11250579D02*
X11201053Y-11288674D01*
X11201053Y-11288674D02*
X11201053Y-11336293D01*
X11201053Y-11336293D02*
X11191529Y-11374388D01*
X11191529Y-11374388D02*
X11182005Y-11393436D01*
X11182005Y-11393436D02*
X11172482Y-11402960D01*
X11172482Y-11402960D02*
X11153434Y-11412484D01*
X11153434Y-11412484D02*
X11134386Y-11412484D01*
X11134386Y-11412484D02*
X11115339Y-11402960D01*
X11115339Y-11402960D02*
X11105815Y-11393436D01*
X11105815Y-11393436D02*
X11096291Y-11374388D01*
X11096291Y-11374388D02*
X11086767Y-11336293D01*
X11086767Y-11336293D02*
X11086767Y-11288674D01*
X11086767Y-11288674D02*
X11096291Y-11250579D01*
X11096291Y-11250579D02*
X11105815Y-11231531D01*
X11105815Y-11231531D02*
X11115339Y-11222008D01*
X11115339Y-11222008D02*
X11134386Y-11212484D01*
X11277243Y-11231531D02*
X11286767Y-11222008D01*
X11286767Y-11222008D02*
X11305815Y-11212484D01*
X11305815Y-11212484D02*
X11353434Y-11212484D01*
X11353434Y-11212484D02*
X11372482Y-11222008D01*
X11372482Y-11222008D02*
X11382005Y-11231531D01*
X11382005Y-11231531D02*
X11391529Y-11250579D01*
X11391529Y-11250579D02*
X11391529Y-11269627D01*
X11391529Y-11269627D02*
X11382005Y-11298198D01*
X11382005Y-11298198D02*
X11267720Y-11412484D01*
X11267720Y-11412484D02*
X11391529Y-11412484D01*
X11515339Y-11212484D02*
X11534386Y-11212484D01*
X11534386Y-11212484D02*
X11553434Y-11222008D01*
X11553434Y-11222008D02*
X11562958Y-11231531D01*
X11562958Y-11231531D02*
X11572482Y-11250579D01*
X11572482Y-11250579D02*
X11582005Y-11288674D01*
X11582005Y-11288674D02*
X11582005Y-11336293D01*
X11582005Y-11336293D02*
X11572482Y-11374388D01*
X11572482Y-11374388D02*
X11562958Y-11393436D01*
X11562958Y-11393436D02*
X11553434Y-11402960D01*
X11553434Y-11402960D02*
X11534386Y-11412484D01*
X11534386Y-11412484D02*
X11515339Y-11412484D01*
X11515339Y-11412484D02*
X11496291Y-11402960D01*
X11496291Y-11402960D02*
X11486767Y-11393436D01*
X11486767Y-11393436D02*
X11477243Y-11374388D01*
X11477243Y-11374388D02*
X11467720Y-11336293D01*
X11467720Y-11336293D02*
X11467720Y-11288674D01*
X11467720Y-11288674D02*
X11477243Y-11250579D01*
X11477243Y-11250579D02*
X11486767Y-11231531D01*
X11486767Y-11231531D02*
X11496291Y-11222008D01*
X11496291Y-11222008D02*
X11515339Y-11212484D01*
X11667720Y-11412484D02*
X11667720Y-11279150D01*
X11667720Y-11298198D02*
X11677243Y-11288674D01*
X11677243Y-11288674D02*
X11696291Y-11279150D01*
X11696291Y-11279150D02*
X11724863Y-11279150D01*
X11724863Y-11279150D02*
X11743910Y-11288674D01*
X11743910Y-11288674D02*
X11753434Y-11307722D01*
X11753434Y-11307722D02*
X11753434Y-11412484D01*
X11753434Y-11307722D02*
X11762958Y-11288674D01*
X11762958Y-11288674D02*
X11782005Y-11279150D01*
X11782005Y-11279150D02*
X11810577Y-11279150D01*
X11810577Y-11279150D02*
X11829624Y-11288674D01*
X11829624Y-11288674D02*
X11839148Y-11307722D01*
X11839148Y-11307722D02*
X11839148Y-11412484D01*
X11934386Y-11412484D02*
X11934386Y-11279150D01*
X11934386Y-11298198D02*
X11943910Y-11288674D01*
X11943910Y-11288674D02*
X11962958Y-11279150D01*
X11962958Y-11279150D02*
X11991529Y-11279150D01*
X11991529Y-11279150D02*
X12010577Y-11288674D01*
X12010577Y-11288674D02*
X12020101Y-11307722D01*
X12020101Y-11307722D02*
X12020101Y-11412484D01*
X12020101Y-11307722D02*
X12029624Y-11288674D01*
X12029624Y-11288674D02*
X12048672Y-11279150D01*
X12048672Y-11279150D02*
X12077243Y-11279150D01*
X12077243Y-11279150D02*
X12096291Y-11288674D01*
X12096291Y-11288674D02*
X12105815Y-11307722D01*
X12105815Y-11307722D02*
X12105815Y-11412484D01*
X12496291Y-11202960D02*
X12324863Y-11460103D01*
X12753434Y-11212484D02*
X12772482Y-11212484D01*
X12772482Y-11212484D02*
X12791529Y-11222008D01*
X12791529Y-11222008D02*
X12801053Y-11231531D01*
X12801053Y-11231531D02*
X12810577Y-11250579D01*
X12810577Y-11250579D02*
X12820101Y-11288674D01*
X12820101Y-11288674D02*
X12820101Y-11336293D01*
X12820101Y-11336293D02*
X12810577Y-11374388D01*
X12810577Y-11374388D02*
X12801053Y-11393436D01*
X12801053Y-11393436D02*
X12791529Y-11402960D01*
X12791529Y-11402960D02*
X12772482Y-11412484D01*
X12772482Y-11412484D02*
X12753434Y-11412484D01*
X12753434Y-11412484D02*
X12734386Y-11402960D01*
X12734386Y-11402960D02*
X12724863Y-11393436D01*
X12724863Y-11393436D02*
X12715339Y-11374388D01*
X12715339Y-11374388D02*
X12705815Y-11336293D01*
X12705815Y-11336293D02*
X12705815Y-11288674D01*
X12705815Y-11288674D02*
X12715339Y-11250579D01*
X12715339Y-11250579D02*
X12724863Y-11231531D01*
X12724863Y-11231531D02*
X12734386Y-11222008D01*
X12734386Y-11222008D02*
X12753434Y-11212484D01*
X12905815Y-11393436D02*
X12915339Y-11402960D01*
X12915339Y-11402960D02*
X12905815Y-11412484D01*
X12905815Y-11412484D02*
X12896291Y-11402960D01*
X12896291Y-11402960D02*
X12905815Y-11393436D01*
X12905815Y-11393436D02*
X12905815Y-11412484D01*
X13039148Y-11212484D02*
X13058196Y-11212484D01*
X13058196Y-11212484D02*
X13077244Y-11222008D01*
X13077244Y-11222008D02*
X13086767Y-11231531D01*
X13086767Y-11231531D02*
X13096291Y-11250579D01*
X13096291Y-11250579D02*
X13105815Y-11288674D01*
X13105815Y-11288674D02*
X13105815Y-11336293D01*
X13105815Y-11336293D02*
X13096291Y-11374388D01*
X13096291Y-11374388D02*
X13086767Y-11393436D01*
X13086767Y-11393436D02*
X13077244Y-11402960D01*
X13077244Y-11402960D02*
X13058196Y-11412484D01*
X13058196Y-11412484D02*
X13039148Y-11412484D01*
X13039148Y-11412484D02*
X13020101Y-11402960D01*
X13020101Y-11402960D02*
X13010577Y-11393436D01*
X13010577Y-11393436D02*
X13001053Y-11374388D01*
X13001053Y-11374388D02*
X12991529Y-11336293D01*
X12991529Y-11336293D02*
X12991529Y-11288674D01*
X12991529Y-11288674D02*
X13001053Y-11250579D01*
X13001053Y-11250579D02*
X13010577Y-11231531D01*
X13010577Y-11231531D02*
X13020101Y-11222008D01*
X13020101Y-11222008D02*
X13039148Y-11212484D01*
X13277244Y-11279150D02*
X13277244Y-11412484D01*
X13229625Y-11202960D02*
X13182006Y-11345817D01*
X13182006Y-11345817D02*
X13305815Y-11345817D01*
X13420101Y-11212484D02*
X13439148Y-11212484D01*
X13439148Y-11212484D02*
X13458196Y-11222008D01*
X13458196Y-11222008D02*
X13467720Y-11231531D01*
X13467720Y-11231531D02*
X13477244Y-11250579D01*
X13477244Y-11250579D02*
X13486767Y-11288674D01*
X13486767Y-11288674D02*
X13486767Y-11336293D01*
X13486767Y-11336293D02*
X13477244Y-11374388D01*
X13477244Y-11374388D02*
X13467720Y-11393436D01*
X13467720Y-11393436D02*
X13458196Y-11402960D01*
X13458196Y-11402960D02*
X13439148Y-11412484D01*
X13439148Y-11412484D02*
X13420101Y-11412484D01*
X13420101Y-11412484D02*
X13401053Y-11402960D01*
X13401053Y-11402960D02*
X13391529Y-11393436D01*
X13391529Y-11393436D02*
X13382006Y-11374388D01*
X13382006Y-11374388D02*
X13372482Y-11336293D01*
X13372482Y-11336293D02*
X13372482Y-11288674D01*
X13372482Y-11288674D02*
X13382006Y-11250579D01*
X13382006Y-11250579D02*
X13391529Y-11231531D01*
X13391529Y-11231531D02*
X13401053Y-11222008D01*
X13401053Y-11222008D02*
X13420101Y-11212484D01*
X13562958Y-11231531D02*
X13572482Y-11222008D01*
X13572482Y-11222008D02*
X13591529Y-11212484D01*
X13591529Y-11212484D02*
X13639148Y-11212484D01*
X13639148Y-11212484D02*
X13658196Y-11222008D01*
X13658196Y-11222008D02*
X13667720Y-11231531D01*
X13667720Y-11231531D02*
X13677244Y-11250579D01*
X13677244Y-11250579D02*
X13677244Y-11269627D01*
X13677244Y-11269627D02*
X13667720Y-11298198D01*
X13667720Y-11298198D02*
X13553434Y-11412484D01*
X13553434Y-11412484D02*
X13677244Y-11412484D01*
X13753434Y-11212484D02*
X13753434Y-11250579D01*
X13829625Y-11212484D02*
X13829625Y-11250579D01*
X14124863Y-11488674D02*
X14115339Y-11479150D01*
X14115339Y-11479150D02*
X14096291Y-11450579D01*
X14096291Y-11450579D02*
X14086768Y-11431531D01*
X14086768Y-11431531D02*
X14077244Y-11402960D01*
X14077244Y-11402960D02*
X14067720Y-11355341D01*
X14067720Y-11355341D02*
X14067720Y-11317246D01*
X14067720Y-11317246D02*
X14077244Y-11269627D01*
X14077244Y-11269627D02*
X14086768Y-11241055D01*
X14086768Y-11241055D02*
X14096291Y-11222008D01*
X14096291Y-11222008D02*
X14115339Y-11193436D01*
X14115339Y-11193436D02*
X14124863Y-11183912D01*
X14286768Y-11279150D02*
X14286768Y-11412484D01*
X14239148Y-11202960D02*
X14191529Y-11345817D01*
X14191529Y-11345817D02*
X14315339Y-11345817D01*
X14372482Y-11212484D02*
X14496291Y-11212484D01*
X14496291Y-11212484D02*
X14429625Y-11288674D01*
X14429625Y-11288674D02*
X14458196Y-11288674D01*
X14458196Y-11288674D02*
X14477244Y-11298198D01*
X14477244Y-11298198D02*
X14486768Y-11307722D01*
X14486768Y-11307722D02*
X14496291Y-11326769D01*
X14496291Y-11326769D02*
X14496291Y-11374388D01*
X14496291Y-11374388D02*
X14486768Y-11393436D01*
X14486768Y-11393436D02*
X14477244Y-11402960D01*
X14477244Y-11402960D02*
X14458196Y-11412484D01*
X14458196Y-11412484D02*
X14401053Y-11412484D01*
X14401053Y-11412484D02*
X14382006Y-11402960D01*
X14382006Y-11402960D02*
X14372482Y-11393436D01*
X14734387Y-11412484D02*
X14734387Y-11212484D01*
X14820101Y-11412484D02*
X14820101Y-11307722D01*
X14820101Y-11307722D02*
X14810577Y-11288674D01*
X14810577Y-11288674D02*
X14791530Y-11279150D01*
X14791530Y-11279150D02*
X14762958Y-11279150D01*
X14762958Y-11279150D02*
X14743910Y-11288674D01*
X14743910Y-11288674D02*
X14734387Y-11298198D01*
X14943910Y-11412484D02*
X14924863Y-11402960D01*
X14924863Y-11402960D02*
X14915339Y-11393436D01*
X14915339Y-11393436D02*
X14905815Y-11374388D01*
X14905815Y-11374388D02*
X14905815Y-11317246D01*
X14905815Y-11317246D02*
X14915339Y-11298198D01*
X14915339Y-11298198D02*
X14924863Y-11288674D01*
X14924863Y-11288674D02*
X14943910Y-11279150D01*
X14943910Y-11279150D02*
X14972482Y-11279150D01*
X14972482Y-11279150D02*
X14991530Y-11288674D01*
X14991530Y-11288674D02*
X15001053Y-11298198D01*
X15001053Y-11298198D02*
X15010577Y-11317246D01*
X15010577Y-11317246D02*
X15010577Y-11374388D01*
X15010577Y-11374388D02*
X15001053Y-11393436D01*
X15001053Y-11393436D02*
X14991530Y-11402960D01*
X14991530Y-11402960D02*
X14972482Y-11412484D01*
X14972482Y-11412484D02*
X14943910Y-11412484D01*
X15124863Y-11412484D02*
X15105815Y-11402960D01*
X15105815Y-11402960D02*
X15096291Y-11383912D01*
X15096291Y-11383912D02*
X15096291Y-11212484D01*
X15277244Y-11402960D02*
X15258196Y-11412484D01*
X15258196Y-11412484D02*
X15220101Y-11412484D01*
X15220101Y-11412484D02*
X15201053Y-11402960D01*
X15201053Y-11402960D02*
X15191530Y-11383912D01*
X15191530Y-11383912D02*
X15191530Y-11307722D01*
X15191530Y-11307722D02*
X15201053Y-11288674D01*
X15201053Y-11288674D02*
X15220101Y-11279150D01*
X15220101Y-11279150D02*
X15258196Y-11279150D01*
X15258196Y-11279150D02*
X15277244Y-11288674D01*
X15277244Y-11288674D02*
X15286768Y-11307722D01*
X15286768Y-11307722D02*
X15286768Y-11326769D01*
X15286768Y-11326769D02*
X15191530Y-11345817D01*
X15362958Y-11402960D02*
X15382006Y-11412484D01*
X15382006Y-11412484D02*
X15420101Y-11412484D01*
X15420101Y-11412484D02*
X15439149Y-11402960D01*
X15439149Y-11402960D02*
X15448672Y-11383912D01*
X15448672Y-11383912D02*
X15448672Y-11374388D01*
X15448672Y-11374388D02*
X15439149Y-11355341D01*
X15439149Y-11355341D02*
X15420101Y-11345817D01*
X15420101Y-11345817D02*
X15391530Y-11345817D01*
X15391530Y-11345817D02*
X15372482Y-11336293D01*
X15372482Y-11336293D02*
X15362958Y-11317246D01*
X15362958Y-11317246D02*
X15362958Y-11307722D01*
X15362958Y-11307722D02*
X15372482Y-11288674D01*
X15372482Y-11288674D02*
X15391530Y-11279150D01*
X15391530Y-11279150D02*
X15420101Y-11279150D01*
X15420101Y-11279150D02*
X15439149Y-11288674D01*
X15515339Y-11488674D02*
X15524863Y-11479150D01*
X15524863Y-11479150D02*
X15543911Y-11450579D01*
X15543911Y-11450579D02*
X15553434Y-11431531D01*
X15553434Y-11431531D02*
X15562958Y-11402960D01*
X15562958Y-11402960D02*
X15572482Y-11355341D01*
X15572482Y-11355341D02*
X15572482Y-11317246D01*
X15572482Y-11317246D02*
X15562958Y-11269627D01*
X15562958Y-11269627D02*
X15553434Y-11241055D01*
X15553434Y-11241055D02*
X15543911Y-11222008D01*
X15543911Y-11222008D02*
X15524863Y-11193436D01*
X15524863Y-11193436D02*
X15515339Y-11183912D01*
D13*
X10402800Y-11511500D02*
X10549800Y-11658500D01*
X10549800Y-11511500D02*
X10402800Y-11658500D01*
X10549800Y-11585000D02*
G75*
G03*
X10549800Y-11585000I-73500J0D01*
G01*
D11*
X10915339Y-11676484D02*
X10801053Y-11676484D01*
X10858196Y-11676484D02*
X10858196Y-11476484D01*
X10858196Y-11476484D02*
X10839148Y-11505055D01*
X10839148Y-11505055D02*
X10820101Y-11524103D01*
X10820101Y-11524103D02*
X10801053Y-11533627D01*
X11001053Y-11657436D02*
X11010577Y-11666960D01*
X11010577Y-11666960D02*
X11001053Y-11676484D01*
X11001053Y-11676484D02*
X10991529Y-11666960D01*
X10991529Y-11666960D02*
X11001053Y-11657436D01*
X11001053Y-11657436D02*
X11001053Y-11676484D01*
X11182005Y-11543150D02*
X11182005Y-11676484D01*
X11134386Y-11466960D02*
X11086767Y-11609817D01*
X11086767Y-11609817D02*
X11210577Y-11609817D01*
X11267720Y-11476484D02*
X11401053Y-11476484D01*
X11401053Y-11476484D02*
X11315339Y-11676484D01*
X11515339Y-11476484D02*
X11534386Y-11476484D01*
X11534386Y-11476484D02*
X11553434Y-11486008D01*
X11553434Y-11486008D02*
X11562958Y-11495531D01*
X11562958Y-11495531D02*
X11572482Y-11514579D01*
X11572482Y-11514579D02*
X11582005Y-11552674D01*
X11582005Y-11552674D02*
X11582005Y-11600293D01*
X11582005Y-11600293D02*
X11572482Y-11638388D01*
X11572482Y-11638388D02*
X11562958Y-11657436D01*
X11562958Y-11657436D02*
X11553434Y-11666960D01*
X11553434Y-11666960D02*
X11534386Y-11676484D01*
X11534386Y-11676484D02*
X11515339Y-11676484D01*
X11515339Y-11676484D02*
X11496291Y-11666960D01*
X11496291Y-11666960D02*
X11486767Y-11657436D01*
X11486767Y-11657436D02*
X11477243Y-11638388D01*
X11477243Y-11638388D02*
X11467720Y-11600293D01*
X11467720Y-11600293D02*
X11467720Y-11552674D01*
X11467720Y-11552674D02*
X11477243Y-11514579D01*
X11477243Y-11514579D02*
X11486767Y-11495531D01*
X11486767Y-11495531D02*
X11496291Y-11486008D01*
X11496291Y-11486008D02*
X11515339Y-11476484D01*
X11667720Y-11676484D02*
X11667720Y-11543150D01*
X11667720Y-11562198D02*
X11677243Y-11552674D01*
X11677243Y-11552674D02*
X11696291Y-11543150D01*
X11696291Y-11543150D02*
X11724863Y-11543150D01*
X11724863Y-11543150D02*
X11743910Y-11552674D01*
X11743910Y-11552674D02*
X11753434Y-11571722D01*
X11753434Y-11571722D02*
X11753434Y-11676484D01*
X11753434Y-11571722D02*
X11762958Y-11552674D01*
X11762958Y-11552674D02*
X11782005Y-11543150D01*
X11782005Y-11543150D02*
X11810577Y-11543150D01*
X11810577Y-11543150D02*
X11829624Y-11552674D01*
X11829624Y-11552674D02*
X11839148Y-11571722D01*
X11839148Y-11571722D02*
X11839148Y-11676484D01*
X11934386Y-11676484D02*
X11934386Y-11543150D01*
X11934386Y-11562198D02*
X11943910Y-11552674D01*
X11943910Y-11552674D02*
X11962958Y-11543150D01*
X11962958Y-11543150D02*
X11991529Y-11543150D01*
X11991529Y-11543150D02*
X12010577Y-11552674D01*
X12010577Y-11552674D02*
X12020101Y-11571722D01*
X12020101Y-11571722D02*
X12020101Y-11676484D01*
X12020101Y-11571722D02*
X12029624Y-11552674D01*
X12029624Y-11552674D02*
X12048672Y-11543150D01*
X12048672Y-11543150D02*
X12077243Y-11543150D01*
X12077243Y-11543150D02*
X12096291Y-11552674D01*
X12096291Y-11552674D02*
X12105815Y-11571722D01*
X12105815Y-11571722D02*
X12105815Y-11676484D01*
X12496291Y-11466960D02*
X12324863Y-11724103D01*
X12753434Y-11476484D02*
X12772482Y-11476484D01*
X12772482Y-11476484D02*
X12791529Y-11486008D01*
X12791529Y-11486008D02*
X12801053Y-11495531D01*
X12801053Y-11495531D02*
X12810577Y-11514579D01*
X12810577Y-11514579D02*
X12820101Y-11552674D01*
X12820101Y-11552674D02*
X12820101Y-11600293D01*
X12820101Y-11600293D02*
X12810577Y-11638388D01*
X12810577Y-11638388D02*
X12801053Y-11657436D01*
X12801053Y-11657436D02*
X12791529Y-11666960D01*
X12791529Y-11666960D02*
X12772482Y-11676484D01*
X12772482Y-11676484D02*
X12753434Y-11676484D01*
X12753434Y-11676484D02*
X12734386Y-11666960D01*
X12734386Y-11666960D02*
X12724863Y-11657436D01*
X12724863Y-11657436D02*
X12715339Y-11638388D01*
X12715339Y-11638388D02*
X12705815Y-11600293D01*
X12705815Y-11600293D02*
X12705815Y-11552674D01*
X12705815Y-11552674D02*
X12715339Y-11514579D01*
X12715339Y-11514579D02*
X12724863Y-11495531D01*
X12724863Y-11495531D02*
X12734386Y-11486008D01*
X12734386Y-11486008D02*
X12753434Y-11476484D01*
X12905815Y-11657436D02*
X12915339Y-11666960D01*
X12915339Y-11666960D02*
X12905815Y-11676484D01*
X12905815Y-11676484D02*
X12896291Y-11666960D01*
X12896291Y-11666960D02*
X12905815Y-11657436D01*
X12905815Y-11657436D02*
X12905815Y-11676484D01*
X13039148Y-11476484D02*
X13058196Y-11476484D01*
X13058196Y-11476484D02*
X13077244Y-11486008D01*
X13077244Y-11486008D02*
X13086767Y-11495531D01*
X13086767Y-11495531D02*
X13096291Y-11514579D01*
X13096291Y-11514579D02*
X13105815Y-11552674D01*
X13105815Y-11552674D02*
X13105815Y-11600293D01*
X13105815Y-11600293D02*
X13096291Y-11638388D01*
X13096291Y-11638388D02*
X13086767Y-11657436D01*
X13086767Y-11657436D02*
X13077244Y-11666960D01*
X13077244Y-11666960D02*
X13058196Y-11676484D01*
X13058196Y-11676484D02*
X13039148Y-11676484D01*
X13039148Y-11676484D02*
X13020101Y-11666960D01*
X13020101Y-11666960D02*
X13010577Y-11657436D01*
X13010577Y-11657436D02*
X13001053Y-11638388D01*
X13001053Y-11638388D02*
X12991529Y-11600293D01*
X12991529Y-11600293D02*
X12991529Y-11552674D01*
X12991529Y-11552674D02*
X13001053Y-11514579D01*
X13001053Y-11514579D02*
X13010577Y-11495531D01*
X13010577Y-11495531D02*
X13020101Y-11486008D01*
X13020101Y-11486008D02*
X13039148Y-11476484D01*
X13286767Y-11476484D02*
X13191529Y-11476484D01*
X13191529Y-11476484D02*
X13182006Y-11571722D01*
X13182006Y-11571722D02*
X13191529Y-11562198D01*
X13191529Y-11562198D02*
X13210577Y-11552674D01*
X13210577Y-11552674D02*
X13258196Y-11552674D01*
X13258196Y-11552674D02*
X13277244Y-11562198D01*
X13277244Y-11562198D02*
X13286767Y-11571722D01*
X13286767Y-11571722D02*
X13296291Y-11590769D01*
X13296291Y-11590769D02*
X13296291Y-11638388D01*
X13296291Y-11638388D02*
X13286767Y-11657436D01*
X13286767Y-11657436D02*
X13277244Y-11666960D01*
X13277244Y-11666960D02*
X13258196Y-11676484D01*
X13258196Y-11676484D02*
X13210577Y-11676484D01*
X13210577Y-11676484D02*
X13191529Y-11666960D01*
X13191529Y-11666960D02*
X13182006Y-11657436D01*
X13362958Y-11476484D02*
X13496291Y-11476484D01*
X13496291Y-11476484D02*
X13410577Y-11676484D01*
X13582006Y-11676484D02*
X13620101Y-11676484D01*
X13620101Y-11676484D02*
X13639148Y-11666960D01*
X13639148Y-11666960D02*
X13648672Y-11657436D01*
X13648672Y-11657436D02*
X13667720Y-11628865D01*
X13667720Y-11628865D02*
X13677244Y-11590769D01*
X13677244Y-11590769D02*
X13677244Y-11514579D01*
X13677244Y-11514579D02*
X13667720Y-11495531D01*
X13667720Y-11495531D02*
X13658196Y-11486008D01*
X13658196Y-11486008D02*
X13639148Y-11476484D01*
X13639148Y-11476484D02*
X13601053Y-11476484D01*
X13601053Y-11476484D02*
X13582006Y-11486008D01*
X13582006Y-11486008D02*
X13572482Y-11495531D01*
X13572482Y-11495531D02*
X13562958Y-11514579D01*
X13562958Y-11514579D02*
X13562958Y-11562198D01*
X13562958Y-11562198D02*
X13572482Y-11581246D01*
X13572482Y-11581246D02*
X13582006Y-11590769D01*
X13582006Y-11590769D02*
X13601053Y-11600293D01*
X13601053Y-11600293D02*
X13639148Y-11600293D01*
X13639148Y-11600293D02*
X13658196Y-11590769D01*
X13658196Y-11590769D02*
X13667720Y-11581246D01*
X13667720Y-11581246D02*
X13677244Y-11562198D01*
X13753434Y-11476484D02*
X13753434Y-11514579D01*
X13829625Y-11476484D02*
X13829625Y-11514579D01*
X14124863Y-11752674D02*
X14115339Y-11743150D01*
X14115339Y-11743150D02*
X14096291Y-11714579D01*
X14096291Y-11714579D02*
X14086768Y-11695531D01*
X14086768Y-11695531D02*
X14077244Y-11666960D01*
X14077244Y-11666960D02*
X14067720Y-11619341D01*
X14067720Y-11619341D02*
X14067720Y-11581246D01*
X14067720Y-11581246D02*
X14077244Y-11533627D01*
X14077244Y-11533627D02*
X14086768Y-11505055D01*
X14086768Y-11505055D02*
X14096291Y-11486008D01*
X14096291Y-11486008D02*
X14115339Y-11457436D01*
X14115339Y-11457436D02*
X14124863Y-11447912D01*
X14191529Y-11495531D02*
X14201053Y-11486008D01*
X14201053Y-11486008D02*
X14220101Y-11476484D01*
X14220101Y-11476484D02*
X14267720Y-11476484D01*
X14267720Y-11476484D02*
X14286768Y-11486008D01*
X14286768Y-11486008D02*
X14296291Y-11495531D01*
X14296291Y-11495531D02*
X14305815Y-11514579D01*
X14305815Y-11514579D02*
X14305815Y-11533627D01*
X14305815Y-11533627D02*
X14296291Y-11562198D01*
X14296291Y-11562198D02*
X14182006Y-11676484D01*
X14182006Y-11676484D02*
X14305815Y-11676484D01*
X14477244Y-11543150D02*
X14477244Y-11676484D01*
X14429625Y-11466960D02*
X14382006Y-11609817D01*
X14382006Y-11609817D02*
X14505815Y-11609817D01*
X14734387Y-11676484D02*
X14734387Y-11476484D01*
X14820101Y-11676484D02*
X14820101Y-11571722D01*
X14820101Y-11571722D02*
X14810577Y-11552674D01*
X14810577Y-11552674D02*
X14791530Y-11543150D01*
X14791530Y-11543150D02*
X14762958Y-11543150D01*
X14762958Y-11543150D02*
X14743910Y-11552674D01*
X14743910Y-11552674D02*
X14734387Y-11562198D01*
X14943910Y-11676484D02*
X14924863Y-11666960D01*
X14924863Y-11666960D02*
X14915339Y-11657436D01*
X14915339Y-11657436D02*
X14905815Y-11638388D01*
X14905815Y-11638388D02*
X14905815Y-11581246D01*
X14905815Y-11581246D02*
X14915339Y-11562198D01*
X14915339Y-11562198D02*
X14924863Y-11552674D01*
X14924863Y-11552674D02*
X14943910Y-11543150D01*
X14943910Y-11543150D02*
X14972482Y-11543150D01*
X14972482Y-11543150D02*
X14991530Y-11552674D01*
X14991530Y-11552674D02*
X15001053Y-11562198D01*
X15001053Y-11562198D02*
X15010577Y-11581246D01*
X15010577Y-11581246D02*
X15010577Y-11638388D01*
X15010577Y-11638388D02*
X15001053Y-11657436D01*
X15001053Y-11657436D02*
X14991530Y-11666960D01*
X14991530Y-11666960D02*
X14972482Y-11676484D01*
X14972482Y-11676484D02*
X14943910Y-11676484D01*
X15124863Y-11676484D02*
X15105815Y-11666960D01*
X15105815Y-11666960D02*
X15096291Y-11647912D01*
X15096291Y-11647912D02*
X15096291Y-11476484D01*
X15277244Y-11666960D02*
X15258196Y-11676484D01*
X15258196Y-11676484D02*
X15220101Y-11676484D01*
X15220101Y-11676484D02*
X15201053Y-11666960D01*
X15201053Y-11666960D02*
X15191530Y-11647912D01*
X15191530Y-11647912D02*
X15191530Y-11571722D01*
X15191530Y-11571722D02*
X15201053Y-11552674D01*
X15201053Y-11552674D02*
X15220101Y-11543150D01*
X15220101Y-11543150D02*
X15258196Y-11543150D01*
X15258196Y-11543150D02*
X15277244Y-11552674D01*
X15277244Y-11552674D02*
X15286768Y-11571722D01*
X15286768Y-11571722D02*
X15286768Y-11590769D01*
X15286768Y-11590769D02*
X15191530Y-11609817D01*
X15362958Y-11666960D02*
X15382006Y-11676484D01*
X15382006Y-11676484D02*
X15420101Y-11676484D01*
X15420101Y-11676484D02*
X15439149Y-11666960D01*
X15439149Y-11666960D02*
X15448672Y-11647912D01*
X15448672Y-11647912D02*
X15448672Y-11638388D01*
X15448672Y-11638388D02*
X15439149Y-11619341D01*
X15439149Y-11619341D02*
X15420101Y-11609817D01*
X15420101Y-11609817D02*
X15391530Y-11609817D01*
X15391530Y-11609817D02*
X15372482Y-11600293D01*
X15372482Y-11600293D02*
X15362958Y-11581246D01*
X15362958Y-11581246D02*
X15362958Y-11571722D01*
X15362958Y-11571722D02*
X15372482Y-11552674D01*
X15372482Y-11552674D02*
X15391530Y-11543150D01*
X15391530Y-11543150D02*
X15420101Y-11543150D01*
X15420101Y-11543150D02*
X15439149Y-11552674D01*
X15515339Y-11752674D02*
X15524863Y-11743150D01*
X15524863Y-11743150D02*
X15543911Y-11714579D01*
X15543911Y-11714579D02*
X15553434Y-11695531D01*
X15553434Y-11695531D02*
X15562958Y-11666960D01*
X15562958Y-11666960D02*
X15572482Y-11619341D01*
X15572482Y-11619341D02*
X15572482Y-11581246D01*
X15572482Y-11581246D02*
X15562958Y-11533627D01*
X15562958Y-11533627D02*
X15553434Y-11505055D01*
X15553434Y-11505055D02*
X15543911Y-11486008D01*
X15543911Y-11486008D02*
X15524863Y-11457436D01*
X15524863Y-11457436D02*
X15515339Y-11447912D01*
M02*
